<svg enable-background="new 0 0 512.001 512.001" viewBox="0 0 512.001 512.001" xmlns="http://www.w3.org/2000/svg"><path d="m473.655 88.276h-435.31c-21.178 0-38.345 17.168-38.345 38.345v73.471h512v-73.471c0-21.177-17.167-38.345-38.345-38.345z" fill="#73af00"/><path d="m0 385.38c0 21.177 17.167 38.345 38.345 38.345h435.31c21.177 0 38.345-17.167 38.345-38.345v-73.471h-512z" fill="#ff4b55"/><g fill="#f5f5f5"><path d="m0 200.089h512v111.81h-512z"/><path d="m1.388 194.176h.078c.767 0 1.389-.621 1.389-1.388v-3.008c0-.767.621-1.388 1.389-1.388h5.827c.767 0 1.389.621 1.389 1.388v3.008c0 .767.621 1.388 1.389 1.388h11.502c.767 0 1.388-.621 1.388-1.388v-5.939c0-.767-.621-1.388-1.388-1.388h-5.79c-.767 0-1.388.621-1.388 1.388v.153c0 .767.621 1.388 1.388 1.388h2.935c.767 0 1.389.621 1.389 1.388v.151c0 .767-.621 1.388-1.389 1.388h-5.792c-.767 0-1.389-.621-1.389-1.388v-3.081c0-.767-.622-1.388-1.389-1.388h-11.538c-.767 0-1.388.621-1.388 1.388v5.939c0 .766.621 1.389 1.388 1.389zm5.749 0h.079c.767 0 1.388-.621 1.388-1.388v-.079c0-.767-.621-1.388-1.388-1.388h-.079c-.767 0-1.389.622-1.389 1.388v.079c0 .765.622 1.388 1.389 1.388zm-5.749-11.645h34.423c.767 0 1.389-.621 1.389-1.388v-.152c0-.767-.621-1.388-1.389-1.388h-34.423c-.767 0-1.388.621-1.388 1.388v.152c0 .767.621 1.388 1.388 1.388zm34.423 11.645h-5.79c-.767 0-1.389-.621-1.389-1.388v-5.939c0-.767.621-1.388 1.389-1.388h8.647c.767 0 1.389-.622 1.389-1.388v-3.081c0-.767.621-1.388 1.388-1.388h.077c.767 0 1.389.621 1.389 1.388v8.94c0 .767.621 1.388 1.388 1.388h.079c.767 0 1.388-.621 1.388-1.388v-8.94c0-.767.621-1.388 1.388-1.388h.077c.767 0 1.389.621 1.389 1.388v8.94c0 .767.621 1.388 1.388 1.388h.115c.767 0 1.389-.621 1.389-1.388v-8.94c0-.767.621-1.388 1.388-1.388h.042c.767 0 1.388.621 1.388 1.388v11.797c0 .767-.621 1.388-1.388 1.388h-11.495c-.767 0-1.388-.621-1.388-1.388v-3.008c0-.767-.621-1.388-1.389-1.388h-5.79c-.767 0-1.389.621-1.389 1.388v.151c0 .767.621 1.388 1.389 1.388h2.933c.767 0 1.389.622 1.389 1.388v.079c-.001.766-.624 1.389-1.391 1.389z"/><path d="m58.618 194.176h.115c.767 0 1.389-.621 1.389-1.388v-3.008c0-.767.621-1.388 1.388-1.388h5.754c.767 0 1.389.621 1.389 1.388v3.008c0 .767.621 1.388 1.388 1.388h11.502c.767 0 1.388-.621 1.388-1.388v-5.939c0-.767-.621-1.388-1.388-1.388h-5.79c-.767 0-1.389.621-1.389 1.388v.153c0 .767.621 1.388 1.389 1.388h2.935c.767 0 1.388.621 1.388 1.388v.151c0 .767-.621 1.388-1.388 1.388h-5.792c-.767 0-1.388-.621-1.388-1.388v-3.081c0-.767-.621-1.388-1.388-1.388h-11.502c-.767 0-1.388.621-1.388 1.388v5.939c0 .766.622 1.389 1.388 1.389zm5.713 0h.078c.767 0 1.388-.621 1.388-1.388v-.079c0-.767-.621-1.388-1.388-1.388h-.078c-.767 0-1.388.622-1.388 1.388v.079c0 .765.621 1.388 1.388 1.388zm-5.713-11.645h34.387c.767 0 1.389-.621 1.389-1.388v-.152c0-.767-.621-1.388-1.389-1.388h-34.387c-.767 0-1.388.621-1.388 1.388v.152c0 .767.622 1.388 1.388 1.388zm34.388 11.645h-5.827c-.767 0-1.389-.621-1.389-1.388v-5.939c0-.767.621-1.388 1.389-1.388h8.648c.767 0 1.388-.622 1.388-1.388v-3.081c0-.767.621-1.388 1.389-1.388h.115c.767 0 1.388.621 1.388 1.388v8.94c0 .767.621 1.388 1.389 1.388h.115c.767 0 1.389-.621 1.389-1.388v-8.94c0-.767.621-1.388 1.389-1.388h.042c.767 0 1.388.621 1.388 1.388v8.94c0 .767.621 1.388 1.389 1.388h.115c.767 0 1.389-.621 1.389-1.388v-8.94c0-.767.621-1.388 1.388-1.388h.078c.767 0 1.388.621 1.388 1.388v11.797c0 .767-.621 1.388-1.388 1.388h-11.574c-.767 0-1.389-.621-1.389-1.388v-3.008c0-.767-.621-1.388-1.388-1.388h-5.754c-.767 0-1.388.621-1.388 1.388v.151c0 .767.621 1.388 1.388 1.388h2.935c.767 0 1.389.622 1.389 1.388v.079c-.003.766-.624 1.389-1.391 1.389z"/><path d="m115.814 194.176h.077c.767 0 1.388-.621 1.388-1.388v-3.008c0-.767.621-1.388 1.388-1.388h5.792c.767 0 1.388.621 1.388 1.388v3.008c0 .767.622 1.388 1.389 1.388h11.538c.767 0 1.389-.621 1.389-1.388v-5.939c0-.767-.621-1.388-1.389-1.388h-5.79c-.767 0-1.389.621-1.389 1.388v.153c0 .767.621 1.388 1.389 1.388h2.935c.767 0 1.389.621 1.389 1.388v.151c0 .767-.621 1.388-1.389 1.388h-5.827c-.767 0-1.388-.621-1.388-1.388v-3.081c0-.767-.621-1.388-1.388-1.388h-11.502c-.767 0-1.388.621-1.388 1.388v5.939c-.002.766.621 1.389 1.388 1.389zm5.712 0h.078c.767 0 1.388-.621 1.388-1.388v-.079c0-.767-.621-1.388-1.388-1.388h-.078c-.767 0-1.388.622-1.388 1.388v.079c-.001.765.621 1.388 1.388 1.388zm-5.712-11.645h34.424c.767 0 1.389-.621 1.389-1.388v-.152c0-.767-.621-1.388-1.389-1.388h-34.424c-.767 0-1.388.621-1.388 1.388v.152c-.002.767.621 1.388 1.388 1.388zm34.424 11.645h-5.827c-.767 0-1.389-.621-1.389-1.388v-5.939c0-.767.621-1.388 1.389-1.388h8.646c.767 0 1.388-.622 1.388-1.388v-3.081c0-.767.622-1.388 1.389-1.388h.079c.767 0 1.388.621 1.388 1.388v8.94c0 .767.622 1.388 1.389 1.388h.115c.767 0 1.389-.621 1.389-1.388v-8.94c0-.767.621-1.388 1.388-1.388h.116c.767 0 1.388.621 1.388 1.388v8.94c0 .767.622 1.388 1.388 1.388h.042c.767 0 1.389-.621 1.389-1.388v-8.94c0-.767.621-1.388 1.388-1.388h.078c.767 0 1.388.621 1.388 1.388v11.797c0 .767-.622 1.388-1.388 1.388h-11.54c-.767 0-1.389-.621-1.389-1.388v-3.008c0-.767-.621-1.388-1.388-1.388h-5.79c-.767 0-1.389.621-1.389 1.388v.151c0 .767.621 1.388 1.389 1.388h2.973c.767 0 1.389.622 1.389 1.388v.079c.001.766-.621 1.389-1.388 1.389z"/><path d="m173.007 194.176h.077c.767 0 1.388-.621 1.388-1.388v-3.008c0-.767.622-1.388 1.388-1.388h5.79c.767 0 1.389.621 1.389 1.388v3.008c0 .767.621 1.388 1.389 1.388h11.54c.767 0 1.388-.621 1.388-1.388v-5.939c0-.767-.621-1.388-1.388-1.388h-5.827c-.767 0-1.389.621-1.389 1.388v.153c0 .767.622 1.388 1.389 1.388h2.935c.767 0 1.388.621 1.388 1.388v.151c0 .767-.621 1.388-1.388 1.388h-5.79c-.767 0-1.388-.621-1.388-1.388v-3.081c0-.767-.622-1.388-1.389-1.388h-11.502c-.767 0-1.389.621-1.389 1.388v5.939c.001.766.623 1.389 1.389 1.389zm5.713 0h.077c.767 0 1.388-.621 1.388-1.388v-.079c0-.767-.621-1.388-1.388-1.388h-.077c-.767 0-1.389.622-1.389 1.388v.079c0 .765.622 1.388 1.389 1.388zm-5.713-11.645h34.387c.767 0 1.388-.621 1.388-1.388v-.152c0-.767-.621-1.388-1.388-1.388h-34.387c-.767 0-1.389.621-1.389 1.388v.152c.001.767.623 1.388 1.389 1.388zm34.388 11.645h-5.827c-.767 0-1.388-.621-1.388-1.388v-5.939c0-.767.621-1.388 1.388-1.388h8.721c.767 0 1.389-.622 1.389-1.388v-3.081c0-.767.621-1.388 1.388-1.388h.078c.767 0 1.388.621 1.388 1.388v8.94c0 .767.621 1.388 1.388 1.388h.042c.767 0 1.389-.621 1.389-1.388v-8.94c0-.767.621-1.388 1.388-1.388h.116c.767 0 1.388.621 1.388 1.388v8.94c0 .767.621 1.388 1.388 1.388h.079c.767 0 1.388-.621 1.388-1.388v-8.94c0-.767.622-1.388 1.389-1.388h.077c.767 0 1.388.621 1.388 1.388v11.797c0 .767-.621 1.388-1.388 1.388h-11.501c-.767 0-1.388-.621-1.388-1.388v-3.008c0-.767-.621-1.388-1.389-1.388h-5.827c-.767 0-1.389.621-1.389 1.388v.151c0 .767.622 1.388 1.389 1.388h2.935c.767 0 1.388.622 1.388 1.388v.079c.001.766-.62 1.389-1.387 1.389z"/><path d="m230.2 194.176h.079c.767 0 1.388-.621 1.388-1.388v-3.008c0-.767.621-1.388 1.388-1.388h5.79c.767 0 1.388.621 1.388 1.388v3.008c0 .767.622 1.388 1.389 1.388h11.54c.767 0 1.388-.621 1.388-1.388v-5.939c0-.767-.621-1.388-1.388-1.388h-5.827c-.767 0-1.389.621-1.389 1.388v.153c0 .767.622 1.388 1.389 1.388h2.97c.767 0 1.388.621 1.388 1.388v.151c0 .767-.622 1.388-1.388 1.388h-5.79c-.767 0-1.388-.621-1.388-1.388v-3.081c0-.767-.621-1.388-1.389-1.388h-11.54c-.767 0-1.389.621-1.389 1.388v5.939c.003.766.624 1.389 1.391 1.389zm5.75 0h.042c.767 0 1.389-.621 1.389-1.388v-.079c0-.767-.622-1.388-1.389-1.388h-.042c-.767 0-1.388.622-1.388 1.388v.079c-.001.765.621 1.388 1.388 1.388zm-5.75-11.645h34.425c.767 0 1.388-.621 1.388-1.388v-.152c0-.767-.622-1.388-1.388-1.388h-34.425c-.767 0-1.389.621-1.389 1.388v.152c.001.767.622 1.388 1.389 1.388zm34.426 11.645h-5.827c-.767 0-1.388-.621-1.388-1.388v-5.939c0-.767.621-1.388 1.388-1.388h8.684c.767 0 1.388-.622 1.388-1.388v-3.081c0-.767.622-1.388 1.389-1.388h.077c.767 0 1.388.621 1.388 1.388v8.94c0 .767.622 1.388 1.388 1.388h.079c.767 0 1.388-.621 1.388-1.388v-8.94c0-.767.622-1.388 1.389-1.388h.077c.767 0 1.388.621 1.388 1.388v8.94c0 .767.622 1.388 1.388 1.388h.077c.767 0 1.388-.621 1.388-1.388v-8.94c0-.767.622-1.388 1.389-1.388h.079c.767 0 1.389.621 1.389 1.388v11.797c0 .767-.622 1.388-1.389 1.388h-11.502c-.767 0-1.389-.621-1.389-1.388v-3.008c0-.767-.621-1.388-1.388-1.388h-5.827c-.767 0-1.389.621-1.389 1.388v.151c0 .767.622 1.388 1.389 1.388h2.97c.767 0 1.388.622 1.388 1.388v.079c.007.766-.614 1.389-1.381 1.389z"/><path d="m287.395 194.176h.079c.767 0 1.389-.621 1.389-1.388v-3.008c0-.767.621-1.388 1.389-1.388h5.79c.767 0 1.389.621 1.389 1.388v3.008c0 .767.622 1.388 1.388 1.388h11.54c.767 0 1.389-.621 1.389-1.388v-5.939c0-.767-.621-1.388-1.389-1.388h-5.792c-.767 0-1.388.621-1.388 1.388v.153c0 .767.621 1.388 1.388 1.388h2.9c.767 0 1.389.621 1.389 1.388v.151c0 .767-.622 1.388-1.389 1.388h-5.754c-.767 0-1.389-.621-1.389-1.388v-3.081c0-.767-.621-1.388-1.388-1.388h-11.54c-.767 0-1.389.621-1.389 1.388v5.939c-.001.766.621 1.389 1.388 1.389zm5.749 0h.042c.767 0 1.389-.621 1.389-1.388v-.079c0-.767-.622-1.388-1.389-1.388h-.042c-.767 0-1.388.622-1.388 1.388v.079c0 .765.621 1.388 1.388 1.388zm-5.749-11.645h34.425c.767 0 1.388-.621 1.388-1.388v-.152c0-.767-.622-1.388-1.388-1.388h-34.425c-.767 0-1.389.621-1.389 1.388v.152c0 .767.622 1.388 1.389 1.388zm34.425 11.645h-5.79c-.767 0-1.388-.621-1.388-1.388v-5.939c0-.767.621-1.388 1.388-1.388h8.646c.767 0 1.388-.622 1.388-1.388v-3.081c0-.767.622-1.388 1.389-1.388h.079c.767 0 1.388.621 1.388 1.388v8.94c0 .767.621 1.388 1.389 1.388h.077c.767 0 1.389-.621 1.389-1.388v-8.94c0-.767.621-1.388 1.389-1.388h.079c.767 0 1.389.621 1.389 1.388v8.94c0 .767.621 1.388 1.388 1.388h.078c.767 0 1.388-.621 1.388-1.388v-8.94c0-.767.622-1.388 1.389-1.388h.079c.767 0 1.389.621 1.389 1.388v11.797c0 .767-.622 1.388-1.389 1.388h-11.505c-.767 0-1.389-.621-1.389-1.388v-3.008c0-.767-.621-1.388-1.388-1.388h-5.826c-.767 0-1.389.621-1.389 1.388v.151c0 .767.622 1.388 1.389 1.388h2.97c.767 0 1.388.622 1.388 1.388v.079c.005.766-.618 1.389-1.384 1.389z"/><path d="m344.589 194.176h.079c.767 0 1.389-.621 1.389-1.388v-3.008c0-.767.621-1.388 1.388-1.388h5.826c.767 0 1.389.621 1.389 1.388v3.008c0 .767.621 1.388 1.388 1.388h11.505c.767 0 1.388-.621 1.388-1.388v-5.939c0-.767-.621-1.388-1.388-1.388h-5.792c-.767 0-1.389.621-1.389 1.388v.153c0 .767.621 1.388 1.389 1.388h2.973c.767 0 1.388.621 1.388 1.388v.151c0 .767-.621 1.388-1.388 1.388h-5.865c-.767 0-1.388-.621-1.388-1.388v-3.081c0-.767-.622-1.388-1.389-1.388h-11.502c-.767 0-1.389.621-1.389 1.388v5.939c-.001.766.621 1.389 1.388 1.389zm5.713 0h.116c.767 0 1.388-.621 1.388-1.388v-.079c0-.767-.621-1.388-1.388-1.388h-.116c-.767 0-1.388.622-1.388 1.388v.079c-.001.765.621 1.388 1.388 1.388zm-5.713-11.645h34.424c.767 0 1.389-.621 1.389-1.388v-.152c0-.767-.621-1.388-1.389-1.388h-34.424c-.767 0-1.389.621-1.389 1.388v.152c0 .767.622 1.388 1.389 1.388zm34.426 11.645h-5.79c-.767 0-1.389-.621-1.389-1.388v-5.939c0-.767.621-1.388 1.389-1.388h8.646c.767 0 1.389-.622 1.389-1.388v-3.081c0-.767.621-1.388 1.389-1.388h.079c.767 0 1.389.621 1.389 1.388v8.94c0 .767.621 1.388 1.388 1.388h.077c.767 0 1.389-.621 1.389-1.388v-8.94c0-.767.622-1.388 1.389-1.388h.079c.767 0 1.389.621 1.389 1.388v8.94c0 .767.621 1.388 1.389 1.388h.115c.767 0 1.388-.621 1.388-1.388v-8.94c0-.767.622-1.388 1.389-1.388h.04c.767 0 1.389.621 1.389 1.388v11.797c0 .767-.622 1.388-1.389 1.388h-11.502c-.767 0-1.389-.621-1.389-1.388v-3.008c0-.767-.621-1.388-1.389-1.388h-5.754c-.767 0-1.389.621-1.389 1.388v.151c0 .767.621 1.388 1.389 1.388h2.899c.767 0 1.389.622 1.389 1.388v.079c0 .766-.621 1.389-1.388 1.389z"/><path d="m401.82 194.176h.042c.767 0 1.389-.621 1.389-1.388v-3.008c0-.767.621-1.388 1.389-1.388h5.792c.767 0 1.389.621 1.389 1.388v3.008c0 .767.621 1.388 1.388 1.388h11.538c.767 0 1.389-.621 1.389-1.388v-5.939c0-.767-.622-1.388-1.389-1.388h-5.752c-.767 0-1.389.621-1.389 1.388v.153c0 .767.622 1.388 1.389 1.388h2.933c.767 0 1.389.621 1.389 1.388v.151c0 .767-.621 1.388-1.389 1.388h-5.825c-.767 0-1.389-.621-1.389-1.388v-3.081c0-.767-.621-1.388-1.389-1.388h-11.505c-.767 0-1.389.621-1.389 1.388v5.939c-.001.766.622 1.389 1.389 1.389zm5.712 0h.079c.767 0 1.388-.621 1.388-1.388v-.079c0-.767-.621-1.388-1.388-1.388h-.079c-.767 0-1.388.622-1.388 1.388v.079c-.001.765.62 1.388 1.388 1.388zm-5.712-11.645h34.462c.767 0 1.389-.621 1.389-1.388v-.152c0-.767-.621-1.388-1.389-1.388h-34.462c-.767 0-1.389.621-1.389 1.388v.152c-.001.767.622 1.388 1.389 1.388zm34.461 11.645h-5.865c-.767 0-1.389-.621-1.389-1.388v-5.939c0-.767.622-1.388 1.389-1.388h8.647c.767 0 1.389-.622 1.389-1.388v-3.081c0-.767.622-1.388 1.389-1.388h.115c.767 0 1.388.621 1.388 1.388v8.94c0 .767.622 1.388 1.389 1.388h.077c.767 0 1.389-.621 1.389-1.388v-8.94c0-.767.621-1.388 1.388-1.388h.042c.767 0 1.389.621 1.389 1.388v8.94c0 .767.621 1.388 1.389 1.388h.115c.767 0 1.388-.621 1.388-1.388v-8.94c0-.767.621-1.388 1.389-1.388h.079c.767 0 1.389.621 1.389 1.388v11.797c0 .767-.621 1.388-1.389 1.388h-11.54c-.767 0-1.389-.621-1.389-1.388v-3.008c0-.767-.621-1.388-1.389-1.388h-5.79c-.767 0-1.389.621-1.389 1.388v.151c0 .767.621 1.388 1.389 1.388h3.008c.767 0 1.389.622 1.389 1.388v.079c.004.766-.619 1.389-1.386 1.389z"/><path d="m459.013 194.176h.079c.767 0 1.389-.621 1.389-1.388v-3.008c0-.767.621-1.388 1.389-1.388h5.79c.767 0 1.389.621 1.389 1.388v3.008c0 .767.621 1.388 1.389 1.388h11.54c.767 0 1.389-.621 1.389-1.388v-5.939c0-.767-.621-1.388-1.389-1.388h-5.754c-.767 0-1.388.621-1.388 1.388v.153c0 .767.622 1.388 1.388 1.388h2.935c.767 0 1.388.621 1.388 1.388v.151c0 .767-.622 1.388-1.388 1.388h-5.865c-.767 0-1.389-.621-1.389-1.388v-3.081c0-.767-.621-1.388-1.388-1.388h-11.502c-.767 0-1.389.621-1.389 1.388v5.939c-.001.766.621 1.389 1.387 1.389zm5.713 0h.079c.767 0 1.389-.621 1.389-1.388v-.079c0-.767-.621-1.388-1.389-1.388h-.079c-.767 0-1.388.622-1.388 1.388v.079c0 .765.621 1.388 1.388 1.388zm-5.713-11.645h34.388c.767 0 1.389-.621 1.389-1.388v-.152c0-.767-.621-1.388-1.389-1.388h-34.388c-.767 0-1.389.621-1.389 1.388v.152c.001.767.623 1.388 1.389 1.388zm34.388 11.645h-5.79c-.767 0-1.389-.621-1.389-1.388v-5.939c0-.767.621-1.388 1.389-1.388h8.721c.767 0 1.389-.622 1.389-1.388v-3.081c0-.767.621-1.388 1.388-1.388h.004c.767 0 1.389.621 1.389 1.388v8.94c0 .767.621 1.388 1.388 1.388h.152c.767 0 1.389-.621 1.389-1.388v-8.94c0-.767.621-1.388 1.389-1.388h.004c.767 0 1.389.621 1.389 1.388v8.94c0 .767.622 1.388 1.389 1.388h.079c.767 0 1.389-.621 1.389-1.388v-8.94c0-.767.622-1.388 1.389-1.388h.151c.767 0 1.389.621 1.389 1.388v11.797c0 .767-.622 1.388-1.389 1.388h-11.502c-.767 0-1.388-.621-1.388-1.388v-3.008c0-.767-.622-1.388-1.389-1.388h-5.864c-.767 0-1.388.621-1.388 1.388v.151c0 .767.621 1.388 1.388 1.388h2.933c.767 0 1.389.622 1.389 1.388v.079c.001.766-.621 1.389-1.388 1.389z"/><path d="m1.388 203.035h22.963c.767 0 1.388-.621 1.388-1.388v-3.081c0-.767-.621-1.388-1.388-1.388h-22.963c-.767 0-1.388.622-1.388 1.388v3.081c0 .767.621 1.388 1.388 1.388zm28.634 0h22.927c.767 0 1.388-.621 1.388-1.388v-3.081c0-.767-.621-1.388-1.388-1.388h-22.927c-.767 0-1.389.622-1.389 1.388v3.081c-.001.767.622 1.388 1.389 1.388z"/><path d="m58.618 203.035h22.927c.767 0 1.388-.621 1.388-1.388v-3.081c0-.767-.621-1.388-1.388-1.388h-22.927c-.767 0-1.388.622-1.388 1.388v3.081c0 .767.622 1.388 1.388 1.388zm28.561 0h23c.767 0 1.388-.621 1.388-1.388v-3.081c0-.767-.621-1.388-1.388-1.388h-23c-.767 0-1.389.622-1.389 1.388v3.081c0 .767.622 1.388 1.389 1.388z"/><path d="m115.814 203.035h22.963c.767 0 1.389-.621 1.389-1.388v-3.081c0-.767-.621-1.388-1.389-1.388h-22.963c-.767 0-1.388.622-1.388 1.388v3.081c-.002.767.621 1.388 1.388 1.388zm28.596 0h22.963c.767 0 1.388-.621 1.388-1.388v-3.081c0-.767-.622-1.388-1.388-1.388h-22.963c-.767 0-1.389.622-1.389 1.388v3.081c0 .767.623 1.388 1.389 1.388z"/><path d="m173.007 203.035h22.963c.767 0 1.388-.621 1.388-1.388v-3.081c0-.767-.621-1.388-1.388-1.388h-22.963c-.767 0-1.389.622-1.389 1.388v3.081c.001.767.623 1.388 1.389 1.388zm28.561 0h23c.767 0 1.388-.621 1.388-1.388v-3.081c0-.767-.621-1.388-1.388-1.388h-23c-.767 0-1.388.622-1.388 1.388v3.081c-.001.767.62 1.388 1.388 1.388z"/><path d="m230.2 203.035h22.965c.767 0 1.388-.621 1.388-1.388v-3.081c0-.767-.621-1.388-1.388-1.388h-22.965c-.767 0-1.389.622-1.389 1.388v3.081c.001.767.622 1.388 1.389 1.388zm28.597 0h22.965c.767 0 1.389-.621 1.389-1.388v-3.081c0-.767-.622-1.388-1.389-1.388h-22.965c-.767 0-1.388.622-1.388 1.388v3.081c0 .767.621 1.388 1.388 1.388z"/><path d="m287.395 203.035h22.965c.767 0 1.389-.621 1.389-1.388v-3.081c0-.767-.621-1.388-1.389-1.388h-22.965c-.767 0-1.389.622-1.389 1.388v3.081c0 .767.622 1.388 1.389 1.388zm28.635 0h22.927c.767 0 1.389-.621 1.389-1.388v-3.081c0-.767-.622-1.388-1.389-1.388h-22.927c-.767 0-1.388.622-1.388 1.388v3.081c-.001.767.621 1.388 1.388 1.388z"/><path d="m344.589 203.035h22.965c.767 0 1.388-.621 1.388-1.388v-3.081c0-.767-.621-1.388-1.388-1.388h-22.965c-.767 0-1.389.622-1.389 1.388v3.081c0 .767.622 1.388 1.389 1.388zm28.635 0h22.925c.767 0 1.389-.621 1.389-1.388v-3.081c0-.767-.622-1.388-1.389-1.388h-22.925c-.767 0-1.389.622-1.389 1.388v3.081c.001.767.622 1.388 1.389 1.388z"/><path d="m401.82 203.035h22.927c.767 0 1.389-.621 1.389-1.388v-3.081c0-.767-.622-1.388-1.389-1.388h-22.927c-.767 0-1.389.622-1.389 1.388v3.081c-.001.767.622 1.388 1.389 1.388zm28.597 0h22.965c.767 0 1.389-.621 1.389-1.388v-3.081c0-.767-.621-1.388-1.389-1.388h-22.965c-.767 0-1.389.622-1.389 1.388v3.081c-.001.767.622 1.388 1.389 1.388z"/><path d="m459.013 203.035h22.965c.767 0 1.389-.621 1.389-1.388v-3.081c0-.767-.621-1.388-1.389-1.388h-22.965c-.767 0-1.389.622-1.389 1.388v3.081c.001.767.623 1.388 1.389 1.388zm28.599 0h23c.767 0 1.389-.621 1.389-1.388v-3.081c0-.767-.622-1.388-1.389-1.388h-23c-.767 0-1.389.622-1.389 1.388v3.081c-.001.767.621 1.388 1.389 1.388z"/><path d="m510.611 317.826h-.077c-.767 0-1.388.621-1.388 1.388v3.008c0 .767-.622 1.389-1.389 1.389h-5.827c-.767 0-1.389-.622-1.389-1.389v-3.008c0-.767-.621-1.388-1.389-1.388h-11.502c-.767 0-1.388.621-1.388 1.388v5.939c0 .767.621 1.389 1.388 1.389h5.79c.767 0 1.388-.622 1.388-1.389v-.152c0-.767-.621-1.388-1.388-1.388h-2.935c-.767 0-1.389-.622-1.389-1.389v-.151c0-.767.622-1.388 1.389-1.388h5.792c.767 0 1.388.621 1.388 1.388v3.081c0 .767.622 1.389 1.389 1.389h11.538c.767 0 1.389-.622 1.389-1.389v-5.939c-.001-.767-.623-1.389-1.39-1.389zm-5.748 0h-.079c-.767 0-1.389.621-1.389 1.388v.079c0 .767.621 1.389 1.389 1.389h.079c.767 0 1.389-.622 1.389-1.389v-.079c0-.766-.622-1.388-1.389-1.388zm5.748 11.644h-34.423c-.767 0-1.389.621-1.389 1.388v.153c0 .767.622 1.388 1.389 1.388h34.423c.767 0 1.389-.622 1.389-1.388v-.153c0-.766-.622-1.388-1.389-1.388zm-34.422-11.644h5.79c.767 0 1.389.621 1.389 1.388v5.939c0 .767-.621 1.389-1.389 1.389h-8.647c-.767 0-1.388.621-1.388 1.388v3.081c0 .767-.622 1.388-1.389 1.388h-.077c-.767 0-1.389-.622-1.389-1.388v-8.94c0-.767-.621-1.388-1.388-1.388h-.079c-.767 0-1.389.621-1.389 1.388v8.94c0 .767-.622 1.388-1.388 1.388h-.078c-.767 0-1.389-.622-1.389-1.388v-8.94c0-.767-.621-1.388-1.389-1.388h-.115c-.767 0-1.389.621-1.389 1.388v8.94c0 .767-.621 1.388-1.389 1.388h-.042c-.767 0-1.388-.622-1.388-1.388v-11.797c0-.767.621-1.388 1.388-1.388h11.502c.767 0 1.389.621 1.389 1.388v3.008c0 .767.621 1.389 1.388 1.389h5.79c.767 0 1.388-.622 1.388-1.389v-.151c0-.767-.621-1.388-1.388-1.388h-2.933c-.767 0-1.389-.622-1.389-1.389v-.079c-.002-.767.621-1.389 1.388-1.389z"/><path d="m453.382 317.826h-.115c-.767 0-1.388.621-1.388 1.388v3.008c0 .767-.622 1.389-1.389 1.389h-5.754c-.767 0-1.389-.622-1.389-1.389v-3.008c0-.767-.621-1.388-1.388-1.388h-11.502c-.767 0-1.389.621-1.389 1.388v5.939c0 .767.622 1.389 1.389 1.389h5.79c.767 0 1.389-.622 1.389-1.389v-.152c0-.767-.622-1.388-1.389-1.388h-2.935c-.767 0-1.388-.622-1.388-1.389v-.151c0-.767.621-1.388 1.388-1.388h5.792c.767 0 1.388.621 1.388 1.388v3.081c0 .767.622 1.389 1.389 1.389h11.502c.767 0 1.389-.622 1.389-1.389v-5.939c-.002-.767-.624-1.389-1.39-1.389zm-5.713 0h-.077c-.767 0-1.389.621-1.389 1.388v.079c0 .767.622 1.389 1.389 1.389h.077c.767 0 1.389-.622 1.389-1.389v-.079c-.001-.766-.622-1.388-1.389-1.388zm5.713 11.644h-34.387c-.767 0-1.389.621-1.389 1.388v.153c0 .767.622 1.388 1.389 1.388h34.387c.767 0 1.389-.622 1.389-1.388v-.153c-.001-.766-.623-1.388-1.389-1.388zm-34.388-11.644h5.827c.767 0 1.389.621 1.389 1.388v5.939c0 .767-.622 1.389-1.389 1.389h-8.647c-.767 0-1.389.621-1.389 1.388v3.081c0 .767-.621 1.388-1.389 1.388h-.115c-.767 0-1.389-.622-1.389-1.388v-8.94c0-.767-.622-1.388-1.389-1.388h-.115c-.767 0-1.389.621-1.389 1.388v8.94c0 .767-.621 1.388-1.388 1.388h-.042c-.767 0-1.388-.622-1.388-1.388v-8.94c0-.767-.622-1.388-1.389-1.388h-.115c-.767 0-1.389.621-1.389 1.388v8.94c0 .767-.621 1.388-1.388 1.388h-.078c-.767 0-1.388-.622-1.388-1.388v-11.797c0-.767.622-1.388 1.388-1.388h11.575c.767 0 1.389.621 1.389 1.388v3.008c0 .767.621 1.389 1.389 1.389h5.754c.767 0 1.389-.622 1.389-1.389v-.151c0-.767-.621-1.388-1.389-1.388h-2.935c-.767 0-1.389-.622-1.389-1.389v-.079c0-.767.622-1.389 1.389-1.389z"/><path d="m396.186 317.826h-.077c-.767 0-1.389.621-1.389 1.388v3.008c0 .767-.621 1.389-1.388 1.389h-5.792c-.767 0-1.389-.622-1.389-1.389v-3.008c0-.767-.622-1.388-1.389-1.388h-11.538c-.767 0-1.389.621-1.389 1.388v5.939c0 .767.621 1.389 1.389 1.389h5.79c.767 0 1.389-.622 1.389-1.389v-.152c0-.767-.621-1.388-1.389-1.388h-2.935c-.767 0-1.389-.622-1.389-1.389v-.151c0-.767.622-1.388 1.389-1.388h5.827c.767 0 1.389.621 1.389 1.388v3.081c0 .767.621 1.389 1.388 1.389h11.502c.767 0 1.389-.622 1.389-1.389v-5.939c.002-.767-.621-1.389-1.388-1.389zm-5.712 0h-.077c-.767 0-1.389.621-1.389 1.388v.079c0 .767.622 1.389 1.389 1.389h.077c.767 0 1.388-.622 1.388-1.389v-.079c.001-.766-.62-1.388-1.388-1.388zm5.712 11.644h-34.424c-.767 0-1.389.621-1.389 1.388v.153c0 .767.621 1.388 1.389 1.388h34.424c.767 0 1.389-.622 1.389-1.388v-.153c.001-.766-.622-1.388-1.389-1.388zm-34.424-11.644h5.827c.767 0 1.389.621 1.389 1.388v5.939c0 .767-.622 1.389-1.389 1.389h-8.646c-.767 0-1.388.621-1.388 1.388v3.081c0 .767-.622 1.388-1.389 1.388h-.079c-.767 0-1.388-.622-1.388-1.388v-8.94c0-.767-.622-1.388-1.389-1.388h-.115c-.767 0-1.389.621-1.389 1.388v8.94c0 .767-.621 1.388-1.388 1.388h-.116c-.767 0-1.388-.622-1.388-1.388v-8.94c0-.767-.622-1.388-1.389-1.388h-.042c-.767 0-1.389.621-1.389 1.388v8.94c0 .767-.621 1.388-1.389 1.388h-.077c-.767 0-1.388-.622-1.388-1.388v-11.797c0-.767.621-1.388 1.388-1.388h11.54c.767 0 1.389.621 1.389 1.388v3.008c0 .767.621 1.389 1.388 1.389h5.79c.767 0 1.388-.622 1.388-1.389v-.151c0-.767-.621-1.388-1.388-1.388h-2.973c-.767 0-1.389-.622-1.389-1.389v-.079c0-.767.622-1.389 1.389-1.389z"/><path d="m338.993 317.826h-.077c-.767 0-1.389.621-1.389 1.388v3.008c0 .767-.622 1.389-1.388 1.389h-5.79c-.767 0-1.388-.622-1.388-1.389v-3.008c0-.767-.622-1.388-1.389-1.388h-11.54c-.767 0-1.388.621-1.388 1.388v5.939c0 .767.621 1.389 1.388 1.389h5.827c.767 0 1.389-.622 1.389-1.389v-.152c0-.767-.622-1.388-1.389-1.388h-2.935c-.767 0-1.388-.622-1.388-1.389v-.151c0-.767.621-1.388 1.388-1.388h5.79c.767 0 1.388.621 1.388 1.388v3.081c0 .767.622 1.389 1.389 1.389h11.502c.767 0 1.389-.622 1.389-1.389v-5.939c-.001-.767-.623-1.389-1.389-1.389zm-5.713 0h-.077c-.767 0-1.388.621-1.388 1.388v.079c0 .767.622 1.389 1.388 1.389h.077c.767 0 1.389-.622 1.389-1.389v-.079c-.001-.766-.622-1.388-1.389-1.388zm5.713 11.644h-34.388c-.767 0-1.388.621-1.388 1.388v.153c0 .767.621 1.388 1.388 1.388h34.388c.767 0 1.389-.622 1.389-1.388v-.153c-.001-.766-.623-1.388-1.389-1.388zm-34.388-11.644h5.827c.767 0 1.389.621 1.389 1.388v5.939c0 .767-.622 1.389-1.389 1.389h-8.721c-.767 0-1.389.621-1.389 1.388v3.081c0 .767-.621 1.388-1.388 1.388h-.077c-.767 0-1.389-.622-1.389-1.388v-8.94c0-.767-.622-1.388-1.389-1.388h-.042c-.767 0-1.389.621-1.389 1.388v8.94c0 .767-.621 1.388-1.389 1.388h-.115c-.767 0-1.388-.622-1.388-1.388v-8.94c0-.767-.622-1.388-1.389-1.388h-.079c-.767 0-1.388.621-1.388 1.388v8.94c0 .767-.622 1.388-1.389 1.388h-.077c-.767 0-1.389-.622-1.389-1.388v-11.797c0-.767.622-1.388 1.389-1.388h11.502c.767 0 1.388.621 1.388 1.388v3.008c0 .767.622 1.389 1.389 1.389h5.827c.767 0 1.389-.622 1.389-1.389v-.151c0-.767-.621-1.388-1.389-1.388h-2.935c-.767 0-1.388-.622-1.388-1.389v-.079c0-.767.621-1.389 1.388-1.389z"/><path d="m281.8 317.826h-.079c-.767 0-1.388.621-1.388 1.388v3.008c0 .767-.621 1.389-1.388 1.389h-5.79c-.767 0-1.388-.622-1.388-1.389v-3.008c0-.767-.622-1.388-1.389-1.388h-11.54c-.767 0-1.388.621-1.388 1.388v5.939c0 .767.621 1.389 1.388 1.389h5.827c.767 0 1.389-.622 1.389-1.389v-.152c0-.767-.622-1.388-1.389-1.388h-2.97c-.767 0-1.388-.622-1.388-1.389v-.151c0-.767.622-1.388 1.388-1.388h5.79c.767 0 1.388.621 1.388 1.388v3.081c0 .767.622 1.389 1.389 1.389h11.54c.767 0 1.389-.622 1.389-1.389v-5.939c-.003-.767-.624-1.389-1.391-1.389zm-5.75 0h-.042c-.767 0-1.389.621-1.389 1.388v.079c0 .767.621 1.389 1.389 1.389h.042c.767 0 1.388-.622 1.388-1.389v-.079c.001-.766-.621-1.388-1.388-1.388zm5.75 11.644h-34.424c-.767 0-1.388.621-1.388 1.388v.153c0 .767.622 1.388 1.388 1.388h34.424c.767 0 1.389-.622 1.389-1.388v-.153c-.001-.766-.622-1.388-1.389-1.388zm-34.426-11.644h5.827c.767 0 1.388.621 1.388 1.388v5.939c0 .767-.621 1.389-1.388 1.389h-8.684c-.767 0-1.388.621-1.388 1.388v3.081c0 .767-.621 1.388-1.389 1.388h-.077c-.767 0-1.389-.622-1.389-1.388v-8.94c0-.767-.621-1.388-1.388-1.388h-.079c-.767 0-1.388.621-1.388 1.388v8.94c0 .767-.622 1.388-1.389 1.388h-.077c-.767 0-1.388-.622-1.388-1.388v-8.94c0-.767-.622-1.388-1.388-1.388h-.078c-.767 0-1.388.621-1.388 1.388v8.94c0 .767-.621 1.388-1.389 1.388h-.079c-.767 0-1.389-.622-1.389-1.388v-11.797c0-.767.621-1.388 1.389-1.388h11.502c.767 0 1.389.621 1.389 1.388v3.008c0 .767.621 1.389 1.388 1.389h5.827c.767 0 1.389-.622 1.389-1.389v-.151c0-.767-.622-1.388-1.389-1.388h-2.97c-.767 0-1.388-.622-1.388-1.389v-.079c-.005-.767.616-1.389 1.383-1.389z"/><path d="m224.605 317.826h-.079c-.767 0-1.389.621-1.389 1.388v3.008c0 .767-.621 1.389-1.388 1.389h-5.79c-.767 0-1.388-.622-1.388-1.389v-3.008c0-.767-.622-1.388-1.388-1.388h-11.54c-.767 0-1.388.621-1.388 1.388v5.939c0 .767.621 1.389 1.388 1.389h5.792c.767 0 1.388-.622 1.388-1.389v-.152c0-.767-.621-1.388-1.388-1.388h-2.899c-.767 0-1.389-.622-1.389-1.389v-.151c0-.767.622-1.388 1.389-1.388h5.754c.767 0 1.389.621 1.389 1.388v3.081c0 .767.621 1.389 1.388 1.389h11.54c.767 0 1.389-.622 1.389-1.389v-5.939c-.002-.767-.624-1.389-1.391-1.389zm-5.749 0h-.042c-.767 0-1.389.621-1.389 1.388v.079c0 .767.622 1.389 1.389 1.389h.042c.767 0 1.388-.622 1.388-1.389v-.079c0-.766-.621-1.388-1.388-1.388zm5.749 11.644h-34.425c-.767 0-1.388.621-1.388 1.388v.153c0 .767.621 1.388 1.388 1.388h34.424c.767 0 1.389-.622 1.389-1.388v-.153c.001-.766-.621-1.388-1.388-1.388zm-34.425-11.644h5.79c.767 0 1.388.621 1.388 1.388v5.939c0 .767-.621 1.389-1.388 1.389h-8.646c-.767 0-1.388.621-1.388 1.388v3.081c0 .767-.621 1.388-1.389 1.388h-.079c-.767 0-1.388-.622-1.388-1.388v-8.94c0-.767-.621-1.388-1.388-1.388h-.078c-.767 0-1.388.621-1.388 1.388v8.94c0 .767-.621 1.388-1.389 1.388h-.079c-.767 0-1.389-.622-1.389-1.388v-8.94c0-.767-.621-1.388-1.388-1.388h-.077c-.767 0-1.388.621-1.388 1.388v8.94c0 .767-.622 1.388-1.389 1.388h-.079c-.767 0-1.389-.622-1.389-1.388v-11.797c0-.767.622-1.388 1.389-1.388h11.505c.767 0 1.389.621 1.389 1.388v3.008c0 .767.621 1.389 1.388 1.389h5.825c.767 0 1.389-.622 1.389-1.389v-.151c0-.767-.621-1.388-1.389-1.388h-2.97c-.767 0-1.388-.622-1.388-1.389v-.079c-.006-.767.617-1.389 1.383-1.389z"/><path d="m167.411 317.826h-.079c-.767 0-1.389.621-1.389 1.388v3.008c0 .767-.621 1.389-1.388 1.389h-5.826c-.767 0-1.389-.622-1.389-1.389v-3.008c0-.767-.621-1.388-1.388-1.388h-11.505c-.767 0-1.389.621-1.389 1.388v5.939c0 .767.621 1.389 1.389 1.389h5.792c.767 0 1.389-.622 1.389-1.389v-.152c0-.767-.621-1.388-1.389-1.388h-2.973c-.767 0-1.389-.622-1.389-1.389v-.151c0-.767.621-1.388 1.389-1.388h5.865c.767 0 1.388.621 1.388 1.388v3.081c0 .767.622 1.389 1.389 1.389h11.502c.767 0 1.389-.622 1.389-1.389v-5.939c.001-.767-.621-1.389-1.388-1.389zm-5.713 0h-.116c-.767 0-1.388.621-1.388 1.388v.079c0 .767.621 1.389 1.388 1.389h.116c.767 0 1.388-.622 1.388-1.389v-.079c.001-.766-.621-1.388-1.388-1.388zm5.713 11.644h-34.424c-.767 0-1.389.621-1.389 1.388v.153c0 .767.621 1.388 1.389 1.388h34.424c.767 0 1.389-.622 1.389-1.388v-.153c0-.766-.622-1.388-1.389-1.388zm-34.426-11.644h5.79c.767 0 1.389.621 1.389 1.388v5.939c0 .767-.621 1.389-1.389 1.389h-8.646c-.767 0-1.388.621-1.388 1.388v3.081c0 .767-.621 1.388-1.389 1.388h-.079c-.767 0-1.389-.622-1.389-1.388v-8.94c0-.767-.621-1.388-1.388-1.388h-.078c-.767 0-1.388.621-1.388 1.388v8.94c0 .767-.621 1.388-1.389 1.388h-.079c-.767 0-1.389-.622-1.389-1.388v-8.94c0-.767-.621-1.388-1.389-1.388h-.115c-.767 0-1.388.621-1.388 1.388v8.94c0 .767-.621 1.388-1.388 1.388h-.04c-.767 0-1.389-.622-1.389-1.388v-11.797c0-.767.621-1.388 1.389-1.388h11.502c.767 0 1.389.621 1.389 1.388v3.008c0 .767.621 1.389 1.388 1.389h5.754c.767 0 1.389-.622 1.389-1.389v-.151c0-.767-.621-1.388-1.389-1.388h-2.899c-.767 0-1.389-.622-1.389-1.389v-.079c-.001-.767.62-1.389 1.387-1.389z"/><path d="m110.18 317.826h-.042c-.767 0-1.389.621-1.389 1.388v3.008c0 .767-.621 1.389-1.388 1.389h-5.792c-.767 0-1.388-.622-1.388-1.389v-3.008c0-.767-.621-1.388-1.388-1.388h-11.539c-.767 0-1.388.621-1.388 1.388v5.939c0 .767.621 1.389 1.388 1.389h5.752c.767 0 1.389-.622 1.389-1.389v-.152c0-.767-.621-1.388-1.389-1.388h-2.933c-.767 0-1.388-.622-1.388-1.389v-.151c0-.767.621-1.388 1.388-1.388h5.827c.767 0 1.389.621 1.389 1.388v3.081c0 .767.621 1.389 1.388 1.389h11.505c.767 0 1.389-.622 1.389-1.389v-5.939c-.001-.767-.624-1.389-1.391-1.389zm-5.712 0h-.079c-.767 0-1.389.621-1.389 1.388v.079c0 .767.621 1.389 1.389 1.389h.079c.767 0 1.388-.622 1.388-1.389v-.079c.001-.766-.621-1.388-1.388-1.388zm5.712 11.644h-34.461c-.767 0-1.388.621-1.388 1.388v.153c0 .767.621 1.388 1.388 1.388h34.462c.767 0 1.389-.622 1.389-1.388v-.153c0-.766-.623-1.388-1.39-1.388zm-34.461-11.644h5.865c.767 0 1.389.621 1.389 1.388v5.939c0 .767-.621 1.389-1.389 1.389h-8.648c-.767 0-1.388.621-1.388 1.388v3.081c0 .767-.621 1.388-1.389 1.388h-.115c-.767 0-1.388-.622-1.388-1.388v-8.94c0-.767-.621-1.388-1.389-1.388h-.077c-.767 0-1.389.621-1.389 1.388v8.94c0 .767-.621 1.388-1.388 1.388h-.043c-.767 0-1.389-.622-1.389-1.388v-8.94c0-.767-.621-1.388-1.388-1.388h-.115c-.767 0-1.389.621-1.389 1.388v8.94c0 .767-.621 1.388-1.388 1.388h-.079c-.767 0-1.388-.622-1.388-1.388v-11.797c0-.767.621-1.388 1.388-1.388h11.54c.767 0 1.389.621 1.389 1.388v3.008c0 .767.621 1.389 1.388 1.389h5.79c.767 0 1.388-.622 1.388-1.389v-.151c0-.767-.621-1.388-1.388-1.388h-3.009c-.767 0-1.388-.622-1.388-1.389v-.079c-.003-.767.62-1.389 1.387-1.389z"/><path d="m52.986 317.826h-.079c-.767 0-1.388.621-1.388 1.388v3.008c0 .767-.621 1.389-1.389 1.389h-5.79c-.767 0-1.389-.622-1.389-1.389v-3.008c0-.767-.621-1.388-1.388-1.388h-11.541c-.767 0-1.389.621-1.389 1.388v5.939c0 .767.621 1.389 1.389 1.389h5.754c.767 0 1.388-.622 1.388-1.389v-.152c0-.767-.621-1.388-1.388-1.388h-2.935c-.767 0-1.389-.622-1.389-1.389v-.151c0-.767.622-1.388 1.389-1.388h5.865c.767 0 1.389.621 1.389 1.388v3.081c0 .767.621 1.389 1.388 1.389h11.502c.767 0 1.388-.622 1.388-1.389v-5.939c.002-.767-.62-1.389-1.387-1.389zm-5.712 0h-.079c-.767 0-1.388.621-1.388 1.388v.079c0 .767.621 1.389 1.388 1.389h.079c.767 0 1.388-.622 1.388-1.389v-.079c0-.766-.621-1.388-1.388-1.388zm5.712 11.644h-34.387c-.767 0-1.389.621-1.389 1.388v.153c0 .767.622 1.388 1.389 1.388h34.387c.767 0 1.388-.622 1.388-1.388v-.153c.001-.766-.621-1.388-1.388-1.388zm-34.387-11.644h5.79c.767 0 1.389.621 1.389 1.388v5.939c0 .767-.621 1.389-1.389 1.389h-8.719c-.767 0-1.389.621-1.389 1.388v3.081c0 .767-.621 1.388-1.389 1.388h-.004c-.767 0-1.389-.622-1.389-1.388v-8.94c0-.767-.621-1.388-1.389-1.388h-.154c-.767 0-1.389.621-1.389 1.388v8.94c0 .767-.621 1.388-1.389 1.388h-.003c-.767 0-1.388-.622-1.388-1.388v-8.94c0-.767-.622-1.388-1.389-1.388h-.081c-.767 0-1.389.621-1.389 1.388v8.94c0 .767-.621 1.388-1.388 1.388h-.152c-.767 0-1.388-.622-1.388-1.388v-11.797c0-.767.621-1.388 1.388-1.388h11.502c.767 0 1.389.621 1.389 1.388v3.008c0 .767.621 1.389 1.389 1.389h5.864c.767 0 1.388-.622 1.388-1.389v-.151c0-.767-.621-1.388-1.388-1.388h-2.932c-.767 0-1.389-.622-1.389-1.389v-.079c-.001-.767.621-1.389 1.388-1.389z"/><path d="m510.611 308.966h-22.963c-.767 0-1.388.622-1.388 1.389v3.081c0 .767.621 1.388 1.388 1.388h22.963c.767 0 1.389-.621 1.389-1.388v-3.081c0-.767-.622-1.389-1.389-1.389zm-28.633 0h-22.927c-.767 0-1.388.622-1.388 1.389v3.081c0 .767.621 1.388 1.388 1.388h22.927c.767 0 1.389-.621 1.389-1.388v-3.081c0-.767-.622-1.389-1.389-1.389z"/><path d="m453.382 308.966h-22.927c-.767 0-1.389.622-1.389 1.389v3.081c0 .767.622 1.388 1.389 1.388h22.927c.767 0 1.389-.621 1.389-1.388v-3.081c-.001-.767-.623-1.389-1.389-1.389zm-28.561 0h-23c-.767 0-1.388.622-1.388 1.389v3.081c0 .767.622 1.388 1.388 1.388h23c.767 0 1.389-.621 1.389-1.388v-3.081c0-.767-.622-1.389-1.389-1.389z"/><path d="m396.186 308.966h-22.963c-.767 0-1.389.622-1.389 1.389v3.081c0 .767.621 1.388 1.389 1.388h22.963c.767 0 1.389-.621 1.389-1.388v-3.081c.001-.767-.622-1.389-1.389-1.389zm-28.596 0h-22.963c-.767 0-1.388.622-1.388 1.389v3.081c0 .767.621 1.388 1.388 1.388h22.963c.767 0 1.389-.621 1.389-1.388v-3.081c0-.767-.623-1.389-1.389-1.389z"/><path d="m338.993 308.966h-22.963c-.767 0-1.388.622-1.388 1.389v3.081c0 .767.621 1.388 1.388 1.388h22.963c.767 0 1.389-.621 1.389-1.388v-3.081c-.001-.767-.623-1.389-1.389-1.389zm-28.561 0h-23c-.767 0-1.389.622-1.389 1.389v3.081c0 .767.622 1.388 1.389 1.388h23c.767 0 1.389-.621 1.389-1.388v-3.081c0-.767-.621-1.389-1.389-1.389z"/><path d="m281.8 308.966h-22.965c-.767 0-1.388.622-1.388 1.389v3.081c0 .767.621 1.388 1.388 1.388h22.965c.767 0 1.389-.621 1.389-1.388v-3.081c-.001-.767-.622-1.389-1.389-1.389zm-28.597 0h-22.965c-.767 0-1.389.622-1.389 1.389v3.081c0 .767.621 1.388 1.389 1.388h22.965c.767 0 1.388-.621 1.388-1.388v-3.081c0-.767-.621-1.389-1.388-1.389z"/><path d="m224.605 308.966h-22.965c-.767 0-1.388.622-1.388 1.389v3.081c0 .767.621 1.388 1.388 1.388h22.965c.767 0 1.389-.621 1.389-1.388v-3.081c0-.767-.622-1.389-1.389-1.389zm-28.635 0h-22.927c-.767 0-1.389.622-1.389 1.389v3.081c0 .767.622 1.388 1.389 1.388h22.927c.767 0 1.388-.621 1.388-1.388v-3.081c.001-.767-.621-1.389-1.388-1.389z"/><path d="m167.411 308.966h-22.965c-.767 0-1.389.622-1.389 1.389v3.081c0 .767.621 1.388 1.389 1.388h22.965c.767 0 1.389-.621 1.389-1.388v-3.081c0-.767-.622-1.389-1.389-1.389zm-28.635 0h-22.925c-.767 0-1.389.622-1.389 1.389v3.081c0 .767.621 1.388 1.389 1.388h22.925c.767 0 1.389-.621 1.389-1.388v-3.081c-.001-.767-.622-1.389-1.389-1.389z"/><path d="m110.18 308.966h-22.926c-.767 0-1.388.622-1.388 1.389v3.081c0 .767.621 1.388 1.388 1.388h22.927c.767 0 1.389-.621 1.389-1.388v-3.081c0-.767-.623-1.389-1.39-1.389zm-28.597 0h-22.965c-.767 0-1.388.622-1.388 1.389v3.081c0 .767.621 1.388 1.388 1.388h22.965c.767 0 1.389-.621 1.389-1.388v-3.081c0-.767-.622-1.389-1.389-1.389z"/><path d="m52.986 308.966h-22.964c-.767 0-1.389.622-1.389 1.389v3.081c0 .767.621 1.388 1.389 1.388h22.965c.767 0 1.388-.621 1.388-1.388v-3.081c0-.767-.622-1.389-1.389-1.389zm-28.598 0h-23c-.767 0-1.388.622-1.388 1.389v3.081c0 .767.621 1.388 1.388 1.388h23c.767 0 1.389-.621 1.389-1.388v-3.081c.001-.767-.621-1.389-1.389-1.389z"/></g><g fill="#ff4b55"><path d="m248.698 214.275c2.62.698 5.414-.071 7.334-2.026 2.898 2.934 7.647 3.004 10.649.141 1.956-1.886 2.759-4.75 2.06-7.334-2.548 4.121-7.925 5.448-12.046 2.863-.21-.141-.489-.28-.663-.419-3.875 2.863-9.357 2.095-12.291-1.745-.106-.211-.314-.49-.454-.698-1.048 4.05 1.396 8.239 5.411 9.218z"/><path d="m264.966 295.855c9.386-5.153 17.219-13.272 21.514-23.966 7.314-18.33 2.708-39.02-11.283-52.44-.481-.461-1.212.156-.863.724 13.799 22.503 8.363 52.074-12.99 68.278l1.021-65.367c.014-.887-.382-1.732-1.071-2.291l-3.473-2.807c-1.064-.86-2.584-.855-3.642.01l-3.422 2.797c-.683.558-1.073 1.398-1.059 2.28l.992 65.414c-21.356-16.195-26.804-45.794-13.026-68.312.348-.568-.383-1.185-.863-.723-13.964 13.42-18.599 34.109-11.286 52.438 4.295 10.692 12.127 18.812 21.516 23.965-5.975 2.047-12.255 3.134-18.605 2.952-.671-.019-.806.925-.163 1.119 8.068 2.449 16.366 2.617 24.168.868l3.063 5.943c.212.41.799.412 1.012.001l3.084-5.941c7.802 1.746 16.103 1.575 24.177-.874.642-.194.508-1.138-.163-1.119-6.358.184-12.653-.902-18.638-2.949z"/><path d="m303.171 235.086c-4.804-8.975-12.782-15.778-22.28-19.111-.595-.209-1.059.577-.573.978 20.966 17.271 25.169 48.032 8.954 70.302-.839 1.118-1.747 2.305-2.62 3.281 19.907-10.684 27.275-35.546 16.519-55.45z"/><path d="m222.755 287.255c-16.213-22.27-12.044-53.03 8.918-70.301.487-.401.022-1.186-.573-.978-9.485 3.334-17.408 10.135-22.243 19.11-10.824 19.904-3.386 44.765 16.552 55.449-.942-.976-1.85-2.162-2.654-3.28z"/></g></svg>