<?xml version="1.0" encoding="utf-8"?>
<svg version="1.1" id="Layer_1" xmlns="http://www.w3.org/2000/svg" xmlns:xlink="http://www.w3.org/1999/xlink" x="0px"
     y="0px"
     viewBox="0 0 50 50" style="enable-background:new 0 0 50 50;" xml:space="preserve">
<style type="text/css">
    .st0{fill:#FCEA2B;}
    .st1{fill:none;stroke:#000000;stroke-width:1.3844;stroke-linecap:round;stroke-linejoin:round;stroke-miterlimit:6.922;}
    .st2{fill:#009EC6;stroke:#000000;stroke-width:0.25;stroke-miterlimit:10;}
</style>
    <g id="_x31_7360" transform="matrix(0.6922 0 0 0.6922 25.0779 25.0779)">
    <g vector-effect="non-scaling-stroke">
        <g id="_x37_39318" transform="matrix(1 0 0 1 0 0)">
            <circle class="st0" cx="0" cy="0" r="24"/>
        </g>
        <g id="_x34_07915" transform="matrix(1 0 0 1 -11.9066 -8.5188)">
            <path class="st1" d="M-3.5,2.5C-3.1,1-2.1-0.3-0.8-1.1c1.2-1,2.8-1.5,4.3-1.4"/>
        </g>
        <g id="_x33_69827" transform="matrix(1 0 0 1 10.7896 -5.9696)">
            <path class="st1" d="M4.3,1C2-1.2-1.5-1.7-4.3-0.1"/>
        </g>
        <g id="_x34_71328" transform="matrix(1 0 0 1 8.0078 -0.6036)">
            <path class="st1" d="M3,0.5C2.2,0,1.3-0.4,0.2-0.5C-1-0.5-2-0.2-3,0.3"/>
        </g>
        <g id="_x36_19710" transform="matrix(1 0 0 1 0 0)">
            <path class="st1" d="M22.4,5.4C22.8,3.6,23,1.8,23,0c0-12.7-10.3-23-23-23c-12.7,0-23,10.3-23,23c0,12.7,10.3,23,23,23
                c3.6,0,7-0.8,10.1-2.3"/>
        </g>
        <g id="_x33_16426" transform="matrix(1 0 0 1 -7.9604 -0.6937)">
            <circle cx="0" cy="0" r="3"/>
        </g>
        <g id="_x33_26313" transform="matrix(1 0 0 1 2.7529 10.3291)">
            <path class="st1" d="M-2.3-5.2c0,0,10.5,3.2,0,5.6c0,0,10.5,3,0,4.9"/>
        </g>
    </g>
</g>
    <g id="_x36_27262" transform="matrix(0.2118 0 0 0.2118 40.0804 36.0804)">
    <g vector-effect="non-scaling-stroke">
        <g id="_x33_88928" transform="matrix(0.1318 0 0 0.1318 0.0058 3.0019)">
            <path vector-effect="non-scaling-stroke" class="st2" d="M175.3-159.8c-17.4-27-41.2-50.1-68.8-66.7c-5.2-3.1-11.6-3.2-16.8-0.2
                c-5.2,3-8.5,8.5-8.5,14.5v34.5c0,5.2,2.4,10.1,6.6,13.3c37,28.2,59.1,72.6,59.1,118.8c0,82.2-66.9,149.1-149.1,149.1
                S-151.3,36.6-151.3-45.6c0-46.2,22.1-90.6,59.1-118.8c4.1-3.2,6.6-8.1,6.6-13.3v-34.5c0-6-3.2-11.6-8.5-14.5
                c-5.2-3-11.7-2.9-16.8,0.2c-27.6,16.6-51.3,39.6-68.8,66.7c-22,34-33.6,73.5-33.6,114.2c0,56.4,22,109.4,61.8,149.2
                c39.9,39.9,92.9,61.8,149.2,61.8s109.4-22,149.2-61.8c39.9-39.9,61.8-92.9,61.8-149.2C208.8-86.2,197.2-125.7,175.3-159.8z"/>
        </g>
        <g id="_x37_68402" transform="matrix(0.1318 0 0 0.1318 0.0004 -10.6371)">
            <path vector-effect="non-scaling-stroke" class="st2" d="M-21.7,76.9h39c8.6,0,15.7-7,15.7-15.7v-225c0-8.6-7-15.7-15.7-15.7h-39
                c-8.6,0-15.7,7-15.7,15.7v225C-37.4,69.9-30.4,76.9-21.7,76.9z"/>
        </g>
    </g>
</g>
</svg>
