<svg xmlns="http://www.w3.org/2000/svg" xmlns:xlink="http://www.w3.org/1999/xlink" version="1.1" width="50" height="50"
     viewBox="0 0 50 50" xml:space="preserve">
    <g transform="matrix(1.1432 0 0 1.1432 32.327 14.7628)" id="71652">
        <path style="stroke: none; stroke-width: 1; stroke-dasharray: none; stroke-linecap: butt; stroke-dashoffset: 0; stroke-linejoin: miter; stroke-miterlimit: 4; is-custom-font: none; font-file-url: none; fill: rgb(254,80,0); fill-rule: nonzero; opacity: 1;"
              vector-effect="non-scaling-stroke" transform=" translate(80, 80.0008)"
              d="M -79.999 -92.477 C -88.284 -92.477 -95 -87.394 -95 -81.124 c 0 3.569 2.178 6.754 5.583 8.836 c -0.505 1.34 -1.254 2.844 -2.352 4.4 c 2.626 1.131 5.615 -0.586 7.726 -2.302 c 1.286 0.271 2.642 0.418 4.044 0.418 c 8.282 0 14.999 -5.083 14.999 -11.352 C -65 -87.393 -71.717 -92.476 -79.999 -92.477 L -79.999 -92.477 z"
              stroke-linecap="round"/>
    </g>
    <g transform="matrix(0.5529 0 0 0.5529 13.9307 35.7399)" id="526993">
        <g style="" vector-effect="non-scaling-stroke">
            <g transform="matrix(1 0 0 1 0 0)" id="color">
                <path style="stroke: none; stroke-width: 1; stroke-dasharray: none; stroke-linecap: butt; stroke-dashoffset: 0; stroke-linejoin: miter; stroke-miterlimit: 4; is-custom-font: none; font-file-url: none; fill: rgb(252,234,43); fill-rule: nonzero; opacity: 1;"
                      transform=" translate(-36, -36)"
                      d="M 36 13 c -12.6823 0 -23 10.3177 -23 23 c 0 12.6822 10.3177 23 23 23 c 12.6822 0 23 -10.3178 23 -23 C 59 23.3177 48.6822 13 36 13 z"
                      stroke-linecap="round"/>
            </g>
            <g transform="matrix(1 0 0 1 0 0)" id="line">
                <circle style="stroke: rgb(0,0,0); stroke-width: 2; stroke-dasharray: none; stroke-linecap: butt; stroke-dashoffset: 0; stroke-linejoin: miter; stroke-miterlimit: 10; is-custom-font: none; font-file-url: none; fill: none; fill-rule: nonzero; opacity: 1;"
                        cx="0" cy="0" r="23"/>
            </g>
            <g transform="matrix(1 0 0 1 -9 -5)" id="line">
                <path style="stroke: none; stroke-width: 1; stroke-dasharray: none; stroke-linecap: butt; stroke-dashoffset: 0; stroke-linejoin: miter; stroke-miterlimit: 4; is-custom-font: none; font-file-url: none; fill: rgb(0,0,0); fill-rule: nonzero; opacity: 1;"
                      transform=" translate(-27, -31)"
                      d="M 30 31 c 0 1.6568 -1.3448 3 -3 3 c -1.6553 0 -3 -1.3433 -3 -3 c 0 -1.6552 1.3447 -3 3 -3 C 28.6552 28 30 29.3448 30 31"
                      stroke-linecap="round"/>
            </g>
            <g transform="matrix(1 0 0 1 9 -5)" id="line">
                <path style="stroke: none; stroke-width: 1; stroke-dasharray: none; stroke-linecap: butt; stroke-dashoffset: 0; stroke-linejoin: miter; stroke-miterlimit: 4; is-custom-font: none; font-file-url: none; fill: rgb(0,0,0); fill-rule: nonzero; opacity: 1;"
                      transform=" translate(-45, -31)"
                      d="M 48 31 c 0 1.6568 -1.3447 3 -3 3 s -3 -1.3433 -3 -3 c 0 -1.6552 1.3447 -3 3 -3 S 48 29.3448 48 31"
                      stroke-linecap="round"/>
            </g>
            <g transform="matrix(1 0 0 1 0 7.9943)" id="line">
                <path style="stroke: rgb(0,0,0); stroke-width: 2; stroke-dasharray: none; stroke-linecap: round; stroke-dashoffset: 0; stroke-linejoin: round; stroke-miterlimit: 10; is-custom-font: none; font-file-url: none; fill: none; fill-rule: nonzero; opacity: 1;"
                      transform=" translate(-36, -43.9943)"
                      d="M 28 46 c 1.5805 -2.5575 4.9043 -4.1349 8.4211 -4.0038 C 39.6499 42.1166 42.5622 43.6595 44 46"
                      stroke-linecap="round"/>
            </g>
        </g>
    </g>
    <g transform="matrix(1 0 0 1 33.0064 14.7622)" style="" id="35839">
        <path xml:space="preserve" font-family="Archivo Black" font-size="12" font-style="normal" font-weight="normal"
              style="stroke: none; stroke-width: 1; stroke-dasharray: none; stroke-linecap: butt; stroke-dashoffset: 0; stroke-linejoin: miter; stroke-miterlimit: 4; is-custom-font: none; font-file-url: none; fill: rgb(0,0,0); fill-rule: nonzero; opacity: 1; white-space: pre;"
              d="M-0.89 3.77L-3.20 3.77L-6.67-0.24L-6.67 3.77L-9.11 3.77L-9.11-4.49L-6.79-4.49L-3.32-0.42L-3.32-4.49L-0.89-4.49L-0.89 3.77ZM4.99-4.63Q7.13-4.63 8.29-3.54Q9.46-2.45 9.46-0.36L9.46-0.36Q9.46 1.73 8.29 2.82Q7.13 3.91 4.99 3.91L4.99 3.91Q2.86 3.91 1.70 2.83Q0.54 1.74 0.54-0.36L0.54-0.36Q0.54-2.46 1.70-3.54Q2.86-4.63 4.99-4.63L4.99-4.63ZM4.99-2.65Q4.14-2.65 3.70-2.13Q3.25-1.62 3.25-0.74L3.25-0.74L3.25 0.03Q3.25 0.90 3.70 1.42Q4.14 1.93 4.99 1.93L4.99 1.93Q5.84 1.93 6.29 1.42Q6.74 0.90 6.74 0.03L6.74 0.03L6.74-0.74Q6.74-1.62 6.29-2.13Q5.84-2.65 4.99-2.65L4.99-2.65Z"/>
    </g>
</svg>
