<svg xmlns="http://www.w3.org/2000/svg" xmlns:xlink="http://www.w3.org/1999/xlink" version="1.1" width="50" height="50"
     viewBox="0 0 50 50" xml:space="preserve">
    <g transform="matrix(1.1432 0 0 1.1432 32.327 14.7628)" id="71652">
        <path style="stroke: none; stroke-width: 1; stroke-dasharray: none; stroke-linecap: butt; stroke-dashoffset: 0; stroke-linejoin: miter; stroke-miterlimit: 4; is-custom-font: none; font-file-url: none; fill: rgb(254,80,0); fill-rule: nonzero; opacity: 1;"
              vector-effect="non-scaling-stroke" transform=" translate(80, 80.0008)"
              d="M -79.999 -92.477 C -88.284 -92.477 -95 -87.394 -95 -81.124 c 0 3.569 2.178 6.754 5.583 8.836 c -0.505 1.34 -1.254 2.844 -2.352 4.4 c 2.626 1.131 5.615 -0.586 7.726 -2.302 c 1.286 0.271 2.642 0.418 4.044 0.418 c 8.282 0 14.999 -5.083 14.999 -11.352 C -65 -87.393 -71.717 -92.476 -79.999 -92.477 L -79.999 -92.477 z"
              stroke-linecap="round"/>
    </g>
    <g transform="matrix(0.5523 0 0 0.5523 14.0012 35.7644)" id="419042">
        <g style="" vector-effect="non-scaling-stroke">
            <g transform="matrix(1 0 0 1 0.0001 0)" id="color">
                <circle style="stroke: none; stroke-width: 1; stroke-dasharray: none; stroke-linecap: butt; stroke-dashoffset: 0; stroke-linejoin: miter; stroke-miterlimit: 4; is-custom-font: none; font-file-url: none; fill: rgb(252,234,43); fill-rule: nonzero; opacity: 1;"
                        cx="0" cy="0" r="22.9999"/>
            </g>
            <g transform="matrix(1 0 0 1 0 0)" id="line">
                <circle style="stroke: rgb(0,0,0); stroke-width: 2; stroke-dasharray: none; stroke-linecap: round; stroke-dashoffset: 0; stroke-linejoin: round; stroke-miterlimit: 4; is-custom-font: none; font-file-url: none; fill: none; fill-rule: nonzero; opacity: 1;"
                        cx="0" cy="0" r="23"/>
            </g>
            <g transform="matrix(1 0 0 1 0 10.2142)" id="line">
                <path style="stroke: rgb(0,0,0); stroke-width: 2; stroke-dasharray: none; stroke-linecap: round; stroke-dashoffset: 0; stroke-linejoin: round; stroke-miterlimit: 4; is-custom-font: none; font-file-url: none; fill: none; fill-rule: nonzero; opacity: 1;"
                      transform=" translate(-36, -46.2142)"
                      d="M 45.8149 44.9293 c -2.8995 1.6362 -6.2482 2.5699 -9.8149 2.5699 s -6.9153 -0.9336 -9.8149 -2.5699"
                      stroke-linecap="round"/>
            </g>
            <g transform="matrix(1 0 0 1 -9 -5)" id="line">
                <path style="stroke: none; stroke-width: 1; stroke-dasharray: none; stroke-linecap: butt; stroke-dashoffset: 0; stroke-linejoin: miter; stroke-miterlimit: 4; is-custom-font: none; font-file-url: none; fill: rgb(0,0,0); fill-rule: nonzero; opacity: 1;"
                      transform=" translate(-27, -31)"
                      d="M 30 31 c 0 1.6568 -1.3448 3 -3 3 c -1.6553 0 -3 -1.3433 -3 -3 c 0 -1.6552 1.3447 -3 3 -3 C 28.6552 28 30 29.3448 30 31"
                      stroke-linecap="round"/>
            </g>
            <g transform="matrix(1 0 0 1 9 -5)" id="line">
                <path style="stroke: none; stroke-width: 1; stroke-dasharray: none; stroke-linecap: butt; stroke-dashoffset: 0; stroke-linejoin: miter; stroke-miterlimit: 4; is-custom-font: none; font-file-url: none; fill: rgb(0,0,0); fill-rule: nonzero; opacity: 1;"
                      transform=" translate(-45, -31)"
                      d="M 48 31 c 0 1.6568 -1.3447 3 -3 3 s -3 -1.3433 -3 -3 c 0 -1.6552 1.3447 -3 3 -3 S 48 29.3448 48 31"
                      stroke-linecap="round"/>
            </g>
        </g>
    </g>
    <g transform="matrix(1 0 0 1 32.5854 14.7622)" style="" id="35839">
        <path xml:space="preserve" font-family="Archivo Black" font-size="12" font-style="normal" font-weight="normal"
              style="stroke: none; stroke-width: 1; stroke-dasharray: none; stroke-linecap: butt; stroke-dashoffset: 0; stroke-linejoin: miter; stroke-miterlimit: 4; is-custom-font: none; font-file-url: none; fill: rgb(0,0,0); fill-rule: nonzero; opacity: 1; white-space: pre;"
              d="M-7.32 0.57L-7.32 3.77L-9.97 3.77L-9.97 0.57L-13.25-4.49L-10.20-4.49L-8.62-1.74L-8.57-1.74L-6.98-4.49L-4.09-4.49L-7.32 0.57ZM-3.11 3.77L-3.11-4.49L4.03-4.49L4.03-2.51L-0.46-2.51L-0.46-1.37L3.38-1.37L3.38 0.53L-0.46 0.53L-0.46 1.79L4.12 1.79L4.12 3.77L-3.11 3.77ZM9.02-4.63Q10.61-4.63 11.63-3.99Q12.65-3.35 12.67-2.09L12.67-2.09L12.67-1.94L10.19-1.94L10.19-1.99Q10.19-2.35 9.92-2.59Q9.66-2.83 9.12-2.83L9.12-2.83Q8.59-2.83 8.31-2.67Q8.03-2.52 8.03-2.29L8.03-2.29Q8.03-1.97 8.41-1.81Q8.80-1.65 9.65-1.49L9.65-1.49Q10.64-1.28 11.29-1.06Q11.93-0.84 12.41-0.33Q12.89 0.17 12.90 1.03L12.90 1.03Q12.90 2.50 11.91 3.21Q10.92 3.91 9.26 3.91L9.26 3.91Q7.33 3.91 6.26 3.27Q5.18 2.62 5.18 0.97L5.18 0.97L7.69 0.97Q7.69 1.60 8.02 1.81Q8.34 2.02 9.02 2.02L9.02 2.02Q9.53 2.02 9.86 1.91Q10.19 1.80 10.19 1.47L10.19 1.47Q10.19 1.17 9.82 1.02Q9.46 0.87 8.63 0.70L8.63 0.70Q7.62 0.48 6.96 0.25Q6.30 0.01 5.81-0.53Q5.32-1.07 5.32-1.99L5.32-1.99Q5.32-3.35 6.37-3.99Q7.42-4.63 9.02-4.63L9.02-4.63Z"/>
    </g>
</svg>
