<?xml version="1.0" encoding="utf-8"?>
<svg width="800px" height="800px" viewBox="0 0 24 24" fill="none" xmlns="http://www.w3.org/2000/svg">
<path d="M21.7632 17.31C21.2983 16.32 20.7404 15.06 20.0895 13.89C19.4387 12.63 18.7878 11.46 18.2299 10.38C17.1141 8.4 15.3474 5.88 14.0456 4.08C13.5807 3.45 12.8368 3 12 3C11.1632 3 10.4193 3.36 9.95437 4.08C8.65261 5.88 6.97891 8.4 5.77013 10.38C4.56135 12.45 3.1666 15.33 2.23677 17.31C1.86484 18.03 1.95782 18.93 2.32976 19.56C2.79467 20.28 3.53854 20.64 4.37538 20.73C6.60698 20.82 9.67542 21 12 21C14.3246 21 17.486 20.82 19.6246 20.73C20.4615 20.73 21.2053 20.28 21.6702 19.56C22.0422 18.93 22.1352 18.03 21.7632 17.31Z" fill="#CC0033"/>
<path d="M11.2561 10.47C11.2561 10.11 11.5351 9.75 12 9.75C12.4649 9.75 12.7439 10.02 12.7439 10.47V14.07C12.7439 14.43 12.4649 14.79 12 14.79C11.5351 14.79 11.2561 14.52 11.2561 14.07V10.47ZM12 17.67C11.5351 17.67 11.0702 17.22 11.0702 16.77C11.0702 16.32 11.5351 15.87 12 15.87C12.4649 15.87 12.9298 16.32 12.9298 16.77C12.9298 17.22 12.4649 17.67 12 17.67Z" fill="#fff"/>
</svg>
