<svg xmlns="http://www.w3.org/2000/svg" xmlns:xlink="http://www.w3.org/1999/xlink" version="1.1" width="50" height="50"
     viewBox="0 0 50 50" xml:space="preserve">
<g transform="matrix(0.1009 0 0 0.1009 24.9971 24.9971)" id="495140">
    <g style="" vector-effect="non-scaling-stroke">
        <g transform="matrix(1 0 0 1 -129.413 123.4994)" id="Language_translator">
            <path style="stroke: none; stroke-width: 1; stroke-dasharray: none; stroke-linecap: butt; stroke-dashoffset: 0; stroke-linejoin: miter; stroke-miterlimit: 4; is-custom-font: none; font-file-url: none; fill: rgb(255,184,191); fill-rule: nonzero; opacity: 1;"
                  transform=" translate(-126.5869, -379.4994)"
                  d="M 170.5 409.9019 H 151.6113 a 11.53 11.53 0 0 1 -11.5132 -11.5132 V 332 a 17.0951 17.0951 0 0 0 -29.1865 -12.0884 L 70.583 360.24 A 17.0956 17.0956 0 0 0 94.76 384.417 l 11.1421 -11.1328 v 25.1045 a 45.7583 45.7583 0 0 0 45.7094 45.7094 H 170.5 a 17.0981 17.0981 0 0 0 0 -34.1962 Z"
                  stroke-linecap="round"/>
        </g>
        <g transform="matrix(1 0 0 1 129.4131 -123.4998)" id="Language_translator">
            <path style="stroke: none; stroke-width: 1; stroke-dasharray: none; stroke-linecap: butt; stroke-dashoffset: 0; stroke-linejoin: miter; stroke-miterlimit: 4; is-custom-font: none; font-file-url: none; fill: rgb(255,184,191); fill-rule: nonzero; opacity: 1;"
                  transform=" translate(-385.4131, -132.5002)"
                  d="M 341.5 102.0981 h 18.9258 a 11.49 11.49 0 0 1 11.4761 11.4761 V 180 a 17.0956 17.0956 0 0 0 29.1865 12.0884 L 441.417 151.76 A 17.0956 17.0956 0 0 0 417.24 127.583 l -11.1421 11.1328 V 113.5742 a 45.7186 45.7186 0 0 0 -45.6723 -45.6723 H 341.5 a 17.0981 17.0981 0 1 0 0 34.1962 Z"
                  stroke-linecap="round"/>
        </g>
        <g transform="matrix(1 0 0 1 85.5481 92.7816)" id="Language_translator">
            <path style="stroke: none; stroke-width: 1; stroke-dasharray: none; stroke-linecap: butt; stroke-dashoffset: 0; stroke-linejoin: miter; stroke-miterlimit: 4; is-custom-font: none; font-file-url: none; fill: rgb(255,184,191); fill-rule: nonzero; opacity: 1;"
                  transform=" translate(-341.5481, -348.7815)"
                  d="M 341.5568 357.965 a 219.3123 219.3123 0 0 0 15.8144 -18.3669 H 325.725 A 223.0726 223.0726 0 0 0 341.5568 357.965 Z"
                  stroke-linecap="round"/>
        </g>
        <g transform="matrix(1 0 0 1 0 0)" id="Language_translator">
            <path style="stroke: none; stroke-width: 1; stroke-dasharray: none; stroke-linecap: butt; stroke-dashoffset: 0; stroke-linejoin: miter; stroke-miterlimit: 4; is-custom-font: none; font-file-url: none; fill: rgb(255,184,191); fill-rule: nonzero; opacity: 1;"
                  transform=" translate(-256, -256)"
                  d="M 455.5 219.9019 H 301.5981 V 47 A 17.0965 17.0965 0 0 0 284.5 29.9019 H 56.5 A 17.0965 17.0965 0 0 0 39.4019 47 V 275 A 17.0965 17.0965 0 0 0 56.5 292.0981 H 210.4019 V 465 A 17.0965 17.0965 0 0 0 227.5 482.0981 h 228 A 17.0965 17.0965 0 0 0 472.5981 465 V 237 A 17.0965 17.0965 0 0 0 455.5 219.9019 Z M 233.2983 200.8555 l -47.5 -95 c -5.8076 -11.5967 -24.789 -11.5967 -30.5966 0 l -47.5 95 a 17.1019 17.1019 0 0 0 30.5966 15.289 l 4.7721 -9.5464 H 197.93 l 4.7721 9.5464 a 16.9394 16.9394 0 0 0 12.4977 9.0756 A 16.986 16.986 0 0 0 210.4019 237 v 20.9019 H 73.5981 V 64.0981 H 267.4019 V 219.9019 H 230.6334 A 17.0235 17.0235 0 0 0 233.2983 200.8555 Z m -52.4645 -28.4536 H 160.1662 l 10.3338 -20.67 Z M 408 339.5981 h -9.0918 a 249.0189 249.0189 0 0 1 -31.5917 40.9711 a 167.6724 167.6724 0 0 0 37.4828 21.0387 a 17.0951 17.0951 0 1 1 -12.5986 31.7842 A 205.0476 205.0476 0 0 1 341.5 404.0479 a 205.0476 205.0476 0 0 1 -50.7007 29.3442 a 16.9144 16.9144 0 0 1 -6.29 1.2153 a 17.103 17.103 0 0 1 -6.3086 -33 a 168.5475 168.5475 0 0 0 37.5164 -21.0039 a 249.0876 249.0876 0 0 1 -31.6253 -41.0059 H 275 a 17.0981 17.0981 0 0 1 0 -34.1962 h 49.4019 V 284.5 a 17.0981 17.0981 0 0 1 34.1962 0 v 20.9019 H 408 a 17.0981 17.0981 0 0 1 0 34.1962 Z"
                  stroke-linecap="round"/>
        </g>
    </g>
</g>
</svg>
