<svg xmlns="http://www.w3.org/2000/svg" xmlns:xlink="http://www.w3.org/1999/xlink" version="1.1" width="200" height="200" viewBox="0 0 200 200" xml:space="preserve">
<g transform="matrix(0.3603 0 0 0.3603 100.0067 100.007)" id="251385">
<path style="stroke: none; stroke-width: 1; stroke-dasharray: none; stroke-linecap: butt; stroke-dashoffset: 0; stroke-linejoin: miter; stroke-miterlimit: 4; is-custom-font: none; font-file-url: none; fill: rgb(46,139,87); fill-rule: nonzero; opacity: 1;" vector-effect="non-scaling-stroke" transform=" translate(-256, -255.9985)" d="M 499.35 292.934 l -23.448 -21.552 c -4.305 -3.956 -6.755 -9.536 -6.755 -15.383 s 2.45 -11.426 6.755 -15.383 l 23.448 -21.552 c 5.522 -5.075 7.899 -12.719 6.231 -20.031 c -1.669 -7.312 -7.129 -13.168 -14.305 -15.344 l -30.477 -9.244 c -5.595 -1.697 -10.223 -5.661 -12.759 -10.928 c -2.537 -5.268 -2.75 -11.358 -0.588 -16.79 l 11.775 -29.591 c 2.773 -6.968 1.598 -14.888 -3.077 -20.75 c -4.675 -5.863 -12.136 -8.771 -19.546 -7.618 l -31.469 4.895 c -5.777 0.899 -11.666 -0.665 -16.237 -4.31 s -7.406 -9.04 -7.815 -14.871 l -2.231 -31.77 c -0.525 -7.481 -5.019 -14.107 -11.776 -17.36 c -6.757 -3.254 -14.739 -2.637 -20.916 1.617 l -26.229 18.065 c -4.815 3.317 -10.8 4.463 -16.499 3.163 c -5.699 -1.301 -10.594 -4.93 -13.494 -10.008 l -15.796 -27.656 C 270.424 4.019 263.499 0 256 0 c -7.499 0 -14.424 4.019 -18.143 10.532 l -15.794 27.655 c -2.9 5.077 -7.793 8.707 -13.494 10.008 c -5.699 1.301 -11.684 0.154 -16.499 -3.163 l -26.229 -18.065 c -6.177 -4.253 -14.159 -4.87 -20.916 -1.617 c -6.757 3.254 -11.251 9.88 -11.776 17.36 l -2.231 31.77 c -0.409 5.833 -3.244 11.226 -7.815 14.871 c -4.571 3.645 -10.46 5.209 -16.237 4.31 l -31.469 -4.895 c -7.411 -1.153 -14.87 1.754 -19.546 7.618 c -4.676 5.864 -5.85 13.783 -3.077 20.75 l 11.775 29.591 c 2.162 5.432 1.949 11.522 -0.588 16.79 c -2.537 5.268 -7.164 9.232 -12.759 10.928 l -30.477 9.244 c -7.176 2.176 -12.636 8.033 -14.305 15.344 s 0.709 14.957 6.231 20.031 l 23.448 21.552 c 4.305 3.956 6.755 9.536 6.755 15.383 s -2.45 11.426 -6.755 15.383 L 12.65 292.933 c -5.522 5.075 -7.899 12.719 -6.231 20.031 c 1.668 7.312 7.128 13.168 14.305 15.344 l 30.477 9.244 c 5.595 1.697 10.223 5.661 12.759 10.928 c 2.537 5.268 2.75 11.358 0.588 16.79 l -11.775 29.591 c -2.773 6.968 -1.598 14.888 3.077 20.75 c 4.675 5.863 12.136 8.771 19.546 7.618 l 31.469 -4.895 c 5.777 -0.899 11.666 0.665 16.237 4.31 c 4.571 3.645 7.406 9.04 7.815 14.871 l 2.231 31.77 c 0.525 7.481 5.019 14.107 11.776 17.36 c 6.757 3.254 14.739 2.637 20.916 -1.617 l 26.229 -18.065 c 4.815 -3.316 10.8 -4.463 16.499 -3.162 c 5.701 1.301 10.594 4.93 13.494 10.008 l 15.793 27.656 c 3.719 6.513 10.643 10.532 18.143 10.532 c 7.499 0 14.424 -4.019 18.143 -10.532 l 15.793 -27.656 c 2.9 -5.077 7.793 -8.707 13.494 -10.008 c 5.699 -1.302 11.684 -0.154 16.499 3.162 l 26.229 18.065 c 6.177 4.254 14.159 4.87 20.916 1.617 c 6.757 -3.254 11.251 -9.88 11.776 -17.36 l 2.231 -31.77 c 0.409 -5.833 3.244 -11.226 7.815 -14.871 c 4.571 -3.645 10.46 -5.209 16.237 -4.31 l 31.469 4.895 c 7.411 1.153 14.87 -1.754 19.546 -7.618 c 4.676 -5.864 5.85 -13.783 3.077 -20.75 l -11.775 -29.591 c -2.162 -5.432 -1.949 -11.522 0.588 -16.79 s 7.165 -9.232 12.759 -10.928 l 30.477 -9.244 c 7.177 -2.176 12.636 -8.033 14.305 -15.344 C 507.25 305.654 504.872 298.009 499.35 292.934 z M 188.151 297.008 h -0.001 c 0 4.351 -5.302 6.526 -10.607 6.526 c -4.895 0 -9.246 -0.952 -11.828 -5.711 l -25.835 -47.046 v 46.23 c 0 4.351 -5.302 6.526 -10.605 6.526 s -10.607 -2.175 -10.607 -6.526 v -86.341 c 0 -4.487 5.303 -6.526 10.607 -6.526 c 7.614 0 10.47 0.679 15.637 10.605 l 22.028 42.015 v -46.229 c 0 -4.487 5.302 -6.391 10.605 -6.391 s 10.607 1.903 10.607 6.391 V 297.008 z M 244.439 245.613 v -0.001 c 4.079 0 6.391 3.943 6.391 8.294 c 0 3.671 -1.904 8.022 -6.391 8.022 h -20.396 v 23.115 h 36.44 c 4.079 0 6.391 4.351 6.391 9.381 c 0 4.351 -1.903 9.11 -6.391 9.11 h -48.405 c -4.623 0 -9.246 -2.175 -9.246 -6.526 v -86.341 c 0 -4.351 4.623 -6.526 9.246 -6.526 h 48.405 c 4.488 0 6.391 4.758 6.391 9.11 c 0 5.031 -2.312 9.383 -6.391 9.383 h -36.44 v 22.98 H 244.439 z M 393.188 214.338 L 366.13 297.28 c -1.632 4.76 -7.75 7.071 -14.006 7.071 c -6.119 0 -12.645 -2.312 -13.733 -7.071 l -7.07 -32.225 l -7.071 32.225 c -1.088 4.76 -7.614 7.071 -13.733 7.071 c -6.255 0 -12.509 -2.312 -14.004 -7.071 l -27.059 -82.942 c -0.135 -0.408 -0.272 -1.087 -0.272 -1.768 c 0 -4.623 7.615 -8.43 13.734 -8.43 c 3.263 0 5.982 1.088 6.798 3.943 l 20.667 69.753 l 10.742 -45.958 c 0.816 -3.671 5.575 -5.575 10.198 -5.575 s 9.381 1.904 10.197 5.575 l 10.742 45.958 l 20.667 -69.753 c 0.816 -2.855 3.536 -3.943 6.799 -3.943 c 6.119 0 13.733 3.807 13.733 8.43 C 393.46 213.251 393.323 213.931 393.188 214.338 z" stroke-linecap="round"/>
</g>
</svg>
