<svg xmlns="http://www.w3.org/2000/svg" xmlns:xlink="http://www.w3.org/1999/xlink" version="1.1" width="200" height="200" viewBox="0 0 200 200" xml:space="preserve">
<g transform="matrix(0.2963 0 0 0.2963 100.0012 100.0009)" id="967858">
<path style="stroke: none; stroke-width: 1; stroke-dasharray: none; stroke-linecap: butt; stroke-dashoffset: 0; stroke-linejoin: miter; stroke-miterlimit: 4; is-custom-font: none; font-file-url: none; fill: rgb(0,158,198); fill-rule: nonzero; opacity: 1;" vector-effect="non-scaling-stroke" transform=" translate(-320, -256)" d="M 9.375 233.4 C 3.375 239.4 0 247.5 0 256 v 128 c 0 8.5 3.375 16.62 9.375 22.62 S 23.5 416 32 416 h 32 V 224 H 32 C 23.5 224 15.38 227.4 9.375 233.4 z M 464 96 H 352 V 32 c 0 -17.62 -14.38 -32 -32 -32 S 288 14.38 288 32 v 64 H 176 C 131.8 96 96 131.8 96 176 V 448 c 0 35.38 28.62 64 64 64 h 320 c 35.38 0 64 -28.62 64 -64 V 176 C 544 131.8 508.3 96 464 96 z M 256 416 H 192 v -32 h 64 V 416 z M 224 296 C 201.9 296 184 278.1 184 256 S 201.9 216 224 216 S 264 233.9 264 256 S 246.1 296 224 296 z M 352 416 H 288 v -32 h 64 V 416 z M 448 416 h -64 v -32 h 64 V 416 z M 416 296 c -22.12 0 -40 -17.88 -40 -40 S 393.9 216 416 216 S 456 233.9 456 256 S 438.1 296 416 296 z M 630.6 233.4 C 624.6 227.4 616.5 224 608 224 h -32 v 192 h 32 c 8.5 0 16.62 -3.375 22.62 -9.375 S 640 392.5 640 384 V 256 C 640 247.5 636.6 239.4 630.6 233.4 z" stroke-linecap="round"/>
</g>
</svg>
