<svg xmlns="http://www.w3.org/2000/svg" xmlns:xlink="http://www.w3.org/1999/xlink" version="1.1" width="200"
     height="200" viewBox="0 0 200 200" xml:space="preserve">
<g transform="matrix(3.8638 0 0 3.7195 99.9991 100.0001)" id="9860">
    <g style="" vector-effect="non-scaling-stroke">
        <g transform="matrix(1 0 0 1 0 0)">
            <path style="stroke: none; stroke-width: 1; stroke-dasharray: none; stroke-linecap: butt; stroke-dashoffset: 0; stroke-linejoin: miter; stroke-miterlimit: 4; is-custom-font: none; font-file-url: none; fill: none; fill-rule: nonzero; opacity: 1;"
                  transform=" translate(-24, -24)" d="M 0 0 h 48 v 48 h -48 z" stroke-linecap="round"/>
        </g>
        <g transform="matrix(1 0 0 1 0 0)">
            <path style="stroke: none; stroke-width: 1; stroke-dasharray: none; stroke-linecap: butt; stroke-dashoffset: 0; stroke-linejoin: miter; stroke-miterlimit: 4; is-custom-font: none; font-file-url: none; fill: rgb(0,246,163); fill-rule: nonzero; opacity: 1;"
                  transform=" translate(-24, -24)"
                  d="M 6 10 h -4 v 32 c 0 2.21 1.79 4 4 4 h 32 v -4 h -32 v -32 z m 36 -8 h -28 c -2.21 0 -4 1.79 -4 4 v 28 c 0 2.21 1.79 4 4 4 h 28 c 2.21 0 4 -1.79 4 -4 v -28 c 0 -2.21 -1.79 -4 -4 -4 z m 0 32 h -28 v -28 h 28 v 28 z m -8 -8 h -8 v -4 h 4 c 2.21 0 4 -1.79 4 -4 v -4 c 0 -2.21 -1.79 -4 -4 -4 h -8 v 4 h 8 v 4 h -4 c -2.21 0 -4 1.79 -4 4 v 8 h 12 v -4 z"
                  stroke-linecap="round"/>
        </g>
    </g>
</g>
</svg>
