<?xml version="1.0"?>
<svg xmlns="http://www.w3.org/2000/svg" viewBox="0 0 512 512" width="512px" height="512px" class=""><g><g id="Outline"><path d="M488,336a8,8,0,0,0,8-8V296a8,8,0,0,0-8-8H448V200a8,8,0,0,0-8-8H408a8,8,0,0,0-8,8v86.924a48,48,0,0,0-25.212-11.75L304,265.062v-26.03c.132-.107.264-.21.4-.321A76.454,76.454,0,0,0,330.8,194.7c1.3-6.433,2.309-12.614,3.075-18.7H336a32,32,0,0,0,0-64V64.984a33.743,33.743,0,0,0-37.469-33.541A62.149,62.149,0,0,0,257.373,16H224a48.054,48.054,0,0,0-48,48,7.974,7.974,0,0,0,2.569,5.863A64.872,64.872,0,0,0,176,88v24a32,32,0,0,0,0,64h2.124c.769,6.108,1.777,12.282,3.076,18.71A76.026,76.026,0,0,0,208,238.99v26.515l-37.97,8.109a31.691,31.691,0,0,0-21.342.491,31.781,31.781,0,0,0-57.376,0A31.458,31.458,0,0,0,80,272a32.036,32.036,0,0,0-32,32,31.261,31.261,0,0,0,.288,4.236A31.882,31.882,0,0,0,32,336a31.486,31.486,0,0,0,8.463,21.611L41.663,368H24a8,8,0,0,0-8,8v80a8,8,0,0,0,8,8H53.063l2.994,24.953A8,8,0,0,0,64,496H176a8,8,0,0,0,7.944-7.058l15.584-131.321A31.492,31.492,0,0,0,208,336a31.882,31.882,0,0,0-16.288-27.764A31.261,31.261,0,0,0,192,304a31.97,31.97,0,0,0-5.266-17.6l13.388-2.862A56.061,56.061,0,0,0,256,336a56.062,56.062,0,0,0,55.94-53.641l44.7,6.386A8,8,0,0,0,352,296v32a8,8,0,0,0,8,8h8.655l7.475,87.426c-8.289-24.458-15.139-44.878-16.232-48.7a7.987,7.987,0,0,0-2.242-4.386l-9.9-1.136A7.5,7.5,0,0,0,344.061,376H344V496h16V425.675q1.465,4.325,3.058,9.018c9.385,27.65,18.958,55.619,19.053,55.9l.007,0A8,8,0,0,0,389.68,496h68.64a8,8,0,0,0,7.971-7.322l2.1-24.678H488a8,8,0,0,0,8-8V376a8,8,0,0,0-8-8H476.629l2.72-32ZM416,208h16v80H416Zm-64-64a16.019,16.019,0,0,1-16,16h-.594c.382-5.744.594-32,.594-32A16.019,16.019,0,0,1,352,144ZM320,64.984V94.135a315.751,315.751,0,0,1-16-31.768V47.307a17.78,17.78,0,0,1,16,17.677ZM288,43.466V56H275.845l-19.2-24h.728A46.284,46.284,0,0,1,288,43.466ZM236.155,32l19.2,24H235.314L213.2,33.881A31.853,31.853,0,0,1,224,32ZM192,88a48.211,48.211,0,0,1,2.678-16h9.7A186.691,186.691,0,0,1,192,95.306Zm7.79-44.9,12.9,12.9H193.012A31.944,31.944,0,0,1,199.79,43.1ZM160,144a16.019,16.019,0,0,1,16-16s.212,26.27.593,32H176A16.019,16.019,0,0,1,160,144Zm36.882,47.536a232.128,232.128,0,0,1-3.645-24.361A241.2,241.2,0,0,1,192,142.4V122.852c2.229-2.769,4.372-5.6,6.477-8.556A200.615,200.615,0,0,0,221.76,72h68.99c4.537,10.166,15.768,33.778,29.25,50.832V142.4a241.669,241.669,0,0,1-1.244,24.848,231.879,231.879,0,0,1-3.641,24.3,59.6,59.6,0,0,1-20.9,34.818l-.1.084c-.8.674-1.75,1.355-2.8,2.106a60.295,60.295,0,0,1-94.429-37.023ZM56.5,356.969a14.526,14.526,0,0,1,15.7.444l.638,10.608c-.278-.009-.554-.021-.834-.021H57.769ZM144.462,480H128V356.833l.537-.536a14.645,14.645,0,0,1,18.48-1.791l4.723,3.134ZM112,480H95.546l-1.752-29.967A23.85,23.85,0,0,0,96,440V392a23.912,23.912,0,0,0-6.694-16.6l-1.067-17.743,4.733-3.14a14.47,14.47,0,0,1,18.491,1.783l.537.536ZM32,384H72a8.009,8.009,0,0,1,8,8v48a8.009,8.009,0,0,1-8,8H32Zm37.177,80H72a23.941,23.941,0,0,0,6.53-.91L79.519,480H71.1Zm99.716,16h-8.4l7.291-122.57a14.525,14.525,0,0,1,15.712-.469ZM192,336a15.928,15.928,0,0,1-1.419,6.6,30.461,30.461,0,0,0-30.973,1.054l-3.717-2.466A30.694,30.694,0,0,0,120,342.524a30.431,30.431,0,0,0-35.862-1.35l-3.745,2.484A30.461,30.461,0,0,0,49.419,342.6a15.881,15.881,0,0,1,10.394-21.913,8,8,0,0,0,5.375-10.7,15.9,15.9,0,0,1,25.541-17.715,8,8,0,0,0,13.411-5.311,15.887,15.887,0,0,1,31.72,0,8,8,0,0,0,13.411,5.311A15.8,15.8,0,0,1,160,288a14.734,14.734,0,0,1,6.11,1.23q.307.137.632.247a15.942,15.942,0,0,1,8.07,20.512,8,8,0,0,0,5.375,10.7A15.878,15.878,0,0,1,192,336Zm64-16a40.065,40.065,0,0,1-40-39.827l1.64-.344A8,8,0,0,0,224,272V248.967a76.331,76.331,0,0,0,64,0V272a8,8,0,0,0,6.869,7.92l1.129.161A40.044,40.044,0,0,1,256,320Zm112-16H480v16H368ZM480,448H440a8.009,8.009,0,0,1-8-8V392a8.009,8.009,0,0,1,8-8h40Zm-19.429-80H440a24.027,24.027,0,0,0-24,24v48a24.027,24.027,0,0,0,24,24h12.331l-1.36,16H397.025L384.713,336h78.578Z" data-original="#2a3044" class="active-path" data-old_color="#2a3044" fill="#6B7080"/><path d="M232,129.589a12,12,0,1,0-12,12A12.013,12.013,0,0,0,232,129.589Z" data-original="#2a3044" class="active-path" data-old_color="#2a3044" fill="#6B7080"/><path d="M292,141.589a12,12,0,1,0-12-12A12.013,12.013,0,0,0,292,141.589Z" data-original="#2a3044" class="active-path" data-old_color="#2a3044" fill="#6B7080"/><path d="M292.031,182.91l-8.062-13.82c-7.529,4.391-18.128,6.91-29.078,6.91H240v16h14.891C268.792,192,281.982,188.771,292.031,182.91Z" data-original="#2a3044" class="active-path" data-old_color="#2a3044" fill="#6B7080"/></g></g> </svg>
