<svg height="512" viewBox="0 0 512 512" width="512" xmlns="http://www.w3.org/2000/svg"><path d="m408 496v-173.309a40 40 0 0 0 -34.343-39.6l-77.657-11.091v-48h-80v48l-80.381 17.224a40 40 0 0 0 -31.619 39.112v167.664" fill="#fec9a3"/><path d="m296 251.859v-27.859h-80v27.859a71.963 71.963 0 0 0 80 0z" fill="#feb784"/><path d="m408 322.69v173.31h-304v-167.66a40.012 40.012 0 0 1 31.62-39.12l72.38-15.51v6.29a48 48 0 0 0 96 0v-6.86l69.66 9.95a39.978 39.978 0 0 1 34.34 39.6z" fill="#348fd9"/><path d="m408 322.69v173.31h-278.25c79.74-36.37 183.9-100.03 262.13-205.41a40.025 40.025 0 0 1 16.12 32.1z" fill="#3086cd"/><path d="m328 109.59v32.83a258.2 258.2 0 0 1 -5.02 50.67 68.291 68.291 0 0 1 -66.98 54.91q-3.24 0-6.41-.3a68.315 68.315 0 0 1 -60.57-54.61q-2.505-12.525-3.76-25.21t-1.26-25.46v-32.83a72.018 72.018 0 0 1 61.59-71.25 72.885 72.885 0 0 1 10.41-.75 72.006 72.006 0 0 1 72 72z" fill="#fec9a3"/><path d="m328 109.59v32.83a258.2 258.2 0 0 1 -5.02 50.67 68.291 68.291 0 0 1 -66.98 54.91q-3.24 0-6.41-.3a72 72 0 0 0 38.41-63.7v-80a72.107 72.107 0 0 0 -42.41-65.66 72.885 72.885 0 0 1 10.41-.75 72.006 72.006 0 0 1 72 72z" fill="#fec093"/><path d="m208 64h88v16h-88z" fill="#fec093"/><circle cx="220" cy="129.586" fill="#7a432a" r="12"/><circle cx="292" cy="129.586" fill="#7a432a" r="12"/><path d="m254.891 192h-14.891v-16h14.891c10.957 0 21.554-2.516 29.078-6.906l8.062 13.812c-10.043 5.867-23.231 9.094-37.14 9.094z" fill="#f7a468"/><path d="m184 120h-8a24 24 0 0 0 0 48h9.273q-1.268-12.746-1.273-25.584z" fill="#feb784"/><path d="m336 120h-8v22.416q0 12.824-1.273 25.584h9.273a24 24 0 0 0 0-48z" fill="#feb784"/><g fill="#95573a"><path d="m184 120v-32c0-26.51 17.909-48 40-48l-1.408 5.068c-7.842 28.232-21.055 53.888-38.592 74.932z"/><path d="m328 120v-55.015a25.754 25.754 0 0 0 -32-24.985v24s14.463 34.956 32 56z"/><path d="m296 64h-112a40 40 0 0 1 40-40h33.373a54.626 54.626 0 0 1 38.627 16z"/></g><path d="m230.883 24 31.177 40h20.277l-31.176-40z" fill="#82462a"/><path d="m194.286 37.449 27.061 26.551h22.844l-36.922-36.226a39.913 39.913 0 0 0 -12.983 9.675z" fill="#82462a"/><path d="m344 376h16v120h-16z" fill="#2a71ad"/><path d="m152 376h16v120h-16z" fill="#2a71ad"/><path d="m200 344a24.006 24.006 0 0 1 -24 24h-112a23.946 23.946 0 0 1 -6.24-47.08 23.923 23.923 0 0 1 38.41-26.56 23.878 23.878 0 0 1 47.66 0 23.921 23.921 0 0 1 38.41 26.56 23.949 23.949 0 0 1 17.76 23.08z" fill="#ffb531"/><path d="m200 344a24.006 24.006 0 0 1 -24 24h-98.9c35-14.66 71.61-37.91 97.86-74.76a23.84 23.84 0 0 1 7.28 27.68 23.949 23.949 0 0 1 17.76 23.08z" fill="#ffa912"/><path d="m192 361.51-16 134.49h-112l-.72-6.07-15.28-128.42a22.621 22.621 0 0 1 32 0l8.57-5.71a22.627 22.627 0 0 1 28.55 2.83l2.88 2.88 2.88-2.88a22.627 22.627 0 0 1 28.55-2.83l8.57 5.71a22.625 22.625 0 0 1 32 0z" fill="#e0e0de"/><path d="m192 361.51-16 134.49h-112l-.72-6.07c38.34-30.88 84.47-75.08 123.19-132.48a22.373 22.373 0 0 1 5.53 4.06z" fill="#d6d6d4"/><g fill="#f35244"><path d="m122.883 358.628-2.883 2.883-2.883-2.884a22.466 22.466 0 0 0 -5.117-3.75v141.123h16v-141.123a22.471 22.471 0 0 0 -5.117 3.751z"/><path d="m80 361.511a22.441 22.441 0 0 0 -8.243-5.2l8.782 139.689h16.028l-8.782-139.679z"/><path d="m160 361.511-7.611-5.074-8.369 139.563h16.026l8.38-139.739a22.418 22.418 0 0 0 -8.426 5.25z"/></g><path d="m72 464h-48v-80h48a16 16 0 0 1 16 16v48a16 16 0 0 1 -16 16z" fill="#fec9a3"/><path d="m72 384h-24.014a16 16 0 0 1 16 16v48a16 16 0 0 1 -16 16h24.014a16 16 0 0 0 16-16v-48a16 16 0 0 0 -16-16z" fill="#fec093"/><path d="m472 336-1.37 16-2.2 25.63-10.14 118.37h-68.58l-3.24-37.85-9.1-106.15-1.37-16z" fill="#f35244"/><path d="m360 304h128v32h-128z" fill="#e0e0de"/><path d="m456 304h32v32h-32z" fill="#d6d6d4"/><path d="m408 208h32v96h-32z" fill="#f35244"/><path d="m468.43 377.63-10.14 118.37h-68.58l-3.24-37.85a533.411 533.411 0 0 0 81.96-80.52z" fill="#ea4a3b"/><path d="m472 336-1.37 16h-93.26l-1.37-16z" fill="#ea4a3b"/><path d="m440 384h48v80h-48a16 16 0 0 1 -16-16v-48a16 16 0 0 1 16-16z" fill="#fec9a3"/><path d="m456 384h32v80h-32z" fill="#fec093"/></svg>