<svg height="512" viewBox="0 0 426.66666 426.66666" width="512" xmlns="http://www.w3.org/2000/svg"><g fill="#fa4659"><path d="m213.332031 0c-117.820312 0-213.332031 95.511719-213.332031 213.332031 0 117.820313 95.511719 213.335938 213.332031 213.335938 117.820313 0 213.335938-95.515625 213.335938-213.335938 0-117.820312-95.515625-213.332031-213.335938-213.332031zm0 362.667969c-82.472656 0-149.332031-66.859375-149.332031-149.335938 0-82.472656 66.859375-149.332031 149.332031-149.332031 82.476563 0 149.335938 66.859375 149.335938 149.332031 0 82.476563-66.859375 149.335938-149.335938 149.335938zm0 0"/><path d="m96 384c-4.3125 0-8.203125-2.597656-9.851562-6.585938-1.652344-3.984374-.738282-8.570312 2.308593-11.621093l21.335938-21.335938c4.164062-4.167969 10.917969-4.167969 15.085937-.003906 4.167969 4.167969 4.164063 10.925781-.003906 15.089844l-21.332031 21.332031c-2 2.003906-4.714844 3.128906-7.542969 3.125zm0 0"/><path d="m352 128c-4.3125 0-8.203125-2.597656-9.851562-6.585938-1.652344-3.984374-.738282-8.570312 2.308593-11.621093l21.335938-21.335938c4.164062-4.167969 10.917969-4.167969 15.085937-.003906 4.167969 4.167969 4.164063 10.925781-.003906 15.089844l-21.332031 21.332031c-2 2.003906-4.714844 3.128906-7.542969 3.125zm0 0"/><path d="m42.667969 341.332031 298.664062-298.664062 42.667969 42.664062-298.667969 298.667969zm0 0"/></g></svg>