<svg enable-background="new 0 0 512.001 512.001" viewBox="0 0 512.001 512.001" xmlns="http://www.w3.org/2000/svg"><path d="m141.119 86.019 366.239 366.239c6.19 6.19 6.19 16.167.001 22.358l-32.754 32.754c-6.13 6.13-16.167 6.189-22.358-.001l-366.238-366.239c-6.19-6.19-6.131-16.227-.001-22.358l32.754-32.754c6.189-6.189 16.166-6.189 22.357.001z" fill="#b58058"/><path d="m103.737 101.043 388.597 388.597-17.729 17.729c-6.13 6.13-16.167 6.189-22.358-.001l-366.238-366.238c-6.19-6.19-6.131-16.227-.001-22.358z" fill="#8e6047"/><path d="m442.571 12.94c-67.731 17.008-147.841 61.9-223.985 128.551l14.844 14.844c7.572 7.572 7.572 19.712 0 27.284l-49.821 49.821c-7.513 7.513-19.712 7.572-27.284 0l-14.844-14.844c-66.651 76.145-111.544 156.257-128.552 223.987-5.769-12.14-9.555-25.662-11.479-40.086-10.396-78.668 35.518-186.606 125.004-276.092 89.426-89.426 197.364-135.34 276.032-124.944 14.484 1.863 27.946 5.709 40.085 11.479z" fill="#94a6ad"/><path d="m442.571 12.94c-67.731 17.008-147.841 61.9-223.985 128.551l14.844 14.844c7.572 7.572 7.572 19.712 0 27.284l-49.821 49.821c-7.513 7.513-19.712 7.572-27.284 0l-14.844-14.844c-66.651 76.145-111.544 156.257-128.552 223.987-5.769-12.14-9.555-25.662-11.479-40.086 19.292-76.024 73.38-166.172 154.152-246.944 80.712-80.712 170.86-134.8 246.884-154.092 14.484 1.863 27.946 5.709 40.085 11.479z" fill="#858c94"/></svg>