<svg enable-background="new 0 0 480 480" viewBox="0 0 480 480" xmlns="http://www.w3.org/2000/svg"><path d="m416 312-26.664 40h-61.336c-2.47-.002-4.803 1.138-6.32 3.088l-53.592 68.912h-52.088c-2.852.006-5.486 1.53-6.912 4l-30.352 52h301.264v-168z" fill="#87ced9"/><path d="m8 440 360-368 40 40-368 360z" fill="#875339"/><path d="m374.4 452.8-12.8-9.6 24-32c1.511-2.014 3.882-3.2 6.4-3.2h88v16h-84z" fill="#6cbbc7"/><circle cx="112" cy="136" fill="#fdb62f" r="88"/><path d="m152 120c-.042-10.134-6.445-19.15-16-22.528v-17.472h-16v16h-16v-16h-16v16h-8c-4.418 0-8 3.582-8 8v64c0 4.418 3.582 8 8 8h8v16h16v-16h16v16h16v-17.472c12.454-4.355 19.019-17.981 14.664-30.434-1.045-2.989-2.674-5.74-4.792-8.094 3.95-4.393 6.133-10.093 6.128-16zm-24 40h-40v-16h40c4.418 0 8 3.582 8 8s-3.582 8-8 8zm0-32h-40v-16h40c4.418 0 8 3.582 8 8s-3.582 8-8 8z" fill="#f46b27"/><path d="m32 0h-16v16h-16v16h16v16h16v-16h16v-16h-16z" fill="#fdb62f"/><g fill="#87ced9"><path d="m464 144h16v32h-16z"/><path d="m356.419 247.163 7.155-14.311 31.999 15.999-7.155 14.311z"/><path d="m344 296h32v16h-32z"/><path d="m288 288h-16v16h-16v16h16v16h16v-16h16v-16h-16z"/></g><path d="m309.256 53.256c-28.977-28.976-68.277-45.255-109.256-45.256l116.568 116.568 31.648-32.352z" fill="#3e8cc7"/><path d="m472 280c-.001-40.979-16.28-80.279-45.256-109.256l-38.96-38.96-32.352 31.648z" fill="#3e8cc7"/><path d="m387.784 131.784-39.568-39.568-31.648 32.352 38.864 38.864z" fill="#4398d1"/></svg>