<svg enable-background="new 0 0 512 512" height="512" viewBox="0 0 512 512" width="512" xmlns="http://www.w3.org/2000/svg"><path d="m508.425 317.235c-78.541-56.107-147.746-123.725-205.687-200.96l-39.91-53.222c-3.217-4.301-10.436-4.301-13.653 0l-39.91 53.222c-57.943 77.235-127.149 144.854-205.69 200.96-2.244 1.596-3.575 4.182-3.575 6.938v119.467c0 3.2 1.783 6.127 4.625 7.586 2.842 1.468 6.263 1.212 8.866-.649l9.779-6.98c73.455-52.463 139.042-114.978 194.953-185.796l37.777-47.855 37.777 47.846c55.91 70.827 121.498 133.342 194.953 185.805l9.779 6.98c1.476 1.067 3.209 1.596 4.958 1.596 1.331 0 2.671-.316 3.908-.947 2.842-1.459 4.625-4.386 4.625-7.586v-119.467c0-2.756-1.331-5.342-3.575-6.938z" fill="#ff4727"/></svg>