<svg enable-background="new 0 0 512.002 512.002" height="512" viewBox="0 0 512.002 512.002" width="512" xmlns="http://www.w3.org/2000/svg"><path d="m297.288 55.052-41.286-55.049-41.287 55.049c-60.398 80.516-132.811 151.269-214.713 209.779v123.586l10.116-7.23c75.264-53.76 142.557-117.892 199.874-190.499l46.009-58.271 46.009 58.271c57.309 72.607 124.601 136.739 199.874 190.499l10.116 7.23v-123.586c-81.901-58.51-154.322-129.263-214.712-209.779" fill="#f89332"/><path d="m302.009 190.692-46.009-58.28-46.009 58.28c-57.318 72.598-124.602 136.731-199.875 190.499l-10.116 7.221v123.586l10.116-7.221c75.273-53.769 142.557-117.901 199.874-190.499l46.01-58.279 46.009 58.28c57.318 72.598 124.601 136.73 199.874 190.499l10.117 7.221v-123.587l-10.116-7.221c-75.273-53.768-142.557-117.901-199.875-190.499" fill="#c46c16"/></svg>