<svg enable-background="new 0 0 24 24" height="512" viewBox="0 0 24 24" width="512" xmlns="http://www.w3.org/2000/svg"><g fill="#6b7080"><circle cx="18.5" cy="14.5" r="3"/><path d="m21.25 19h-5.5c-1.517 0-2.75 1.233-2.75 2.75v1.5c0 .414.336.75.75.75h9.5c.414 0 .75-.336.75-.75v-1.5c0-1.517-1.233-2.75-2.75-2.75z"/><circle cx="4" cy="17" r="2"/><path d="m5.25 20h-2.5c-1.517 0-2.75 1.233-2.75 2.75v.5c0 .414.336.75.75.75h6.5c.414 0 .75-.336.75-.75v-.5c0-1.517-1.233-2.75-2.75-2.75z"/><path d="m12.25 0h-9.5c-1.517 0-2.75 1.233-2.75 2.75v7.5c0 1.517 1.233 2.75 2.75 2.75h4.957l3.034 2.801c.142.131.324.199.509.199.102 0 .204-.021.301-.063.272-.12.449-.389.449-.687v-2.25h.25c1.517 0 2.75-1.233 2.75-2.75v-7.5c0-1.517-1.233-2.75-2.75-2.75zm-4.75 11c-.414 0-.75-.336-.75-.75s.336-.75.75-.75.75.336.75.75-.336.75-.75.75zm1.477-4.483c-.272.199-.727.627-.727 1.253v.23c0 .414-.336.75-.75.75s-.75-.336-.75-.75v-.23c0-.94.488-1.838 1.34-2.462.261-.192.41-.486.41-.808 0-.551-.448-1-1-1s-1 .449-1 1c0 .414-.336.75-.75.75s-.75-.336-.75-.75c0-1.378 1.121-2.5 2.5-2.5s2.5 1.122 2.5 2.5c0 .793-.383 1.547-1.023 2.017z"/></g></svg>