<svg enable-background="new 0 0 45.363 45.363" height="512" viewBox="0 0 45.363 45.363" width="512" xmlns="http://www.w3.org/2000/svg"><g fill="#4281da"><path d="m1.788 16.945c.388.385.913.601 1.459.601l27.493-.035v3.831c.003.836.556 1.586 1.329 1.904.771.314 1.658.135 2.246-.459l9.091-9.18c1.062-1.071 1.06-2.801-.009-3.868l-9.137-9.134c-.59-.591-1.479-.768-2.25-.446-.77.319-1.271 1.074-1.27 1.908v3.833l-27.521.037c-1.139.003-2.058.927-2.056 2.067l.018 7.483c.001.547.22 1.073.607 1.458z"/><path d="m42.146 27.901-27.522-.035-.001-3.834c.002-.835-.5-1.587-1.27-1.907-.771-.321-1.66-.146-2.25.445l-9.136 9.135c-1.067 1.064-1.071 2.796-.009 3.866l9.09 9.181c.588.596 1.475.772 2.247.458.772-.316 1.326-1.066 1.329-1.904v-3.83l27.493.035c.547 0 1.072-.216 1.459-.602s.605-.91.607-1.456l.017-7.483c.003-1.14-.916-2.067-2.054-2.069z"/></g></svg>