<svg enable-background="new 0 0 512.4 512.4" viewBox="0 0 512.4 512.4" xmlns="http://www.w3.org/2000/svg"><path d="m512 125.7c-.6-20.7-17.5-37.3-38.3-37.3h-435.4c-21.1.1-38.3 17.2-38.3 38.4v258.8 1.1c.1 5.2 1.3 10.1 3.3 14.5.2.6.5 1.1.8 1.6s.5 1 .8 1.6v.1l.9 1.5s0 .1.1.1c.3.5.6.9.9 1.4l.1.1c.3.5.6.9 1 1.3 0 .1.1.1.1.2.3.4.7.8 1 1.2.1.1.1.1.2.2.3.4.7.8 1 1.2.1.1.1.1.2.2.3.4.7.7 1.1 1.1.1.1.2.2.2.2.4.3.7.7 1.1 1l.3.3c.4.3.7.6 1.1.9.1.1.2.2.4.3.4.3.7.6 1.1.8.1.1.3.2.4.3.4.3.7.5 1.1.7.2.1.3.2.5.3.4.2.7.5 1.1.7.2.1.4.2.5.3.3.2.7.4 1 .6l.6.3c.3.2.7.4 1 .5.2.1.4.2.7.3.3.2.7.3 1 .5.2.1.5.2.7.3.3.1.7.3 1 .4s.5.2.8.3.6.2 1 .3c.3.1.6.2.9.2l.9.3s.6.1.9.2.6.1.9.2.7.1 1 .2.6.1.9.2c.4.1.7.1 1.1.1.3 0 .5.1.8.1.4 0 .8.1 1.3.1.2 0 .4 0 .7.1h2 435.3 2c.2 0 .4 0 .7-.1.4 0 .8-.1 1.3-.1.3 0 .5-.1.8-.1.4 0 .7-.1 1.1-.1.3 0 .6-.1.9-.2s.7-.1 1-.2.6-.1.9-.2.6-.1.9-.2.6-.2.9-.3.6-.2.9-.2c.3-.1.6-.2 1-.3.3-.1.5-.2.8-.3s.7-.3 1-.4c.2-.1.5-.2.7-.3.3-.1.7-.3 1-.5.2-.1.4-.2.7-.3.3-.2.7-.3 1-.5.2-.1.4-.2.6-.3.4-.2.7-.4 1-.6.2-.1.4-.2.5-.3.4-.2.7-.4 1.1-.7.2-.1.3-.2.5-.3.4-.2.7-.5 1.1-.7.1-.1.3-.2.4-.3.4-.3.7-.5 1.1-.8.1-.1.2-.2.4-.3.4-.3.7-.6 1.1-.9.1-.1.2-.2.3-.3.4-.3.7-.7 1.1-1 .1-.1.2-.2.3-.2.4-.4.7-.7 1.1-1.1.1-.1.1-.1.2-.2.4-.4.7-.8 1-1.2l.2-.2c.3-.4.7-.8 1-1.2 0-.1.1-.1.1-.2.3-.4.7-.9 1-1.3l.1-.1c.3-.5.6-.9.9-1.4 0 0 0-.1.1-.1.3-.5.6-1 .9-1.5 0 0 0 0 0-.1.3-.5.6-1 .8-1.6.3-.5.5-1.1.8-1.6 2-4.5 3.2-9.4 3.3-14.5 0-.4 0-.7 0-1.1v-258.8c-.4-.3-.4-.7-.4-1.1z" fill="#f5f5f5"/><path d="m0 312.1h512v37.3h-512zm3.3 89.1c.2.6.5 1.1.8 1.6s.5 1 .8 1.6v.1l.9 1.5s0 .1.1.1c.3.5.6.9.9 1.4l.1.1c.3.5.6.9 1 1.3 0 .1.1.1.1.2.3.4.7.8 1 1.2.1.1.1.1.2.2.3.4.7.8 1 1.2.1.1.1.1.2.2.3.4.7.7 1.1 1.1.1.1.2.2.2.2.4.3.7.7 1.1 1 .1.1.2.2.3.3.4.3.7.6 1.1.9.1.1.2.2.4.3.4.3.7.6 1.1.8.1.1.3.2.4.3.4.3.7.5 1.1.7.2.1.3.2.5.3.4.2.7.5 1.1.7.2.1.4.2.5.3.3.2.7.4 1 .6.2.1.4.2.6.3.3.2.7.4 1 .5.2.1.4.2.7.3.3.2.7.3 1 .5.2.1.5.2.7.3.3.1.7.3 1 .4s.5.2.8.3.6.2 1 .3c.3.1.6.2.9.2.3.1.6.2.9.3s.6.1.9.2.6.1.9.2.7.1 1 .2.6.1.9.2c.4.1.7.1 1.1.1.3 0 .5.1.8.1.4 0 .8.1 1.3.1.2 0 .4 0 .7.1h2 435.3 2c.2 0 .4 0 .7-.1.4 0 .8-.1 1.3-.1.3 0 .5-.1.8-.1.4 0 .7-.1 1.1-.1.3 0 .6-.1.9-.2s.7-.1 1-.2.6-.1.9-.2.6-.1.9-.2.6-.2.9-.3.6-.2.9-.2c.3-.1.6-.2 1-.3.3-.1.5-.2.8-.3s.7-.3 1-.4c.2-.1.5-.2.7-.3.3-.1.7-.3 1-.5.2-.1.4-.2.7-.3.3-.2.7-.3 1-.5.2-.1.4-.2.6-.3.4-.2.7-.4 1-.6.2-.1.4-.2.5-.3.4-.2.7-.4 1.1-.7.2-.1.3-.2.5-.3.4-.2.7-.5 1.1-.7.1-.1.3-.2.4-.3.4-.3.7-.5 1.1-.8.1-.1.2-.2.4-.3.4-.3.7-.6 1.1-.9l.3-.3c.4-.3.7-.7 1.1-1 .1-.1.2-.2.3-.2l1.1-1.1.2-.2c.4-.4.7-.8 1-1.2l.2-.2c.3-.4.7-.8 1-1.2 0-.1.1-.1.1-.2.3-.4.7-.9 1-1.3l.1-.1c.3-.5.6-.9.9-1.4 0 0 0-.1.1-.1.3-.5.6-1 .9-1.5 0 0 0 0 0-.1.3-.5.6-1 .8-1.6.3-.5.5-1.1.8-1.6 2-4.5 3.2-9.4 3.3-14.5h-512.4c.2 5.1 1.3 10 3.3 14.5zm173.3-238.2v37.3h-69.6v74.5h405v-37.3h-335.4v-37.3h335.4v-37.3h-335.4zm-107 37.3h-69.6v37.3 37.3h69.6zm442.4-74.6c-.6-20.7-17.5-37.3-38.3-37.3h-366.8v74.5h69.6v-37.3h335.5zm-442.4-37.2h-31.3c-21.1 0-38.3 17.1-38.3 38.3v36.2h69.6z" fill="#41479b"/></svg>