<svg enable-background="new 0 0 512 512" viewBox="0 0 512 512" xmlns="http://www.w3.org/2000/svg"><path d="m0 385.379c0 21.177 17.167 38.345 38.345 38.345h435.31c21.177 0 38.345-17.167 38.345-38.345v-73.471h-512z" fill="#f5f5f5"/><path d="m473.655 88.276h-435.31c-21.178 0-38.345 17.167-38.345 38.345v73.471h512v-73.471c0-21.178-17.167-38.345-38.345-38.345z" fill="#ff4b55"/><path d="m0 200.09h512v111.81h-512z" fill="#41479b"/><path d="m173.021 200.07h-63.559l-2.648-15.89h68.855z" fill="#ffe15a"/><path d="m108.8 196.097.662 3.973h63.559l.662-3.973z" fill="#ffd350"/><g fill="#ffe15a"><path d="m139.92 147.1h2.648v10.593h-2.648z"/><path d="m137.27 149.75h7.945v2.648h-7.945z"/><path d="m173.228 189.476c-.3 0-.604-.052-.903-.158-1.375-.499-2.086-2.017-1.587-3.393l5.61-15.481c.278-.768.212-1.613-.18-2.319-.209-.375-.695-1.035-1.624-1.234-6.839-1.453-20.096-3.897-32.024-3.897h-2.558c-11.927 0-25.184 2.444-32.026 3.9-.926.196-1.414.856-1.621 1.231-.392.706-.458 1.551-.179 2.319l5.609 15.481c.499 1.376-.212 2.894-1.587 3.393-1.374.491-2.895-.215-3.392-1.588l-5.61-15.481c-.8-2.209-.609-4.648.526-6.694 1.097-1.978 2.973-3.38 5.149-3.843 7.047-1.5 20.718-4.017 33.131-4.017h2.558c12.413 0 26.084 2.517 33.128 4.013 2.179.466 4.055 1.867 5.152 3.846 1.135 2.046 1.326 4.484.527 6.694l-5.611 15.481c-.388 1.078-1.406 1.747-2.488 1.747z"/><path d="m141.251 187.159c-1.462 0-2.648-1.184-2.648-2.648v-21.517c0-1.464 1.186-2.648 2.648-2.648s2.648 1.184 2.648 2.648v21.517c.001 1.463-1.185 2.648-2.648 2.648z"/><path d="m159.559 189.476c-.179 0-.36-.018-.541-.054-1.433-.298-2.353-1.699-2.055-3.132l3.212-15.481c.417-2.017-.236-3.784-.608-4.094-3.672-1.347-11.039-3.722-17.594-3.722h-1.465c-6.554 0-13.921 2.375-17.73 3.791-.235.241-.889 2.007-.472 4.024l3.212 15.481c.298 1.432-.622 2.835-2.055 3.132-1.434.277-2.836-.623-3.13-2.056l-3.212-15.481c-.8-3.859.428-8.801 3.808-10.062 5.063-1.882 12.565-4.125 19.578-4.125h1.465c7.014 0 14.517 2.242 19.576 4.122 3.383 1.265 4.611 6.207 3.811 10.066l-3.212 15.481c-.258 1.252-1.36 2.11-2.588 2.11z"/></g><path d="m107.476 188.152h67.531l.662-3.972h-68.855z" fill="#ffd350"/><path d="m90.924 200.07c-1.463 0-2.648 1.186-2.648 2.648v92.486c0 29.365 23.713 53.17 52.966 53.17s52.966-23.805 52.966-53.17v-92.486c0-1.463-1.185-2.648-2.648-2.648z" fill="#ff4b55"/><path d="m146.538 287.463 5.297-13.241-10.593 2.648-10.593-2.648 5.297 13.241-13.241 45.021s7.945 5.297 18.538 5.297 18.538-5.297 18.538-5.297z" fill="#f5f5f5"/><path d="m122.061 298.135-4.673 1.169 10.279-18.502-4.63-2.57-12.485 22.472h-11.683v5.297h5.69l-7.344 5.875 3.308 4.138 6.239-4.992-2.461 7.381 5.025 1.676 4.837-14.511 9.183-2.296z" fill="#ffe15a"/><path d="m122.703 226.552-12.089-6.045c-2.22-1.11-3.372-3.614-2.77-6.022l.684-2.735c.474-1.898-.961-3.736-2.918-3.736-.914 0-1.778.415-2.348 1.129-6.273 7.841-9.69 17.583-9.69 27.625v55.991s11.059-2.212 21.048-16.742c1.834-2.668 4.854-4.247 8.072-4.412l-5.286 15.857 10.594 2.649 9.269-11.03z" fill="#f5f5f5"/><path d="m160.422 298.135 4.673 1.169-10.279-18.502 4.63-2.57 12.483 22.472h11.685v5.297h-5.691l7.345 5.875-3.308 4.138-6.239-4.992 2.461 7.381-5.026 1.676-4.836-14.511-9.183-2.296z" fill="#ffe15a"/><path d="m159.779 226.552 12.089-6.045c2.22-1.11 3.372-3.614 2.77-6.022l-.684-2.735c-.474-1.898.961-3.736 2.918-3.736.914 0 1.778.415 2.348 1.129 6.273 7.841 9.69 17.583 9.69 27.625v55.991s-11.059-2.212-21.048-16.742c-1.834-2.668-4.853-4.247-8.072-4.412l5.286 15.857-10.593 2.648-9.269-11.03z" fill="#f5f5f5"/><path d="m125.352 208.014h-13.242l3.973 5.297 9.269 2.648-5.297 2.648h7.945z" fill="#ffe15a"/><path d="m157.131 208.014h13.241l-3.972 5.297-9.269 2.648 5.297 2.648h-7.945z" fill="#ffe15a"/><path d="m158.996 205.938-12.458 2.077-5.297 10.593-5.297-10.593-12.458-2.077c-1.428-.238-2.524 1.245-1.876 2.54l6.39 12.778-5.297 5.297h18.538 18.538l-5.297-5.297 6.389-12.778c.648-1.296-.447-2.779-1.875-2.54z" fill="#f5f5f5"/><circle cx="141.24" cy="185.34" fill="#ffbe50" r="3.972"/><ellipse cx="141.19" cy="194.82" fill="#41479b" rx="3.139" ry="2.207"/><ellipse cx="125.52" cy="194.82" fill="#ff4b55" rx="3.139" ry="2.207"/><ellipse cx="109.85" cy="194.82" fill="#41479b" rx="3.139" ry="2.207"/><ellipse cx="172.52" cy="194.82" fill="#41479b" rx="3.139" ry="2.207"/><ellipse cx="156.85" cy="194.82" fill="#ff4b55" rx="3.139" ry="2.207"/><g fill="#ffbe50"><circle cx="159.65" cy="185.34" r="3.972"/><circle cx="174.17" cy="185.34" r="3.972"/><circle cx="122.86" cy="185.34" r="3.972"/><circle cx="108.33" cy="185.34" r="3.972"/></g><path d="m145.803 162.994c.455-.781.735-1.678.735-2.648 0-2.925-2.371-5.297-5.297-5.297s-5.297 2.371-5.297 5.297c0 .97.279 1.867.735 2.648z" fill="#41479b"/><path d="m141.241 280.842c-10.953 0-19.862-8.909-19.862-19.862v-35.752h39.724v35.752c0 10.953-8.909 19.862-19.862 19.862z" fill="#ff4b55"/><path d="m159.779 226.552v34.428c0 10.238-8.3 18.538-18.538 18.538s-18.538-8.3-18.538-18.538v-34.428zm2.649-2.648h-2.648-37.076-2.648v2.648 34.428c0 11.682 9.504 21.186 21.186 21.186s21.186-9.504 21.186-21.186v-34.428z" fill="#a54b50"/><g fill="#f5f5f5"><path d="m137.269 279.08c1.281.28 2.607.437 3.972.437s2.691-.158 3.972-.437v-52.529h-7.945c.001 0 .001 52.529.001 52.529z"/><path d="m122.7 248.4h37.08v7.945h-37.08z"/></g></svg>