<svg height="512pt" viewBox="0 -127 512.002 512" width="512pt" xmlns="http://www.w3.org/2000/svg"><path d="m206.34375 0h-42.578125c-5.726563 0-11.371094 1.359375-16.46875 3.960938l-147.296875 75.132812v13.816406h88.257812v-13.816406h.195313l77.039063-43.660156c3.300781-1.871094 7.382812.546875 7.328124 4.339844-.042968 2.734374 2.167969 4.976562 4.90625 4.976562h28.617188c2.710938 0 4.90625-2.195312 4.90625-4.90625v-34.9375c0-2.707031-2.195312-4.90625-4.90625-4.90625zm0 0" fill="#bfbfbf"/><path d="m364.703125 3.960938c-5.101563-2.601563-10.746094-3.95703175-16.472656-3.95703175h-42.578125c-2.707032 0-4.90625 2.19531275-4.90625 4.90624975v34.933594c0 2.710938 2.199218 4.90625 4.90625 4.90625h28.621094c2.738281 0 4.945312-2.238281 4.90625-4.976562-.054688-3.792969 4.027343-6.210938 7.324218-4.339844l77.042969 43.660156h.191406v13.816406h88.257813v-13.816406zm0 0" fill="#bfbfbf"/><path d="m256 79.09375h-256v50.125c0 4.5 3.648438 8.148438 8.148438 8.148438h8.679687c4.5 0 8.148437 3.648437 8.148437 8.152343v103.378907c0 4.5 3.648438 8.148437 8.148438 8.148437h164.074219c3.09375 0 5.921875-1.757813 7.300781-4.53125l34.972656-70.550781c3.113282-6.28125 9.519532-10.253906 16.527344-10.253906 7.011719 0 13.414062 3.972656 16.527344 10.253906l34.976562 70.550781c1.375 2.773437 4.203125 4.53125 7.300782 4.53125h164.070312c4.5 0 8.148438-3.648437 8.148438-8.148437v-103.382813c0-4.5 3.648437-8.148437 8.152343-8.148437h8.675781c4.5 0 8.152344-3.648438 8.152344-8.148438v-50.128906h-256.003906zm0 0" fill="#efe2dd"/><path d="m512 79.089844v50.136718c0 4.488282-3.652344 8.144532-8.15625 8.144532h-8.667969c-4.503906 0-8.15625 3.644531-8.15625 8.144531v103.378906c0 4.5-3.644531 8.144531-8.144531 8.144531l-20.644531.007813c4.5 0 8.144531-4.652344 8.144531-9.152344v-118.515625c0-4.5 3.652344-8.144531 8.152344-8.144531h8.671875c4.5 0 8.15625-3.652344 8.15625-8.15625v-33.992187h20.644531zm0 0" fill="#e1d3ce"/><path d="m56.898438 117.535156v101.0625c0 3.992188 3.234374 7.226563 7.222656 7.226563h100.839844c2.664062 0 5.113281-1.464844 6.371093-3.816407l40.808594-76.273437c.5625-1.050781.855469-2.21875.855469-3.410156v-24.789063c0-3.988281-3.234375-7.222656-7.226563-7.222656h-141.648437c-3.988282 0-7.222656 3.234375-7.222656 7.222656zm0 0" fill="#e63950"/><path d="m212.996094 117.539062v24.785157c0 1.1875-.289063 2.363281-.859375 3.40625l-40.804688 76.273437c-1.257812 2.355469-3.703125 3.820313-6.367187 3.820313h-21.335938c2.660156 0 5.109375-1.464844 6.367188-3.820313l40.816406-76.273437c.554688-1.042969.84375-2.21875.84375-3.40625v-24.785157c0-3.992187-3.230469-7.226562-7.222656-7.226562h21.335937c3.996094 0 7.226563 3.234375 7.226563 7.226562zm0 0" fill="#cc2e43"/><path d="m455.101562 117.535156v101.0625c0 3.992188-3.234374 7.226563-7.226562 7.226563h-100.835938c-2.664062 0-5.113281-1.464844-6.371093-3.816407l-40.8125-76.273437c-.558594-1.050781-.851563-2.21875-.851563-3.410156v-24.789063c0-3.988281 3.234375-7.222656 7.222656-7.222656h141.648438c3.992188 0 7.226562 3.234375 7.226562 7.222656zm0 0" fill="#5290d9"/><path d="m455.101562 117.539062v101.058594c0 3.996094-3.230468 7.226563-7.226562 7.226563h-17.886719c3.984375 0 7.226563-3.230469 7.226563-7.226563v-101.058594c0-3.992187-3.242188-7.226562-7.226563-7.226562h17.886719c3.996094 0 7.226562 3.234375 7.226562 7.226562zm0 0" fill="#0573cf"/></svg>