<svg enable-background="new 0 0 297 297" height="512" viewBox="0 0 297 297" width="512" xmlns="http://www.w3.org/2000/svg"><g fill="#FFB000"><path d="m148.498 83.312c-35.822 0-64.967 29.243-64.967 65.188s29.144 65.189 64.967 65.189c35.826 0 64.971-29.243 64.971-65.189s-29.145-65.188-64.971-65.188z"/><path d="m293.453 140.717-27.32-23.745 11.803-34.222c.975-2.826.676-5.936-.82-8.522-1.494-2.588-4.039-4.399-6.973-4.966l-35.541-6.862-6.863-35.54c-.566-2.936-2.377-5.479-4.965-6.975s-5.697-1.795-8.523-.82l-34.223 11.803-23.743-27.32c-1.959-2.254-4.799-3.548-7.785-3.548s-5.824 1.294-7.783 3.548l-23.744 27.319-34.223-11.802c-2.824-.975-5.934-.676-8.523.82-2.586 1.496-4.398 4.039-4.965 6.975l-6.862 35.54-35.541 6.86c-2.934.566-5.479 2.378-6.975 4.965-1.494 2.589-1.795 5.697-.82 8.522l11.803 34.226-27.318 23.744c-2.254 1.958-3.549 4.797-3.549 7.783s1.295 5.825 3.549 7.783l27.318 23.745-11.801 34.222c-.977 2.826-.676 5.936.818 8.523 1.496 2.587 4.039 4.398 6.975 4.965l35.541 6.862 6.861 35.541c.566 2.936 2.379 5.479 4.967 6.975s5.697 1.796 8.521.82l34.223-11.803 23.744 27.319c1.959 2.254 4.797 3.548 7.783 3.548s5.826-1.294 7.785-3.548l23.742-27.319 34.223 11.803c2.826.975 5.934.676 8.523-.82 2.588-1.496 4.398-4.039 4.965-6.975l6.863-35.541 35.543-6.861c2.934-.566 5.478-2.378 6.973-4.965 1.496-2.588 1.795-5.697.82-8.523l-11.803-34.224 27.32-23.743c2.254-1.958 3.547-4.797 3.547-7.783s-1.293-5.826-3.547-7.784zm-144.955 87.409c-43.783 0-79.404-35.72-79.404-79.626s35.621-79.626 79.404-79.626c43.787 0 79.408 35.72 79.408 79.626s-35.621 79.626-79.408 79.626z"/></g></svg>