<svg height="88" width="88" xmlns="http://www.w3.org/2000/svg"><circle cx="44" cy="44" fill="#001b36" r="41.6" stroke="#fc0" stroke-width="4.6"/><path d="m126.73438 92.087002h5.05859v2.832031c1.80989-2.200501 3.96483-3.30076 6.46484-3.300781 1.32811.000021 2.48045.273458 3.45703.820312.97655.546895 1.77733 1.373717 2.40235 2.480469.91144-1.106752 1.89451-1.933574 2.94922-2.480469 1.05466-.546854 2.18096-.820291 3.3789-.820312 1.52341.000021 2.81247.309265 3.86719.927734 1.05466.618509 1.84242 1.526711 2.36328 2.724609.37757.885434.56637 2.317724.56641 4.296875v13.26172h-5.48828v-11.85547c-.00003-2.057277-.18883-3.385401-.56641-3.984375-.50784-.781233-1.28909-1.171858-2.34375-1.171875-.76825.000017-1.49091.234392-2.16797.703125-.6771.468766-1.16538 1.155614-1.46484 2.060547-.2995.904961-.44924 2.333998-.44922 4.287108v9.96094h-5.48828v-11.36719c-.00002-2.018214-.0977-3.320296-.29297-3.906248-.19533-.585922-.49806-1.02212-.9082-1.308594-.41017-.286442-.96681-.429671-1.66993-.429688-.84636.000017-1.60808.227882-2.28515.683594-.6771.455745-1.16212 1.113297-1.45508 1.972656-.29298.859389-.43946 2.28517-.43945 4.27734v10.07813h-5.48828z" fill="#fff" transform="matrix(1.2756629 -1.3487733 1.3685717 1.2634987 -277.04706 105.0743)"/></svg>