<svg enable-background="new 0 0 512 512" height="512" viewBox="0 0 512 512" width="512" xmlns="http://www.w3.org/2000/svg"><path d="m386.251 74.966c8.651-27.475-21.48-50.928-45.99-35.796-.739-28.796-36.853-41.194-55.122-18.923-10.048-26.996-48.231-26.996-58.279 0-18.269-22.27-54.383-9.872-55.122 18.923-24.51-15.131-54.643 8.321-45.99 35.796-28.095-6.353-48.98 25.612-31.876 48.789l162.128 22.96 162.128-22.96c17.103-23.177-3.781-55.142-31.877-48.789z" fill="#fedd00"/><g fill="#eeeced"><path d="m174.123 169.684-8.072-11.255-40.799 5.311h-.009l-5.752 5.944-4.266 168.186 35.661 174.13h40.492l15.821-182.643z"/><path d="m337.876 169.684 8.072-11.255 40.799 5.311h.009l5.752 5.944 4.266 168.186-35.661 174.13h-40.492l-15.821-182.643z"/><path d="m279.093 149.725-23.094-3.01-23.093 3.01-25.707 179.632 25.707 182.643h46.187l25.707-182.643z"/></g><g fill="#d4d2d3"><path d="m345.948 158.429-8.072 11.254-6.401 30.902h61.817l-.784-30.902-5.752-5.943h-.009z"/><path d="m225.628 200.585h60.743l-7.278-50.861-23.094-3.01-23.093 3.01z"/><path d="m125.243 163.74-5.752 5.943-.784 30.902h61.817l-6.401-30.902-8.072-11.254-40.799 5.311z"/></g><g fill="#f9545b"><path d="m232.906 149.725v362.275h-41.528l-17.255-342.316-8.072-11.255z"/><path d="m150.886 512c-18.214 0-33.543-13.66-35.623-31.769l-35.699-310.547 45.678-5.943-5.752 5.943z"/><path d="m279.093 149.725v362.275h41.528l17.255-342.316 8.072-11.255z"/><path d="m361.113 512c18.214 0 33.543-13.66 35.623-31.769l35.699-310.547-45.678-5.943 5.751 5.943z"/></g><path d="m163.857 133.666c-5.861-15.311-19.65-60.837 7.881-94.496-24.51-15.131-54.643 8.321-45.99 35.797-28.095-6.353-48.98 25.612-31.876 48.789z" fill="#e6bb00"/><g fill="#fedd00"><path d="m207.199 90.183c-4.267 0-7.726-3.459-7.726-7.726v-8.832c0-4.267 3.459-7.726 7.726-7.726s7.726 3.459 7.726 7.726v8.832c0 4.266-3.459 7.726-7.726 7.726z"/><path d="m304.8 90.183c-4.267 0-7.726-3.459-7.726-7.726v-8.832c0-4.267 3.459-7.726 7.726-7.726s7.726 3.459 7.726 7.726v8.832c0 4.266-3.459 7.726-7.726 7.726z"/><path d="m255.999 96.71c-7.997 0-15.511-3.349-20.616-9.189-2.808-3.213-2.481-8.094.732-10.902 3.213-2.807 8.094-2.481 10.902.732 2.17 2.483 5.443 3.906 8.981 3.906s6.812-1.424 8.982-3.906c2.808-3.213 7.689-3.541 10.902-.731 3.213 2.808 3.541 7.689.731 10.902-5.102 5.839-12.616 9.188-20.614 9.188z"/></g><g fill="#e64047"><path d="m428.882 200.585 3.552-30.902-45.678-5.943 5.752 5.943-2.834 30.902z"/><path d="m174.123 169.683 1.557 30.902h57.226v-50.861l-66.855 8.705z"/><path d="m337.876 169.683-1.558 30.902h-57.225v-50.861l66.855 8.705z"/><path d="m79.564 169.683 3.552 30.902h39.209l-2.834-30.902 5.752-5.943z"/></g><path d="m432.431 123.755h-352.864c-12.682 0-22.962 10.28-22.962 22.962s10.28 22.962 22.962 22.962h352.865c12.682 0 22.962-10.28 22.962-22.962 0-12.68-10.28-22.962-22.963-22.962z" fill="#eeeced"/></svg>