<svg enable-background="new 0 0 512 512" viewBox="0 0 512 512" xmlns="http://www.w3.org/2000/svg"><path d="m394.144 138.501c0 15.716-10.459 30.727-26.175 30.727v21.622h-248.086v-23.898c-15.716 0-28.451-12.734-28.451-28.451 0-13.064 8.809-24.069 20.815-27.403-.945-2.834-1.468-5.861-1.468-9.013 0-15.716 12.734-28.451 28.451-28.451.285 0 .558.011.83.023-.535-2.197-.83-4.483-.83-6.851 0-15.716 12.734-28.451 28.451-28.451 10.14 0 19.027 5.303 24.069 13.281 4.905-4.028 11.187-6.452 18.037-6.452 5.588 0 10.788 1.616 15.193 4.392 2.242-13.463 13.941-23.738 28.052-23.738 15.17 0 27.563 11.87 28.405 26.823 3.789-1.867 8.046-2.925 12.564-2.925 12.211 0 22.635 7.704 26.663 18.516 5.201-5.781 12.745-9.411 21.133-9.411 15.716 0 28.451 12.734 28.451 28.451 0 10.231-5.394 19.187-13.497 24.206 2.81-.933 5.816-1.445 8.945-1.445 15.714-.002 28.448 12.732 28.448 28.448z" fill="#fddb87"/><path d="m156.523 190.849v-4.726c-15.716 0-28.451-12.734-28.451-28.451 0-9.846 5.003-18.523 12.608-23.627 4.146-2.783 6.747-7.343 6.739-12.337l-.001-.453c0-15.716 12.734-28.451 28.451-28.451.285 0-.236-6.774.23-10.441 1.713-13.487 13.029-24.042 26.604-24.793 7.999-.442 15.322 2.421 20.739 7.344 3.167 2.88 7.742 3.486 11.669 1.78 3.466-1.506 7.293-2.341 11.316-2.341 1.863 0 3.682.179 5.443.522 5.283 1.026 10.656-1.495 13.438-6.102 2.453-4.061 5.892-7.46 9.988-9.863 3.105-1.822 4.137-5.821 2.324-8.932-4.929-8.457-14.091-14.143-24.588-14.143-14.111 0-25.81 10.276-28.052 23.74-4.404-2.776-9.605-4.392-15.193-4.392-6.851 0-13.133 2.424-18.037 6.452-5.311-8.404-14.893-13.841-25.708-13.234-13.573.761-24.879 11.323-26.584 24.81-.462 3.661-.198 7.155.603 10.445-.273-.011-.547-.023-.83-.023-15.716 0-28.451 12.734-28.451 28.451 0 3.152.524 6.179 1.468 9.013-12.006 3.334-20.815 14.339-20.815 27.404 0 15.716 12.734 28.451 28.451 28.451v23.898h36.64v-.001z" fill="#efba5b"/><path d="m404.386 193.171v14.748l-3.676 37.918-12.256 128.233-.194.273-8.797 90.928c-1.024 11.506-10.652 20.325-22.203 20.325h-212.478c-11.54 0-21.167-8.796-22.203-20.291l-8.979-90.768-12.677-128.221-3.801-38.397v-14.748c0-13.884 10.8-25.707 24.672-26.209 14.567-.513 26.539 11.142 26.539 25.594 0-14.146 11.459-25.605 25.605-25.605s25.605 11.46 25.605 25.605c0-14.146 11.459-25.605 25.605-25.605s25.605 11.46 25.605 25.605c0-14.146 11.459-25.605 25.605-25.605s25.605 11.46 25.605 25.605c0-14.146 11.46-25.605 25.605-25.605 14.146 0 25.605 11.46 25.605 25.605 0-14.453 11.972-26.106 26.539-25.594 13.874.502 24.674 12.326 24.674 26.209z" fill="#dddbc7"/><path d="m268.537 427.422c-11.54 0-21.167-8.797-22.203-20.291l-8.979-90.768-12.677-128.22-2.085-21.065c-12.944 1.282-23.048 12.196-23.048 25.477 0-14.146-11.46-25.605-25.605-25.605s-25.605 11.459-25.605 25.605c0-14.452-11.972-26.106-26.539-25.594-13.873.5-24.672 12.325-24.672 26.209v14.749l3.801 38.396 12.677 128.22 8.979 90.768c1.035 11.494 10.663 20.291 22.203 20.291h212.479c11.551 0 21.179-8.82 22.203-20.325l3.661-37.847z" fill="#cec9a7"/><path d="m357.261 485.595c11.551 0 21.179-8.82 22.203-20.325l8.797-90.928.194-.273 12.257-128.231 3.676-37.918v-14.748c0-13.884-10.799-25.707-24.672-26.209-14.567-.512-26.539 11.142-26.539 25.594 0-1.844-19.311 293.038-19.311 293.038z" fill="#ed3124"/><path d="m383.125 427.422h-45.448c-2.243 34.212-3.812 58.172-3.812 58.172h23.396c3.61 0 7.032-.861 10.062-2.397 2.424-1.228 4.598-2.888 6.416-4.883 3.182-3.491 5.277-8.012 5.725-13.044z" fill="#e00e0e"/><path d="m165.342 485.595h43.28s-9.079-295.008-9.079-293.038c0-14.145-11.46-25.605-25.605-25.605s-25.605 11.46-25.605 25.605c0-1.632 17.009 293.038 17.009 293.038z" fill="#e00e0e"/><path d="m284.956 486.164h-34.771s.569-295.008.569-293.038c0-14.145 11.46-25.605 25.605-25.605s25.605 11.46 25.605 25.605c0-1.633-17.008 293.038-17.008 293.038z" fill="#ed3124"/><path d="m250.317 417.944c-.07 36.271-.123 63.47-.131 67.651h34.803c.22-3.809 1.542-26.712 3.36-58.172h-19.812c-7.496-.001-14.169-3.726-18.22-9.479z" fill="#e00e0e"/><path d="m443.078 262.818v95.047c0 8.319-6.748 15.067-15.067 15.067h-161.905c-.387 0-.751-.217-.945-.558l-6.669-20.279c-2.458-7.465-13.019-7.465-15.477 0l-6.669 20.279c-.194.341-.558.558-.945.558h-161.903c-8.319 0-15.067-6.748-15.067-15.067v-95.047c0-8.319 6.748-15.067 15.067-15.067h160.733c1.878 0 3.687.751 5.007 2.082l4.552 4.575c3.847 3.858 10.082 3.858 13.929 0l4.552-4.575c1.32-1.331 3.129-2.082 5.007-2.082h160.733c8.319 0 15.067 6.748 15.067 15.067z" fill="#ddd"/><path d="m250.754 262.818c0-1.974.391-3.854 1.081-5.582-2.868.316-5.847-.623-8.046-2.828l-4.552-4.575c-1.32-1.331-3.129-2.083-5.007-2.083h-160.732c-8.319 0-15.067 6.748-15.067 15.067v95.047c0 8.319 6.748 15.067 15.067 15.067h161.905c.387 0 .751-.216.945-.558l6.669-20.279c1.229-3.732 4.483-5.599 7.738-5.599v-83.677z" fill="#cccbc6"/><path d="m220.028 283.723v53.236c0 5.417-4.381 9.799-9.799 9.799h-111.275c-5.417 0-9.798-4.381-9.798-9.799v-53.236c0-5.417 4.381-9.799 9.798-9.799h111.275c5.417 0 9.799 4.382 9.799 9.799z" fill="#128ca0"/><path d="m412.352 283.723v53.236c0 5.417-4.381 9.799-9.799 9.799h-111.274c-5.417 0-9.798-4.381-9.798-9.799v-53.236c0-5.417 4.381-9.799 9.798-9.799h111.275c5.417 0 9.798 4.382 9.798 9.799z" fill="#ed3124"/><path d="m210.229 273.924h-111.275c-5.411 0-9.799 4.387-9.799 9.799v5.735h59.029c31.646 0 57.299 25.654 57.299 57.299h4.744c5.411 0 9.798-4.387 9.798-9.798v-53.236c.003-5.411-4.384-9.799-9.796-9.799z" fill="#00818e"/><path d="m402.554 273.924h-111.275c-5.411 0-9.798 4.387-9.798 9.798v5.735h59.029c31.646 0 57.299 25.654 57.299 57.299h4.744c5.411 0 9.798-4.387 9.798-9.798v-53.236c.001-5.41-4.386-9.798-9.797-9.798z" fill="#e00e0e"/><path d="m279.171 137.967c-.062 0-.123-.001-.185-.002-2.624-.063-5.037-1.451-6.409-3.688-.473-.772-1.009-1.525-1.589-2.24-1.472-1.809-2.048-4.186-1.57-6.468.479-2.281 1.961-4.227 4.036-5.293 5.374-2.762 9.268-7.695 10.683-13.536.592-2.445 2.337-4.45 4.678-5.374 2.342-.924 4.986-.651 7.087.731 3.377 2.218 7.302 3.391 11.351 3.391 1.851 0 3.704-.251 5.503-.746 2.811-.768 5.816.102 7.775 2.259 1.96 2.157 2.539 5.232 1.502 7.956-.668 1.752-1.093 3.592-1.262 5.469-.219 2.425-1.567 4.604-3.637 5.883-2.07 1.28-4.621 1.512-6.887.623-2.412-.944-4.952-1.423-7.545-1.423-6.861 0-13.266 3.393-17.138 9.077-1.444 2.119-3.839 3.381-6.393 3.381zm-89.125-12.094c-.832 0-1.669-.134-2.477-.408-2.412-.816-4.959-1.167-7.476-1.07-2.481.107-4.87-1.007-6.403-2.968-1.533-1.962-2.027-4.542-1.328-6.932.555-1.899.836-3.857.836-5.824 0-1.677-.205-3.357-.61-4.994-.581-2.347-.03-4.831 1.488-6.713 1.518-1.881 3.835-2.939 6.245-2.875l.27.009c.113.004.227.009.341.009 4.85 0 9.391-1.623 13.133-4.696 1.714-1.408 3.952-2.013 6.142-1.658 2.191.354 4.123 1.631 5.307 3.507.164.26.333.516.507.767 2.242 3.224 1.712 7.616-1.231 10.214-4.448 3.926-7.005 9.565-7.019 15.479l.008.321c.031 2.509-1.157 4.877-3.187 6.352-1.337.975-2.933 1.48-4.546 1.48z" fill="#efba5b"/><path d="m488.102 426.419c13.201 0 23.898 10.697 23.898 23.898s-10.697 23.898-23.898 23.898c-2.948 0-5.769-.558-8.376-1.537-3.983 7.67-11.972 12.917-21.213 12.917-13.201 0-23.898-10.697-23.898-23.898 0-4.757 1.411-9.173 3.801-12.905-.239-1.354-.387-2.742-.387-4.166 0-13.201 10.697-23.898 23.898-23.898 6.805 0 12.928 2.857 17.275 7.42 2.755-1.104 5.759-1.729 8.9-1.729z" fill="#fddb87"/><path d="m465.671 462.296c0-4.757 1.411-9.173 3.801-12.905-.239-1.354-.387-2.742-.387-4.165 0-7.426 3.385-14.06 8.697-18.443-4.215-3.758-9.759-6.055-15.855-6.055-13.201 0-23.898 10.697-23.898 23.898 0 1.422.147 2.811.387 4.166-2.39 3.732-3.801 8.149-3.801 12.905 0 13.201 10.697 23.898 23.898 23.898 5.768 0 11.049-2.045 15.172-5.448-4.915-4.376-8.014-10.749-8.014-17.851z" fill="#efba5b"/><path d="m396.54 444.713c9.335 9.335 9.335 24.462 0 33.797s-24.462 9.335-33.797 0c-2.084-2.084-3.685-4.474-4.836-7.009-8.24 2.607-17.599.668-24.132-5.866-9.335-9.335-9.335-24.462 0-33.797 3.363-3.363 7.483-5.488 11.813-6.438.789-1.126 1.666-2.213 2.671-3.219 9.335-9.335 24.462-9.335 33.797 0 4.812 4.812 7.121 11.161 6.969 17.462 2.726 1.166 5.293 2.848 7.515 5.07z" fill="#fddb87"/><path d="m362.761 450.363c3.363-3.363 7.483-5.488 11.813-6.438.789-1.126 1.666-2.213 2.671-3.219 3.236-3.237 7.175-5.324 11.322-6.316-.883-4.472-3.045-8.741-6.513-12.209-9.335-9.335-24.462-9.335-33.797 0-1.006 1.006-1.883 2.093-2.671 3.219-4.33.95-8.45 3.073-11.813 6.438-9.335 9.335-9.335 24.462 0 33.797 6.095 6.095 14.647 8.189 22.458 6.326-1.512-7.57.66-15.729 6.53-21.598z" fill="#efba5b"/><path d="m77.385 444.626c0 4.757-1.411 9.173-3.801 12.905.239 1.354.387 2.742.387 4.166 0 13.201-10.697 23.898-23.898 23.898-6.805 0-12.928-2.857-17.275-7.419-2.754 1.104-5.758 1.73-8.899 1.73-13.202 0-23.899-10.699-23.899-23.899s10.697-23.898 23.898-23.898c2.948 0 5.769.558 8.376 1.537 3.983-7.67 11.972-12.917 21.213-12.917 13.201-.001 23.898 10.697 23.898 23.897z" fill="#fddb87"/><path d="m30.737 471.617c0-13.201 10.697-23.898 23.898-23.898 2.948 0 5.769.558 8.376 1.537 2.793-5.378 7.561-9.556 13.344-11.578-2.976-9.809-12.085-16.948-22.869-16.948-9.241 0-17.23 5.246-21.213 12.917-2.606-.979-5.428-1.537-8.376-1.537-13.2-.001-23.897 10.696-23.897 23.897s10.697 23.898 23.898 23.898c2.753 0 5.401-.482 7.867-1.343-.666-2.198-1.028-4.529-1.028-6.945z" fill="#efba5b"/></svg>