<svg enable-background="new 0 0 504 504" viewBox="0 0 504 504" xmlns="http://www.w3.org/2000/svg"><path d="m235.2 66.4-27.2 8.8-22.4-41.6 16-11.2 8.8 7.2-4-24 36.8-5.6 2.4 19.2 6.4-5.6v52.8z" fill="#4dc430"/><path d="m268.8 66.4 27.2 8.8 22.4-41.6-16-11.2-8.8 7.2 4-24-36.8-5.6-2.4 19.2-6.4-5.6v52.8z" fill="#3aad1a"/><circle cx="252" cy="274.4" fill="#ff4800" r="229.6"/><path d="m252 44.8c126.4 0 229.6 102.4 229.6 229.6 0 126.4-102.4 229.6-229.6 229.6" fill="#c92b00"/><circle cx="252" cy="274.4" fill="#ff794a" r="182.4"/><path d="m252 92c100.8 0 182.4 81.6 182.4 182.4s-81.6 182.4-182.4 182.4" fill="#ef683f"/><circle cx="252" cy="274.4" fill="#b21010" r="146.4"/><path d="m252 128c80.8 0 146.4 65.6 146.4 146.4s-65.6 146.4-146.4 146.4" fill="#a00000"/><path d="m220 116h64v312h-64z" fill="#ef683f"/><path d="m220 116h32v312h-32z" fill="#ff794a"/><circle cx="252" cy="274.4" fill="#ff794a" r="56"/><path d="m252 218.4c31.2 0 56 25.6 56 56 0 31.2-24.8 56-56 56" fill="#ef683f"/><g fill="#ffcd50"><path d="m169.6 205.6 28 15.2-8-32.8c-.8 0-1.6-2.4-2.4-4-4.8-6.4-13.6-6.4-19.2-2.4-6.4 4.8-7.2 13.6-2.4 20 .8 1.6 2.4 3.2 4 4z"/><path d="m149.6 255.2 32.8-.8-23.2-22.4c-1.6-1.6-3.2-2.4-4.8-3.2-7.2-3.2-15.2.8-18.4 8-2.4 7.2.8 15.2 8 18.4 1.6-.8 3.2 0 5.6 0z"/><path d="m158.4 312 24-22.4-32.8-1.6c-1.6 0-4 0-5.6.8-7.2 2.4-11.2 10.4-8 17.6 2.4 7.2 10.4 11.2 17.6 8 1.6 0 3.2-.8 4.8-2.4z"/><path d="m189.6 358.4 8-31.2-28 16c-1.6.8-3.2 2.4-4.8 4-4.8 6.4-3.2 15.2 2.4 19.2 6.4 4.8 15.2 3.2 19.2-2.4 2.4-1.6 3.2-4 3.2-5.6z"/><path d="m334.4 205.6-28 15.2 8-32.8c.8 0 1.6-2.4 2.4-4 4.8-6.4 13.6-6.4 19.2-2.4 6.4 4.8 7.2 13.6 2.4 20-.8 1.6-2.4 3.2-4 4z"/><path d="m354.4 255.2-32.8-.8 23.2-22.4c1.6-1.6 3.2-2.4 4.8-3.2 7.2-3.2 15.2.8 18.4 8 2.4 7.2-.8 15.2-8 18.4-1.6-.8-3.2 0-5.6 0z"/><path d="m345.6 312-24-22.4 32.8-1.6c1.6 0 4 0 5.6.8 7.2 2.4 11.2 10.4 8 17.6-2.4 7.2-10.4 11.2-17.6 8-1.6 0-3.2-.8-4.8-2.4z"/><path d="m314.4 358.4-8-31.2 28 16c1.6.8 3.2 2.4 4.8 4 4.8 6.4 3.2 15.2-2.4 19.2-6.4 4.8-15.2 3.2-19.2-2.4-2.4-1.6-3.2-4-3.2-5.6z"/></g></svg>