<?xml version="1.0"?>
<svg xmlns="http://www.w3.org/2000/svg" xmlns:xlink="http://www.w3.org/1999/xlink" xmlns:svgjs="http://svgjs.com/svgjs" version="1.1" width="512" height="512" x="0" y="0" viewBox="0 0 497 497" style="enable-background:new 0 0 512 512" xml:space="preserve" class=""><g><g xmlns="http://www.w3.org/2000/svg"><path d="m223 336.999h52v72h-52z" fill="#4281da" data-original="#586279" style="" class=""/><path d="m491.512 63.285h-486.024c-2.94-.29-5.488 2.013-5.488 4.967v292.971c0 2.954 2.548 5.257 5.488 4.967h486.023c2.94.29 5.488-2.012 5.488-4.967v-292.971c.001-2.954-2.547-5.257-5.487-4.967z" fill="#4281da" data-original="#586279" style="" class=""/><path d="m30 102.227c0-3.514 3.004-6.267 6.505-5.969h423.99c3.501-.297 6.505 2.456 6.505 5.969v225.021c0 3.514-3.004 6.267-6.505 5.969h-423.99c-3.501.297-6.505-2.456-6.505-5.969z" fill="#1d3856" data-original="#586279" style="" class=""/><path d="m50 102.229v225.02c0 1.9.89 3.59 2.26 4.68-5.26.41-10.51.84-15.76 1.29-3.5.3-6.5-2.46-6.5-5.97v-225.02c0-3.52 3-6.27 6.5-5.97 5.25.45 10.5.88 15.76 1.28-1.37 1.09-2.26 2.78-2.26 4.69z" fill="#1d3856" data-original="#586279" style="" class=""/><path d="m379 433.738h-260c-8.882-.014-10.817-8.792-10-16.014 0-5.111 3.853-9.399 8.935-9.943l105.497-11.303c16.997-1.821 34.139-1.821 51.136 0l105.497 11.303c5.081.544 8.935 4.833 8.935 9.943v6.014c0 5.523-4.477 10-10 10z" fill="#4281da" data-original="#586279" style="" class=""/><g fill="#586279"><path d="m139.67 433.739h-20.67c-8.88-.02-10.82-8.79-10-16.02 0-5.11 3.85-9.39 8.93-9.94l15.17-1.62c-2.11 2.15-3.43 5.32-3.43 8.82-.82 8.46 1.12 18.74 10 18.76z" fill="#4281da" data-original="#586279" style="" class=""/><path d="m14.5 64.159v301.16c-3 .28-6 .57-9.01.87-2.94.29-5.49-2.01-5.49-4.97v-292.97c0-2.95 2.55-5.25 5.49-4.96 3.01.3 6.01.59 9.01.87z" fill="#4281da" data-original="#586279" style="" class=""/></g></g><script/></g></svg>
