<?xml version="1.0" encoding="utf-8"?>
<svg width="800px" height="800px" viewBox="0 0 24 24" fill="none" xmlns="http://www.w3.org/2000/svg">
<path d="M21.6907 4.8866C21.5876 3.54639 20.5567 2.41237 19.1134 2.30928C17.0515 2.10309 14.1649 2 12 2C9.83505 2 6.94845 2.10309 4.8866 2.30928C4.16495 2.30928 3.54639 2.61856 3.13402 3.13402C2.72165 3.64948 2.41237 4.16495 2.30928 4.8866C2.10309 6.94845 2 9.83505 2 12C2 14.1649 2.20619 17.0515 2.30928 19.1134C2.41237 20.4536 3.4433 21.5876 4.8866 21.6907C6.94845 21.8969 9.83505 22 12 22C14.1649 22 17.0515 21.7938 19.1134 21.6907C20.4536 21.5876 21.5876 20.5567 21.6907 19.1134C21.8969 17.0515 22 14.1649 22 12C22 9.83505 21.8969 6.94845 21.6907 4.8866Z" fill="#DC143C"/>
<path d="M16.6392 11.4845L13.2371 14.8866C12.9278 15.1959 12.4124 15.4021 12 15.4021C11.5876 15.4021 11.0722 15.1959 10.7629 14.8866L7.36082 11.4845C7.05155 11.1753 7.05155 10.6598 7.36082 10.3505C7.6701 10.0412 8.18557 10.0412 8.49485 10.3505L11.8969 13.7526C12 13.8557 12.2062 13.8557 12.3093 13.7526L15.7113 10.3505C16.0206 10.0412 16.5361 10.0412 16.8454 10.3505C16.9485 10.7629 16.9485 11.1753 16.6392 11.4845Z" fill="#fff"/>
</svg>
