<?xml version="1.0" encoding="utf-8"?>
<svg width="800px" height="800px" viewBox="0 0 24 24" fill="none" xmlns="http://www.w3.org/2000/svg">
<path d="M12 2C6.4898 2 2 6.4898 2 12C2 17.5102 6.4898 22 12 22C17.5102 22 22 17.5102 22 12C22 6.4898 17.5102 2 12 2Z" fill="#DC143C"/>
<path d="M11.1837 8.42857C11.1837 8.02041 11.4898 7.61225 12 7.61225C12.5102 7.61225 12.8163 7.91837 12.8163 8.42857V12.5102C12.8163 12.9184 12.5102 13.3265 12 13.3265C11.4898 13.3265 11.1837 13.0204 11.1837 12.5102V8.42857Z" fill="#fff"/>
<path d="M12 16.5918C11.4898 16.5918 10.9796 16.0816 10.9796 15.5714C10.9796 15.0612 11.4898 14.551 12 14.551C12.5102 14.551 13.0204 15.0612 13.0204 15.5714C13.0204 16.0816 12.5102 16.5918 12 16.5918Z" fill="#fff"/>
</svg>
