<svg xmlns="http://www.w3.org/2000/svg" xmlns:xlink="http://www.w3.org/1999/xlink" version="1.1" width="50" height="50"
     viewBox="0 0 50 50" xml:space="preserve">
    <g transform="matrix(1.5367 0 0 1.5367 24.9997 24.9997)" id="210356">
        <path style="stroke: none; stroke-width: 1; stroke-dasharray: none; stroke-linecap: butt; stroke-dashoffset: 0; stroke-linejoin: miter; stroke-miterlimit: 4; is-custom-font: none; font-file-url: none; fill: rgb(220,20,60); fill-rule: nonzero; opacity: 1;"
              vector-effect="non-scaling-stroke" transform=" translate(-16.0375, -16)"
              d="M 27.3 4.7 c -6.2 -6.2 -16.4 -6.2 -22.6 0 c -6.2 6.2 -6.2 16.4 0 22.6 c 6.2 6.2 16.4 6.2 22.6 0 C 33.6 21.1 33.6 10.9 27.3 4.7 z M 24.5 7.5 c 4.2 4.2 4.6 10.7 1.3 15.4 L 9.1 6.2 C 13.7 2.9 20.3 3.3 24.5 7.5 z M 7.5 24.5 C 3.3 20.3 2.9 13.7 6.2 9.1 l 16.7 16.7 C 18.3 29.1 11.7 28.7 7.5 24.5 z"
              stroke-linecap="round"/>
    </g>
</svg>
