<?xml version="1.0"?>
<svg xmlns="http://www.w3.org/2000/svg" xmlns:xlink="http://www.w3.org/1999/xlink" xmlns:svgjs="http://svgjs.com/svgjs" version="1.1" width="512" height="512" x="0" y="0" viewBox="0 0 512 512" style="enable-background:new 0 0 512 512" xml:space="preserve" class=""><g>
<g xmlns="http://www.w3.org/2000/svg">
	<g>
		<path d="M484.078,27.923C466.072,9.917,442.131,0.001,416.666,0.002L95.334,0C42.766,0.002,0,42.769,0,95.333v321.333    C0,469.233,42.768,512,95.334,512h321.332C469.233,512,512,469.233,512,416.666V95.335C512,69.87,502.084,45.929,484.078,27.923z     M165.865,217.494c5.857-5.857,15.354-5.857,21.213,0L241,271.416l-0.002-160.017c0-8.284,6.716-15,15-15c8.285,0,15,6.716,15,15    L271,271.412l53.918-53.92c5.857-5.857,15.355-5.857,21.213,0c5.858,5.857,5.858,15.355,0.001,21.213l-79.526,79.528    c-2.814,2.814-6.629,4.394-10.607,4.394c-3.977,0-7.793-1.58-10.605-4.394l-79.527-79.526    C160.007,232.85,160.007,223.352,165.865,217.494z M400.602,415.6H111.4c-8.283,0-15-6.716-15-15s6.717-15,15-15h289.201    c8.283,0,15,6.716,15,15C415.602,408.884,408.885,415.6,400.602,415.6z" fill="#319bc2" data-original="#000000" style="" class=""/>
	</g>
</g>
<g xmlns="http://www.w3.org/2000/svg">
</g>
<g xmlns="http://www.w3.org/2000/svg">
</g>
<g xmlns="http://www.w3.org/2000/svg">
</g>
<g xmlns="http://www.w3.org/2000/svg">
</g>
<g xmlns="http://www.w3.org/2000/svg">
</g>
<g xmlns="http://www.w3.org/2000/svg">
</g>
<g xmlns="http://www.w3.org/2000/svg">
</g>
<g xmlns="http://www.w3.org/2000/svg">
</g>
<g xmlns="http://www.w3.org/2000/svg">
</g>
<g xmlns="http://www.w3.org/2000/svg">
</g>
<g xmlns="http://www.w3.org/2000/svg">
</g>
<g xmlns="http://www.w3.org/2000/svg">
</g>
<g xmlns="http://www.w3.org/2000/svg">
</g>
<g xmlns="http://www.w3.org/2000/svg">
</g>
<g xmlns="http://www.w3.org/2000/svg">
</g>
</g></svg>
