<?xml version="1.0"?>
<svg xmlns="http://www.w3.org/2000/svg" xmlns:xlink="http://www.w3.org/1999/xlink" xmlns:svgjs="http://svgjs.com/svgjs" version="1.1" width="512" height="512" x="0" y="0" viewBox="0 0 483.319 483.319" style="enable-background:new 0 0 512 512" xml:space="preserve" class=""><g>
<path xmlns="http://www.w3.org/2000/svg" style="" d="M385.657,161.659h-128l72-152h-152l-48,216h104l-96,216L385.657,161.659z" fill="#efcc26" data-original="#fae249" class=""/>
<g xmlns="http://www.w3.org/2000/svg">
	<path style="" d="M1.657,233.659h80v16h-80V233.659z" fill="#efcc26" data-original="#fad905" class=""/>
	<path style="" d="M401.657,233.659h80v16h-80V233.659z" fill="#efcc26" data-original="#fad905" class=""/>
	<path style="" d="M416.006,60.002l56-56l11.313,11.313l-56,56L416.006,60.002z" fill="#efcc26" data-original="#fad905" class=""/>
	<path style="" d="M0.036,460.004l56-56l11.313,11.313l-56,56L0.036,460.004z" fill="#efcc26" data-original="#fad905" class=""/>
	<path style="" d="M416.003,423.319l11.313-11.313l56,56l-11.313,11.313L416.003,423.319z" fill="#efcc26" data-original="#fad905" class=""/>
	<path style="" d="M0,15.312L11.313,3.999l56,56L56,71.312L0,15.312z" fill="#efcc26" data-original="#fad905" class=""/>
</g>
<g xmlns="http://www.w3.org/2000/svg">
</g>
<g xmlns="http://www.w3.org/2000/svg">
</g>
<g xmlns="http://www.w3.org/2000/svg">
</g>
<g xmlns="http://www.w3.org/2000/svg">
</g>
<g xmlns="http://www.w3.org/2000/svg">
</g>
<g xmlns="http://www.w3.org/2000/svg">
</g>
<g xmlns="http://www.w3.org/2000/svg">
</g>
<g xmlns="http://www.w3.org/2000/svg">
</g>
<g xmlns="http://www.w3.org/2000/svg">
</g>
<g xmlns="http://www.w3.org/2000/svg">
</g>
<g xmlns="http://www.w3.org/2000/svg">
</g>
<g xmlns="http://www.w3.org/2000/svg">
</g>
<g xmlns="http://www.w3.org/2000/svg">
</g>
<g xmlns="http://www.w3.org/2000/svg">
</g>
<g xmlns="http://www.w3.org/2000/svg">
</g>
<script/></g></svg>
