<svg height="512" viewBox="0 0 60 60" width="512" xmlns="http://www.w3.org/2000/svg"><g id="002---Global-Language" fill="none"><g id="Icons" transform="translate(1 1)"><path id="Shape" d="m50 33c0 14.88-12.91 26-26.5 25-13.1671239-.8340136-23.41965194-11.7564891-23.41965194-24.95s10.25252804-24.11598643 23.41965194-24.95c13.63-1.1 26.5 10.04 26.5 24.9z" fill="#0377bc"/><ellipse id="Oval" cx="23.5" cy="33" fill="#02a9f4" rx="23.5" ry="24.95"/><path id="Shape" d="m58 3v20c0 1.6568542-1.3431458 3-3 3h-16l-12 8v-6c0-1.1045695-.8954305-2-2-2-1.6568542 0-3-1.3431458-3-3v-20c0-1.65685425 1.3431458-3 3-3h30c1.6568542 0 3 1.34314575 3 3z" fill="#fec108"/><path id="Shape" d="m55 3v20c0 1.6568542-1.3431458 3-3 3h-16l-9 6v-4c0-1.1045695-.8954305-2-2-2-1.6568542 0-3-1.3431458-3-3v-20c0-1.65685425 1.3431458-3 3-3h27c1.6568542 0 3 1.34314575 3 3z" fill="#ffdc00"/></g><g id="Layer_2" fill="#000" transform="translate(-1)"><path id="Shape" d="m57 0h-30c-2.209139 0-4 1.790861-4 4v4.34c-20.32 3.11-29.23 27.81-15.19 43.18 0 0 .08.06.11.1 11.28 11.62 28.31 10.65 38.17 0 0 0 .06 0 .08-.07 5.8347644-6.3408664 8.1293844-15.1706542 6.12-23.55h4.71c2.209139 0 4-1.790861 4-4v-20c0-2.209139-1.790861-4-4-4zm-20.09 30.93c0 .68.06 1.37.07 2.07h-3.18zm14.09 4.07c-.2155988 5.3806073-2.2457112 10.5299029-5.76 14.61-2.3382088-1.4991628-4.9052229-2.607032-7.6-3.28.8659369-3.7156324 1.3219935-7.5149867 1.36-11.33zm-48 0h12c.0445649 3.8157499.5073295 7.6151138 1.38 11.33-2.6947771.672968-5.2617912 1.7808372-7.6 3.28-3.52152666-4.0773776-5.55879759-9.22695-5.78-14.61zm5.79-16.61c2.3462686 1.5066062 4.9238398 2.6180361 7.63 3.29-.8870852 3.7098311-1.3632838 7.506006-1.42 11.32h-12c.22634637-5.383774 2.26690224-10.5327414 5.79-14.61zm14.21 2.41c-1.3833132-.1241582-2.7587324-.3244619-4.12-.6.7724387-2.9567258 2.1782112-5.7102658 4.12-8.07zm-6.07-1.06c-2.3830197-.5879591-4.6601919-1.5426846-6.75-2.83 3.1731384-3.1335494 7.1603367-5.3159429 11.51-6.3-2.2707332 2.6347074-3.9000183 5.7597858-4.76 9.13zm0 28.52c.8722235 3.3725736 2.5076216 6.4996738 4.78 9.14-4.3603368-.9846935-8.3578833-3.1705269-11.54-6.31 2.0889816-1.2819564 4.3620082-2.2363578 6.74-2.83zm2-.45c5.3594523-1.0801406 10.8805477-1.0801406 16.24 0-4.12 13.56-12.17 13.58-16.29 0zm18.21.45c2.3779918.5936422 4.6510184 1.5480436 6.74 2.83-3.1903786 3.1443512-7.198948 5.3305286-11.57 6.31 2.2723784-2.6403262 3.9077765-5.7674264 4.78-9.14zm-1.45-2.38c-5.7006589-1.1692816-11.5793411-1.1692816-17.28 0-.8649703-3.564468-1.3377775-7.2127954-1.41-10.88h11c0 .5522847.4477153 1 1 1 .38 0 .45-.1 1.8-1h6.2c-.0558367 3.6653669-.5118745 7.3136692-1.36 10.88zm-7.69-12.88h-11c.0470458-3.6608963.4930131-7.305757 1.33-10.87 1.5319689.3176008 3.0813203.5446609 4.64.68v1.19c0 2.209139 1.790861 4 4 4 .5522847 0 1 .4477153 1 1zm23 0h-12c0-1.14-.07-2.26-.15-3.35l2.45-1.65h8.92c.4399047 1.6335862.7014323 3.3100452.78 5zm8-9c0 1.1045695-.8954305 2-2 2h-16c-.44 0 .43-.49-11 7.13v-4.13c0-1.6568542-1.3431458-3-3-3-1.1045695 0-2-.8954305-2-2v-20c0-1.1045695.8954305-2 2-2h30c1.1045695 0 2 .8954305 2 2z"/><path id="Shape" d="m34.5 5c-3.0352835.0055037-5.4944963 2.46471651-5.5 5.5v6.5c0 .5522847.4477153 1 1 1s1-.4477153 1-1v-4h7v4c0 .5522847.4477153 1 1 1s1-.4477153 1-1v-6.5c-.0055037-3.03528349-2.4647165-5.4944963-5.5-5.5zm-3.5 6v-.5c0-1.93299662 1.5670034-3.5 3.5-3.5s3.5 1.56700338 3.5 3.5v.5z"/><path id="Shape" d="m55 12h-4v-2c0-.55228475-.4477153-1-1-1s-1 .44771525-1 1v2h-4c-.5522847 0-1 .4477153-1 1s.4477153 1 1 1h7c.0739433 1.9145063-.5199521 3.7951752-1.68 5.32-.11.12-.24.21-.36.32-.8338804-.7853738-1.4211031-1.7965086-1.69-2.91-.1461291-.5282319-.6902208-.8404156-1.22-.7-.2578875.067951-.4779489.2360982-.6112738.4670696s-.1688668.5056298-.0987262.7629304c.3222175 1.2628926.9390644 2.4314747 1.8 3.41-.6930965.2151901-1.4142751.3263999-2.14.33-.5522847 0-1 .4477153-1 1s.4477153 1 1 1c1.3877979.0294185 2.7615142-.2831019 4-.91 1.2390433.6253511 2.6123688.9377827 4 .91.5522847 0 1-.4477153 1-1s-.4477153-1-1-1c-.7390031.0090842-1.4747825-.0989201-2.18-.32 1.5108069-1.8896442 2.2853242-4.2629358 2.18-6.68h1c.5522847 0 1-.4477153 1-1s-.4477153-1-1-1z"/></g></g></svg>