<svg xmlns="http://www.w3.org/2000/svg" xmlns:xlink="http://www.w3.org/1999/xlink" version="1.1" width="50" height="50"
     viewBox="0 0 50 50" xml:space="preserve">
    <g transform="matrix(1.8762 0 0 1.8762 25 25)" id="554928">
        <path style="stroke: none; stroke-width: 1; stroke-dasharray: none; stroke-linecap: butt; stroke-dashoffset: 0; stroke-linejoin: miter; stroke-miterlimit: 4; is-custom-font: none; font-file-url: none; fill: rgb(21,126,251); fill-rule: evenodd; opacity: 1;"
              vector-effect="non-scaling-stroke" transform=" translate(-16, -16)"
              d="M 8.10869891 20.8913011 C 4.61720816 18.8301147 3 16 3 16 C 3 16 7 9 16 9 C 17.3045107 9 18.5039752 9.14706466 19.6014388 9.39856122 L 16.8986531 12.1013469 C 16.6097885 12.0350342 16.3089856 12 16 12 C 13.7908609 12 12 13.7908609 12 16 C 12 16.3089856 12.0350342 16.6097885 12.1013469 16.8986531 L 8.10869891 20.8913011 L 8.10869891 20.8913011 L 8.10869891 20.8913011 Z M 12.398561 22.601439 C 13.4960246 22.8529356 14.6954892 23.0000001 16 23 C 25 22.999999 29 16 29 16 C 29 16 27.3827918 13.1698856 23.8913008 11.1086992 L 19.8986531 15.1013469 C 19.9649658 15.3902115 20 15.6910144 20 16 C 20 18.2091391 18.2091391 20 16 20 C 15.6910144 20 15.3902115 19.9649658 15.1013469 19.8986531 L 12.398561 22.601439 L 12.398561 22.601439 L 12.398561 22.601439 Z M 19 16 C 19.0000001 16.7677669 18.7071068 17.5355339 18.1213203 18.1213203 C 17.5355339 18.7071068 16.7677669 19.0000001 16 19 L 19 16 L 19 16 L 19 16 Z M 16 13 C 15.2322331 12.9999999 14.4644661 13.2928932 13.8786797 13.8786797 C 13.2928932 14.4644661 12.9999999 15.2322331 13 16 L 16 13 L 16 13 L 16 13 Z M 24 7 L 7 24 L 8 25 L 25 8 L 24 7 L 24 7 Z"
              stroke-linecap="round"/>
    </g>
</svg>
