<svg xmlns="http://www.w3.org/2000/svg" xmlns:xlink="http://www.w3.org/1999/xlink" version="1.1" width="50" height="50"
     viewBox="0 0 50 50" xml:space="preserve">
    <g transform="matrix(2.0688 0 0 2.0688 25.0002 25.0002)" id="401497">
        <g style="" vector-effect="non-scaling-stroke">
            <g transform="matrix(1 0 0 1 0 -5)">
                <path style="stroke: none; stroke-width: 1; stroke-dasharray: none; stroke-linecap: butt; stroke-dashoffset: 0; stroke-linejoin: miter; stroke-miterlimit: 4; is-custom-font: none; font-file-url: none; fill: rgb(127,140,141); fill-rule: nonzero; opacity: 1;"
                      transform=" translate(-12, -1035.4)"
                      d="m 12 1031.4 c -2.7614 0 -5 2.6 -5 6 v 1 c 0 0.5 0.3731 1 0.8333 1 c 0.4603 0 0.8334 -0.5 0.8334 -1 v -1 c 0 -2.4 1.4923 -4.3 3.3333 -4.3 s 3.333 1.9 3.333 4.3 v 1 c 0 0.5 0.373 1 0.834 1 c 0.46 0 0.833 -0.5 0.833 -1 v -1 c 0 -3.4 -2.239 -6 -5 -6 z"
                      stroke-linecap="round"/>
            </g>
            <g transform="matrix(1 0 0 1 0 2.5)">
                <path style="stroke: none; stroke-width: 1; stroke-dasharray: none; stroke-linecap: butt; stroke-dashoffset: 0; stroke-linejoin: miter; stroke-miterlimit: 4; is-custom-font: none; font-file-url: none; fill: rgb(241,196,15); fill-rule: nonzero; opacity: 1;"
                      transform=" translate(-12, -1042.9)"
                      d="m 6 1037.4 c -1.1046 0 -2 0.9 -2 2 v 7 c 0 1.1 0.8954 2 2 2 h 12 c 1.105 0 2 -0.9 2 -2 v -7 c 0 -1.1 -0.895 -2 -2 -2 h -12 z"
                      stroke-linecap="round"/>
            </g>
            <g transform="matrix(1 0 0 1 0 -6.5)">
                <path style="stroke: none; stroke-width: 1; stroke-dasharray: none; stroke-linecap: butt; stroke-dashoffset: 0; stroke-linejoin: miter; stroke-miterlimit: 4; is-custom-font: none; font-file-url: none; fill: rgb(189,195,199); fill-rule: nonzero; opacity: 1;"
                      transform=" translate(-12, -1033.9)"
                      d="m 12 1029.9 c -3.3137 0 -6 2.7 -6 6 v 1 c 0 0.6 0.4477 1 1 1 s 1 -0.4 1 -1 v -1 c 0 -2.3 1.7909 -4.2 4 -4.2 c 2.209 0 4 1.9 4 4.2 v 1 c 0 0.6 0.448 1 1 1 s 1 -0.4 1 -1 v -1 c 0 -3.3 -2.686 -6 -6 -6 z"
                      stroke-linecap="round"/>
            </g>
            <g transform="matrix(1 0 0 1 0 4.5)">
                <path style="stroke: none; stroke-width: 1; stroke-dasharray: none; stroke-linecap: butt; stroke-dashoffset: 0; stroke-linejoin: miter; stroke-miterlimit: 4; is-custom-font: none; font-file-url: none; fill: rgb(243,156,18); fill-rule: nonzero; opacity: 1;"
                      transform=" translate(-12, -1044.9)"
                      d="m 6 1039.4 c -1.1046 0 -2 0.9 -2 2 v 7 c 0 1.1 0.8954 2 2 2 h 12 c 1.105 0 2 -0.9 2 -2 v -7 c 0 -1.1 -0.895 -2 -2 -2 h -12 z"
                      stroke-linecap="round"/>
            </g>
            <g transform="matrix(1 0 0 1 -4.6574 -2.15)">
                <path style="stroke: none; stroke-width: 1; stroke-dasharray: none; stroke-linecap: butt; stroke-dashoffset: 0; stroke-linejoin: miter; stroke-miterlimit: 4; is-custom-font: none; font-file-url: none; fill: rgb(127,140,141); fill-rule: nonzero; opacity: 1;"
                      transform=" translate(-7.3426, -1038.25)"
                      d="m 6.327 1037.4 c -0.3403 0 -0.6569 0.1 -0.9375 0.2 c 0.222 0.9 1.0056 1.5 1.9375 1.5 c 1.0193 0 1.845 -0.8 1.9688 -1.7 h -2.9688 z"
                      stroke-linecap="round"/>
            </g>
            <g transform="matrix(1 0 0 1 4.776 -2.2)">
                <path style="stroke: none; stroke-width: 1; stroke-dasharray: none; stroke-linecap: butt; stroke-dashoffset: 0; stroke-linejoin: miter; stroke-miterlimit: 4; is-custom-font: none; font-file-url: none; fill: rgb(127,140,141); fill-rule: nonzero; opacity: 1;"
                      transform=" translate(-16.776, -1038.2)"
                      d="m 17.792 1037.3 c 0.34 0 0.657 0.1 0.937 0.3 c -0.222 0.8 -1.005 1.5 -1.937 1.5 c -1.02 0 -1.845 -0.8 -1.969 -1.8 h 2.969 z"
                      stroke-linecap="round"/>
            </g>
            <g transform="matrix(1 0 0 1 0 -6)">
                <path style="stroke: none; stroke-width: 1; stroke-dasharray: none; stroke-linecap: butt; stroke-dashoffset: 0; stroke-linejoin: miter; stroke-miterlimit: 4; is-custom-font: none; font-file-url: none; fill: rgb(149,165,166); fill-rule: nonzero; opacity: 1;"
                      transform=" translate(-12, -1034.4)"
                      d="m 12 1030.4 c -3.3137 0 -6 2.6 -6 6 v 1 c 0 0.5 0.4477 1 1 1 s 1 -0.5 1 -1 v -1 c 0 -2.4 1.7909 -4.3 4 -4.3 c 2.209 0 4 1.9 4 4.3 v 1 c 0 0.5 0.448 1 1 1 s 1 -0.5 1 -1 v -1 c 0 -3.4 -2.686 -6 -6 -6 z"
                      stroke-linecap="round"/>
            </g>
            <g transform="matrix(1 0 0 1 0 1.5)">
                <rect style="stroke: none; stroke-width: 1; stroke-dasharray: none; stroke-linecap: butt; stroke-dashoffset: 0; stroke-linejoin: miter; stroke-miterlimit: 4; is-custom-font: none; font-file-url: none; fill: rgb(230,126,34); fill-rule: nonzero; opacity: 1;"
                      x="-6" y="-0.5" rx="0" ry="0" width="12" height="1"/>
            </g>
            <g transform="matrix(1 0 0 1 0 3.5)">
                <rect style="stroke: none; stroke-width: 1; stroke-dasharray: none; stroke-linecap: butt; stroke-dashoffset: 0; stroke-linejoin: miter; stroke-miterlimit: 4; is-custom-font: none; font-file-url: none; fill: rgb(230,126,34); fill-rule: nonzero; opacity: 1;"
                      x="-6" y="-0.5" rx="0" ry="0" width="12" height="1"/>
            </g>
            <g transform="matrix(1 0 0 1 0 5.5)">
                <rect style="stroke: none; stroke-width: 1; stroke-dasharray: none; stroke-linecap: butt; stroke-dashoffset: 0; stroke-linejoin: miter; stroke-miterlimit: 4; is-custom-font: none; font-file-url: none; fill: rgb(230,126,34); fill-rule: nonzero; opacity: 1;"
                      x="-6" y="-0.5" rx="0" ry="0" width="12" height="1"/>
            </g>
            <g transform="matrix(1 0 0 1 0 7.5)">
                <rect style="stroke: none; stroke-width: 1; stroke-dasharray: none; stroke-linecap: butt; stroke-dashoffset: 0; stroke-linejoin: miter; stroke-miterlimit: 4; is-custom-font: none; font-file-url: none; fill: rgb(230,126,34); fill-rule: nonzero; opacity: 1;"
                      x="-6" y="-0.5" rx="0" ry="0" width="12" height="1"/>
            </g>
        </g>
    </g>
</svg>
