<?xml version="1.0"?>
<svg xmlns="http://www.w3.org/2000/svg" xmlns:xlink="http://www.w3.org/1999/xlink" xmlns:svgjs="http://svgjs.com/svgjs" version="1.1" width="512" height="512" x="0" y="0" viewBox="0 0 512 512" style="enable-background:new 0 0 512 512" xml:space="preserve" class=""><g><script/>
<g xmlns="http://www.w3.org/2000/svg">
	<g>
		<path d="M437.333,74.667H74.667C33.493,74.667,0,108.16,0,149.333v213.333c0,41.173,33.493,74.667,74.667,74.667h362.667    c41.173,0,74.667-33.493,74.667-74.667V149.333C512,108.16,478.507,74.667,437.333,74.667z M192,298.667    c0,4.587-2.944,8.661-7.296,10.112c-1.109,0.384-2.24,0.555-3.371,0.555c-3.285,0-6.485-1.536-8.533-4.267L128,245.333v53.333    c0,5.888-4.779,10.667-10.667,10.667s-10.667-4.779-10.667-10.667v-85.333c0-4.587,2.944-8.661,7.296-10.112    c4.352-1.472,9.152,0.043,11.904,3.712l44.8,59.733v-53.333c0-5.888,4.779-10.667,10.667-10.667S192,207.445,192,213.333V298.667z     M266.667,245.333c5.888,0,10.667,4.779,10.667,10.667c0,5.888-4.779,10.667-10.667,10.667h-32V288h32    c5.888,0,10.667,4.779,10.667,10.667s-4.779,10.667-10.667,10.667H224c-5.888,0-10.667-4.779-10.667-10.667v-85.333    c0-5.888,4.779-10.667,10.667-10.667h42.667c5.888,0,10.667,4.779,10.667,10.667S272.555,224,266.667,224h-32v21.333H266.667z     M405.013,215.915l-21.333,85.333c-1.152,4.608-5.205,7.893-9.941,8.064c-0.149,0-0.299,0-0.427,0    c-4.587,0-8.661-2.923-10.133-7.296L352,268.395l-11.2,33.643c-1.493,4.48-5.12,7.488-10.539,7.275    c-4.736-0.171-8.789-3.477-9.941-8.064l-21.333-85.333c-1.408-5.717,2.048-11.499,7.765-12.928    c5.632-1.451,11.499,2.027,12.928,7.765l12.437,49.792l9.749-29.248c2.923-8.704,17.344-8.704,20.245,0l9.749,29.248    l12.437-49.792c1.429-5.739,7.125-9.195,12.928-7.765C402.987,204.416,406.443,210.219,405.013,215.915z" fill="#0da143" data-original="#000000" style="" class=""/>
	</g>
</g>
<g xmlns="http://www.w3.org/2000/svg">
</g>
<g xmlns="http://www.w3.org/2000/svg">
</g>
<g xmlns="http://www.w3.org/2000/svg">
</g>
<g xmlns="http://www.w3.org/2000/svg">
</g>
<g xmlns="http://www.w3.org/2000/svg">
</g>
<g xmlns="http://www.w3.org/2000/svg">
</g>
<g xmlns="http://www.w3.org/2000/svg">
</g>
<g xmlns="http://www.w3.org/2000/svg">
</g>
<g xmlns="http://www.w3.org/2000/svg">
</g>
<g xmlns="http://www.w3.org/2000/svg">
</g>
<g xmlns="http://www.w3.org/2000/svg">
</g>
<g xmlns="http://www.w3.org/2000/svg">
</g>
<g xmlns="http://www.w3.org/2000/svg">
</g>
<g xmlns="http://www.w3.org/2000/svg">
</g>
<g xmlns="http://www.w3.org/2000/svg">
</g>
</g></svg>
