<svg xmlns="http://www.w3.org/2000/svg" xmlns:xlink="http://www.w3.org/1999/xlink" version="1.1" width="50" height="50"
     viewBox="0 0 50 50" xml:space="preserve">
    <g transform="matrix(1.6072 0 0 1.6072 24.9994 24.9995)" id="142749">
        <path style="stroke: none; stroke-width: 1; stroke-dasharray: none; stroke-linecap: butt; stroke-dashoffset: 0; stroke-linejoin: miter; stroke-miterlimit: 4; is-custom-font: none; font-file-url: none; fill: rgb(255,253,208); fill-rule: nonzero; opacity: 1;"
              vector-effect="non-scaling-stroke" transform=" translate(80, 80.0008)"
              d="M -79.999 -92.477 C -88.284 -92.477 -95 -87.394 -95 -81.124 c 0 3.569 2.178 6.754 5.583 8.836 c -0.505 1.34 -1.254 2.844 -2.352 4.4 c 2.626 1.131 5.615 -0.586 7.726 -2.302 c 1.286 0.271 2.642 0.418 4.044 0.418 c 8.282 0 14.999 -5.083 14.999 -11.352 C -65 -87.393 -71.717 -92.476 -79.999 -92.477 L -79.999 -92.477 z"
              stroke-linecap="round"/>
    </g>
    <g transform="matrix(1 0 0 1 25 25)" style="" id="9025">
        <path xml:space="preserve" font-family="Aldrich" font-size="18" font-style="normal" font-weight="normal"
              style="stroke: none; stroke-width: 1; stroke-dasharray: none; stroke-linecap: butt; stroke-dashoffset: 0; stroke-linejoin: miter; stroke-miterlimit: 4; is-custom-font: none; font-file-url: none; fill: rgb(0,0,0); fill-rule: nonzero; opacity: 1; white-space: pre;"
              d="M-11.21 5.65L-13.01 5.65L-13.01-6.95L-6.11-6.95Q-3.05-6.95-3.05-3.88L-3.05-3.88L-3.05-2.09Q-3.05 0.98-6.11 0.98L-6.11 0.98L-11.21 0.98L-11.21 5.65ZM-11.21-5.15L-11.21-0.82L-6.21-0.82Q-5.48-0.82-5.17-1.14Q-4.85-1.46-4.85-2.18L-4.85-2.18L-4.85-3.79Q-4.85-4.51-5.17-4.83Q-5.48-5.15-6.21-5.15L-6.21-5.15L-11.21-5.15ZM6.50 5.65L5.97 5.65L1.27-3.58L1.27 5.65L-0.54 5.65L-0.54-6.95L1.43-6.95L6.23 2.54L11.04-6.95L13.00-6.95L13.00 5.65L11.21 5.65L11.21-3.58L6.50 5.65Z"/>
    </g>
</svg>
