<svg xmlns="http://www.w3.org/2000/svg" xmlns:xlink="http://www.w3.org/1999/xlink" version="1.1" width="50" height="50"
     viewBox="0 0 50 50" xml:space="preserve">
    <g transform="matrix(1 0 0 1 25 25)" id="727070">
        <g style="" vector-effect="non-scaling-stroke">
            <g transform="matrix(1 0 0 1 0 0)" id="Layer_1">
                <circle style="stroke: rgb(0,158,198); stroke-width: 2; stroke-dasharray: none; stroke-linecap: round; stroke-dashoffset: 0; stroke-linejoin: miter; stroke-miterlimit: 10; is-custom-font: none; font-file-url: none; fill: none; fill-rule: nonzero; opacity: 1;"
                        cx="0" cy="0" r="24"/>
            </g>
            <g transform="matrix(1 0 0 1 0 0)" id="Layer_1">
                <rect style="stroke: none; stroke-width: 1; stroke-dasharray: none; stroke-linecap: butt; stroke-dashoffset: 0; stroke-linejoin: miter; stroke-miterlimit: 4; is-custom-font: none; font-file-url: none; fill: none; fill-rule: nonzero; opacity: 1;"
                      x="-25" y="-25" rx="0" ry="0" width="50" height="50"/>
            </g>
            <g transform="matrix(1 0 0 1 0.0235 3.2945)" id="Layer_1">
                <path style="stroke: none; stroke-width: 1; stroke-dasharray: none; stroke-linecap: butt; stroke-dashoffset: 0; stroke-linejoin: miter; stroke-miterlimit: 4; is-custom-font: none; font-file-url: none; fill: rgb(0,158,198); fill-rule: nonzero; opacity: 1;"
                      transform=" translate(-25.0235, -28.2945)"
                      d="M 29.933 35.528 c -0.146 -1.612 -0.09 -2.737 -0.09 -4.21 c 0.73 -0.383 2.038 -2.825 2.259 -4.888 c 0.574 -0.047 1.479 -0.607 1.744 -2.818 c 0.143 -1.187 -0.425 -1.855 -0.771 -2.065 c 0.934 -2.809 2.874 -11.499 -3.588 -12.397 c -0.665 -1.168 -2.368 -1.759 -4.581 -1.759 c -8.854 0.163 -9.922 6.686 -7.981 14.156 c -0.345 0.21 -0.913 0.878 -0.771 2.065 c 0.266 2.211 1.17 2.771 1.744 2.818 c 0.22 2.062 1.58 4.505 2.312 4.888 c 0 1.473 0.055 2.598 -0.091 4.21 c -1.261 3.39 -7.737 3.655 -11.473 6.924 c 3.906 3.933 10.236 6.746 16.916 6.746 s 14.532 -5.274 15.839 -6.713 C 37.688 39.186 31.197 38.93 29.933 35.528 z"
                      stroke-linecap="round"/>
            </g>
        </g>
    </g>
</svg>
