<svg xmlns="http://www.w3.org/2000/svg" xmlns:xlink="http://www.w3.org/1999/xlink" version="1.1" width="50" height="50"
     viewBox="0 0 50 50" xml:space="preserve">
    <g transform="matrix(2.4447 0 0 2.4447 24.947 24.947)" id="963386">
        <path style="stroke: none; stroke-width: 1; stroke-dasharray: none; stroke-linecap: butt; stroke-dashoffset: 0; stroke-linejoin: miter; stroke-miterlimit: 4; is-custom-font: none; font-file-url: none; fill: rgb(128,128,128); fill-rule: evenodd; opacity: 1;"
              vector-effect="non-scaling-stroke" transform=" translate(-10, -10)"
              d="M 10 0 C 4.5 0 0 4.5 0 10 C 0 15.5 4.5 20 10 20 C 15.5 20 20 15.5 20 10 C 20 4.5 15.5 0 10 0 L 10 0 Z M 10 18 C 5.6 18 2 14.4 2 10 C 2 5.6 5.6 2 10 2 C 14.4 2 18 5.6 18 10 C 18 14.4 14.4 18 10 18 L 10 18 Z"
              stroke-linecap="round"/>
    </g>
    <g transform="matrix(0.5051 0 0 0.5051 25.001 25.001)" id="967347">
        <g style="" vector-effect="non-scaling-stroke">
            <g transform="matrix(0.1318 0 0 0.1318 0.0058 3.0019)" id="Capa_1">
                <path style="stroke: none; stroke-width: 1; stroke-dasharray: none; stroke-linecap: butt; stroke-dashoffset: 0; stroke-linejoin: miter; stroke-miterlimit: 4; is-custom-font: none; font-file-url: none; fill: rgb(128,128,128); fill-rule: nonzero; opacity: 1;"
                      vector-effect="non-scaling-stroke" transform=" translate(-188.521, -211.2632)"
                      d="M 337.771 103.538 c -14.648 -22.722 -34.645 -42.102 -57.818 -56.046 c -4.334 -2.607 -9.736 -2.682 -14.141 -0.191 c -4.402 2.49 -7.127 7.157 -7.127 12.216 v 29.031 c 0 4.379 2.045 8.508 5.529 11.162 c 31.094 23.686 49.654 61.019 49.654 99.866 c 0 69.115 -56.23 125.345 -125.346 125.345 c -69.116 0 -125.346 -56.229 -125.346 -125.345 c 0 -38.848 18.562 -76.181 49.654 -99.866 c 3.483 -2.654 5.529 -6.783 5.529 -11.162 V 59.517 c 0 -5.059 -2.724 -9.726 -7.126 -12.216 c -4.405 -2.49 -9.808 -2.416 -14.142 0.191 c -23.176 13.944 -43.169 33.324 -57.819 56.046 c -18.46 28.63 -28.218 61.838 -28.218 96.038 c 0 47.402 18.46 91.969 51.979 125.488 c 33.521 33.52 78.086 51.979 125.488 51.979 c 47.402 0 91.968 -18.459 125.488 -51.979 c 33.518 -33.52 51.979 -78.086 51.979 -125.488 C 365.99 165.376 356.232 132.167 337.771 103.538 z"
                      stroke-linecap="round"/>
            </g>
            <g transform="matrix(0.1318 0 0 0.1318 0.0004 -10.6371)" id="Capa_1">
                <path style="stroke: none; stroke-width: 1; stroke-dasharray: none; stroke-linecap: butt; stroke-dashoffset: 0; stroke-linejoin: miter; stroke-miterlimit: 4; is-custom-font: none; font-file-url: none; fill: rgb(128,128,128); fill-rule: nonzero; opacity: 1;"
                      vector-effect="non-scaling-stroke" transform=" translate(-188.523, -107.7675)"
                      d="M 172.129 215.535 h 32.789 c 7.257 0 13.16 -5.905 13.16 -13.162 V 13.162 c 0 -7.257 -5.903 -13.162 -13.16 -13.162 h -32.789 c -7.257 0 -13.161 5.904 -13.161 13.162 v 189.211 C 158.968 209.63 164.873 215.535 172.129 215.535 z"
                      stroke-linecap="round"/>
            </g>
        </g>
    </g>
</svg>
