<svg xmlns="http://www.w3.org/2000/svg" xmlns:xlink="http://www.w3.org/1999/xlink" version="1.1" width="50" height="50"
     viewBox="0 0 50 50" xml:space="preserve">
    <g transform="matrix(0.8597 0 0 0.8597 24.9989 24.9989)" id="964301">
        <g style="" vector-effect="non-scaling-stroke">
            <g transform="matrix(1 0 0 1 0 -0.0109)" id="Shape">
                <path style="stroke: none; stroke-width: 1; stroke-dasharray: none; stroke-linecap: butt; stroke-dashoffset: 0; stroke-linejoin: miter; stroke-miterlimit: 4; is-custom-font: none; font-file-url: none; fill: rgb(246,171,39); fill-rule: evenodd; opacity: 1;"
                      transform=" translate(-30, -28.9891)"
                      d="M 31.7569 1.14435 L 39.2006 16.94809 C 39.4742047 17.5450605 40.0274966 17.9662669 40.67576 18.07109 L 57.32037 20.60534 C 58.0728338 20.7512497 58.6840769 21.2991656 58.9110909 22.0312558 C 59.1381048 22.7633461 58.9440977 23.560962 58.4062 24.107 L 46.36205 36.40845 C 45.8969861 36.8906851 45.6879532 37.5647752 45.79858 38.22553 L 48.64182 55.59553 C 48.7969313 56.3422303 48.5093863 57.1116407 47.9025754 57.5735945 C 47.2957646 58.0355484 46.4775729 58.1079148 45.7991 57.75964 L 30.9117 49.55864 C 30.3445605 49.2442297 29.6554395 49.2442297 29.0883 49.55864 L 14.2009 57.75964 C 13.5224271 58.1079148 12.7042354 58.0355484 12.0974246 57.5735945 C 11.4906137 57.1116407 11.2030687 56.3422303 11.35818 55.59553 L 14.20142 38.22553 C 14.3120468 37.5647752 14.1030139 36.8906851 13.63795 36.40845 L 1.5938 24.107 C 1.05593046 23.5609597 0.861941478 22.7633618 1.08895299 22.0312898 C 1.31596449 21.2992177 1.92718692 20.7513115 2.67963 20.60539 L 19.32424 18.0711 C 19.9725034 17.9662769 20.5257953 17.5450705 20.7994 16.9481 L 28.2431 1.14435 C 28.5505421 0.448721422 29.2394609 -0.00000516717968 30 -0.00000516717968 C 30.7605391 -0.00000516717968 31.4494579 0.448721422 31.7569 1.14435 Z"
                      stroke-linecap="round"/>
            </g>
            <g transform="matrix(1 0 0 1 0 0.512)" id="Shape">
                <path style="stroke: none; stroke-width: 1; stroke-dasharray: none; stroke-linecap: butt; stroke-dashoffset: 0; stroke-linejoin: miter; stroke-miterlimit: 4; is-custom-font: none; font-file-url: none; fill: rgb(244,205,30); fill-rule: evenodd; opacity: 1;"
                      transform=" translate(-30, -29.512)"
                      d="M 18.14844 38.87158 C 18.4633166 36.9540814 17.8494148 35.0009438 16.49414 33.6084 L 7.07031 23.98291 L 19.92676 22.02591 C 21.8914891 21.7210725 23.5752482 20.4575107 24.417 18.65625 L 30 6.80225 L 35.581 18.65283 C 36.4226712 20.4555677 38.1072282 21.720432 40.07319 22.02583 L 52.92964 23.98283 L 43.50386 33.61027 C 42.1493392 35.0034307 41.5362139 36.9566633 41.85156 38.874 L 44.03613 52.22166 L 32.8418 46.05518 C 31.0734665 45.0789497 28.9278569 45.0785721 27.15918 46.05418 L 15.96387 52.22168 L 18.14844 38.87158 Z"
                      stroke-linecap="round"/>
            </g>
        </g>
    </g>
</svg>
