<?xml version="1.0" encoding="utf-8"?>
<svg width="800px" height="800px" viewBox="0 0 24 24" fill="none" xmlns="http://www.w3.org/2000/svg">
<path d="M12 2C6.4898 2 2 6.4898 2 12C2 17.5102 6.4898 22 12 22C17.5102 22 22 17.5102 22 12C22 6.4898 17.5102 2 12 2Z" fill="#2E8B57"/>
<path d="M15.5714 10.4694L11.4898 14.551C11.2857 14.6531 11.1837 14.7551 10.9796 14.7551C10.7755 14.7551 10.5714 14.6531 10.4694 14.551L8.42857 12.5102C8.12245 12.2041 8.12245 11.6939 8.42857 11.3878C8.73469 11.0816 9.2449 11.0816 9.55102 11.3878L11.0816 12.9184L14.6531 9.34694C14.9592 9.04082 15.4694 9.04082 15.7755 9.34694C15.8776 9.7551 15.8776 10.1633 15.5714 10.4694Z" fill="#fff"/>
</svg>
