<svg xmlns="http://www.w3.org/2000/svg" xmlns:xlink="http://www.w3.org/1999/xlink" version="1.1" width="50" height="50"
     viewBox="0 0 50 50" xml:space="preserve">
    <g transform="matrix(0.0621 0 0 0.0621 24.9991 24.9991)" id="990980">
        <g style="" vector-effect="non-scaling-stroke">
            <g transform="matrix(22.2222 0 0 22.2222 -0.0004 -0.0003)">
                <path style="stroke: none; stroke-width: 1; stroke-dasharray: none; stroke-linecap: butt; stroke-dashoffset: 0; stroke-linejoin: miter; stroke-miterlimit: 4; is-custom-font: none; font-file-url: none; fill: rgb(49,55,61); fill-rule: nonzero; opacity: 1;"
                      transform=" translate(-18, -18)"
                      d="M 32 5 H 4 a 4 4 0 0 0 -4 4 v 18 a 4 4 0 0 0 4 4 h 28 a 4 4 0 0 0 4 -4 V 9 a 4 4 0 0 0 -4 -4 z"
                      stroke-linecap="round"/>
            </g>
            <g transform="matrix(22.2222 0 0 22.2222 -55.5556 -122.2223)">
                <circle style="stroke: none; stroke-width: 1; stroke-dasharray: none; stroke-linecap: butt; stroke-dashoffset: 0; stroke-linejoin: miter; stroke-miterlimit: 4; is-custom-font: none; font-file-url: none; fill: rgb(49,55,61); fill-rule: nonzero; opacity: 1;"
                        cx="0" cy="0" r="1.5"/>
            </g>
            <g transform="matrix(22.2222 0 0 22.2222 55.5555 -122.2223)">
                <circle style="stroke: none; stroke-width: 1; stroke-dasharray: none; stroke-linecap: butt; stroke-dashoffset: 0; stroke-linejoin: miter; stroke-miterlimit: 4; is-custom-font: none; font-file-url: none; fill: rgb(49,55,61); fill-rule: nonzero; opacity: 1;"
                        cx="0" cy="0" r="1.5"/>
            </g>
            <g transform="matrix(22.2222 0 0 22.2222 0 -55.5556)">
                <ellipse
                        style="stroke: none; stroke-width: 1; stroke-dasharray: none; stroke-linecap: butt; stroke-dashoffset: 0; stroke-linejoin: miter; stroke-miterlimit: 4; is-custom-font: none; font-file-url: none; fill: rgb(41,47,51); fill-rule: nonzero; opacity: 1;"
                        cx="0" cy="0" rx="1" ry="0.5"/>
            </g>
            <g transform="matrix(22.2222 0 0 22.2222 0.0614 111.1122)">
                <path style="stroke: none; stroke-width: 1; stroke-dasharray: none; stroke-linecap: butt; stroke-dashoffset: 0; stroke-linejoin: miter; stroke-miterlimit: 4; is-custom-font: none; font-file-url: none; fill: rgb(230,231,232); fill-rule: nonzero; opacity: 1;"
                      transform=" translate(-18.0028, -23.0001)"
                      d="M 29.021 24.883 a 1 1 0 0 0 -1.282 0.598 L 20.923 23 l 6.816 -2.48 a 1 1 0 1 0 0.598 -1.282 a 1 1 0 1 0 -1.281 -0.597 L 18 21.937 l -9.056 -3.296 a 0.999 0.999 0 1 0 -1.879 -0.684 a 0.998 0.998 0 0 0 0.598 1.281 a 0.998 0.998 0 0 0 -1.281 0.599 a 0.999 0.999 0 1 0 1.879 0.683 L 15.077 23 l -6.815 2.48 a 1 1 0 1 0 -0.598 1.281 a 1 1 0 1 0 1.281 0.598 L 18 24.065 l 9.055 3.295 a 1 1 0 1 0 1.281 -0.598 a 1 1 0 1 0 0.685 -1.879 z"
                      stroke-linecap="round"/>
            </g>
            <g transform="matrix(22.2222 0 0 22.2222 -0.0001 -111.1113)">
                <path style="stroke: none; stroke-width: 1; stroke-dasharray: none; stroke-linecap: butt; stroke-dashoffset: 0; stroke-linejoin: miter; stroke-miterlimit: 4; is-custom-font: none; font-file-url: none; fill: rgb(230,231,232); fill-rule: nonzero; opacity: 1;"
                      transform=" translate(-18, -13)"
                      d="M 18 7 c -4 0 -6 3.239 -6 6 c 0 1.394 0.827 2.399 2 3.054 V 18 a 1 1 0 1 0 2 0 v -1.216 c 0.33 0.072 0.665 0.127 1 0.162 V 18 a 1 1 0 1 0 2 0 v -1.054 c 0.335 -0.036 0.67 -0.09 1 -0.162 V 18 a 1 1 0 1 0 2 0 v -1.946 c 1.173 -0.654 2 -1.659 2 -3.054 c 0 -2.761 -2 -6 -6 -6 z m -2.5 7 c -0.829 0 -1.5 0 -1.5 -1.5 a 1.5 1.5 0 0 1 1.5 -1.5 c 1.5 0 1.5 0.671 1.5 1.5 s -0.671 1.5 -1.5 1.5 z m 2.5 2 c -0.552 0 -1 -0.224 -1 -0.5 s 0.448 -0.5 1 -0.5 s 1 0.224 1 0.5 s -0.448 0.5 -1 0.5 z m 2.5 -2 c -0.828 0 -1.5 -0.671 -1.5 -1.5 s 0 -1.5 1.5 -1.5 a 1.5 1.5 0 0 1 1.5 1.5 c 0 1.5 -0.672 1.5 -1.5 1.5 z"
                      stroke-linecap="round"/>
            </g>
        </g>
    </g>
</svg>
