<svg xmlns="http://www.w3.org/2000/svg" version="1.1" xmlns:xlink="http://www.w3.org/1999/xlink" xmlns:svgjs="http://svgjs.dev/svgjs" viewBox="0 0 800 800"><defs><linearGradient x1="50%" y1="0%" x2="50%" y2="100%" id="uundulate-grad"><stop stop-color="#6882f0" stop-opacity="1" offset="45%"></stop><stop stop-color="#f16968" stop-opacity="1" offset="100%"></stop></linearGradient></defs><g stroke-width="2" stroke="url(#uundulate-grad)" fill="none"><path d="M669.5009061039501 345.35396243295907C689.2443020764124 430.04835973785634 653.835302521448 565.1066421700582 595.0781053601086 629.2200916257591C536.3209081987691 693.3335410814599 459.24477247808386 681.0144358637576 387.46635972952004 653.0985198203222C315.6879469809561 625.1826037768867 302.4221487966935 601.7507916062175 250.541724167001 495.2236946172693C198.66129953730854 388.6965976283209 86.40530473089541 198.54693553483196 138.44032150699712 141.76845427337025C190.4753382830989 84.98997301190849 389.67218290125777 180.27333702900478 500.3098046922896 222.6869845622523C610.9474264833216 265.1006320954999 649.757510131488 260.65956512806184 669.5009061039501 345.35396243295907C689.2443020764124 430.04835973785634 653.835302521448 565.1066421700582 595.0781053601086 629.2200916257591 "></path><path d="M657.2509231782379 347.8378732314609C676.0968920610427 428.68252520431724 642.2973924858495 557.601794798692 586.2109770136618 618.8009965518609C530.1245615414741 680.0001983050298 456.5518865353656 668.241052415405 388.03612891173645 641.5940416466711C319.5203712881072 614.9470308779372 306.85756393040197 592.5803010786622 257.33534042024104 490.8953448619387C207.81311691008005 389.2103886452153 100.6596673221402 207.70389301052143 150.3294560629646 153.50625180639884C199.999244803789 99.3086106022763 390.1416873938497 190.26091261859546 495.7503263761985 230.74666708214994C601.358965358547 271.2324215457044 638.4049542954332 266.9932212586044 657.2509231782379 347.8378732314609C676.0968920610427 428.68252520431724 642.2973924858495 557.601794798692 586.2109770136618 618.8009965518609 "></path><path d="M645.0008944761585 350.3217840299628C662.949436269306 427.31669067077837 630.7594366738838 550.0969474273256 577.3438028908479 608.3819014779629C523.928169107812 666.6668555285999 453.8589548162802 655.4676689670523 388.6058523175857 630.0895634730201C323.3527498188912 604.7114579789879 311.2929332877434 583.4098105511068 264.1289108971139 486.5669951066084C216.96488850648433 389.7241796621098 114.91398413701779 216.8608504862109 162.21854484256488 165.24404933942748C209.52310554811191 113.62724819264406 390.6111461100745 200.24848820818613 491.1908022837399 238.8063496020476C591.7704584574053 277.364210995909 627.0523526830111 273.3268773891471 645.0008944761585 350.3217840299628C662.949436269306 427.31669067077837 630.7594366738838 550.0969474273256 577.3438028908479 608.3819014779629 "></path><path d="M632.7508047389229 352.80569482846465C649.8019194424129 425.9508561372395 619.2214198267619 542.5921000559595 568.4765677328778 597.9628064040646C517.7317156389937 653.3335127521699 451.1659620620384 642.6942855186999 389.17551468827855 618.5850852993692C327.18506731451885 594.4758850800386 315.72824160992843 574.2393200235515 270.9224203388304 482.2386453512779C226.1165990677324 390.2379706790043 129.1682399167392 226.0178079619003 174.10757258700886 176.98184687245612C219.04690525727858 127.94588578301187 391.0805437911431 210.2360637977768 486.6312171561251 246.86603212194518C582.1818905211073 283.49600044611356 615.6996900354328 279.6605335196898 632.7508047389229 352.80569482846465C649.8019194424129 425.9508561372395 619.2214198267619 542.5921000559595 568.4765677328778 597.9628064040646 "></path><path d="M620.5007607780544 355.2896056269665C636.6544483918872 424.5850216037006 607.6834487560071 535.0872526845931 559.6093783512749 587.5437113301665C511.5353079465426 640.0001699757398 448.47301508416376 629.9209020703471 389.74522283533884 607.0806071257182C331.0174305865138 584.2403121810892 320.1635957084808 565.0688294959962 277.7159755569142 477.91029559594745C235.26835540534762 390.75176169589884 143.42254147282773 235.17476543758977 185.99664610782008 188.7196444054847C228.57075074281244 142.2645233733797 391.54998724857876 220.22363938736754 482.0716778048777 254.92571464184277C572.5933683611765 289.62778989631806 604.3470731642217 285.9941896502324 620.5007607780544 355.2896056269665C636.6544483918872 424.5850216037006 607.6834487560071 535.0872526845931 559.6093783512749 587.5437113301665 "></path><path d="M608.2507168171859 357.7735164254684C623.5069773413612 423.21918707016164 596.1454776852524 527.5824053132269 550.7421889696719 577.1246162562684C505.3389002540914 626.6668271993099 445.78006810628926 617.1475186219945 390.314930982399 595.5761289520672C334.84979385850863 574.0047392821398 324.598949807033 555.8983389684408 284.5095307749979 473.5819458406171C244.4201117429629 391.26555271279335 157.67684302891632 244.33172291327924 197.8857196286313 200.45744193851334C238.0945962283463 156.58316096374745 392.01943070601453 230.21121497695822 477.5121384536301 262.9853971617404C563.0048462012458 295.7595793465226 592.9944562930107 292.3278457807751 608.2507168171859 357.7735164254684C623.5069773413612 423.21918707016164 596.1454776852524 527.5824053132269 550.7421889696719 577.1246162562684 "></path><path d="M596.0006881151065 360.25742722397024C610.3595215496244 421.85335253662277 584.6075218732867 520.0775579418605 541.875014846858 566.7055211823701C499.1425078204293 613.3334844228799 443.0871363872038 604.3741351736419 390.88465438824824 584.0716507784161C338.68217238929265 563.7691663831904 329.0343191643744 546.7278484408855 291.30310125187077 469.25359608528674C253.57188333936716 391.77934372968787 171.93115984379392 253.4886803889687 209.7748084082316 212.19523947154198C247.6184569726692 170.90179855411526 392.48888942223925 240.1987905665489 472.9526143611715 271.0450796816381C553.4163393001039 301.8913687967272 581.6418546805885 298.6615019113177 596.0006881151065 360.25742722397024C610.3595215496244 421.85335253662277 584.6075218732867 520.0775579418605 541.875014846858 566.7055211823701 "></path><path d="M583.750644154238 362.74133802247206C597.2120504990986 420.4875180030838 573.069550802532 512.5727105704943 533.0078254652551 556.2864261084721C492.94610012797807 600.00014164645 440.3941894093292 591.6007517252893 391.4543625353084 572.5671726047651C342.5145356612875 553.533593484241 333.4696732629267 537.5573579133302 298.09665646995455 464.9252463299563C262.72363967698243 392.2931347465824 186.1854613998825 262.64563786465817 221.66388192904282 223.93303700457062C257.14230245820306 185.22043614448307 392.958332879675 250.18636615613963 468.39307500992413 279.10476220153566C543.8278171401731 308.02315824693176 570.2892378093775 304.99515804186035 583.750644154238 362.74133802247206C597.2120504990986 420.4875180030838 573.069550802532 512.5727105704943 533.0078254652551 556.2864261084721 "></path><path d="M571.5006001933696 365.22524882097395C584.0645794485727 419.1216834695449 561.5315797317772 505.06786319912794 524.1406360836522 545.8673310345739C486.7496924355271 586.6667988700199 437.7012424314547 578.8273682769366 392.0240706823686 561.0626944311141C346.34689893328243 543.2980205852915 337.9050273614789 528.3868673857748 304.8902116880383 460.5968965746258C271.87539601459764 392.8069257634769 200.43976295597105 271.80259534034764 233.55295544985398 235.6708345375992C266.6661479437369 199.53907373485083 393.4277763371108 260.1739417457303 463.8335356586765 287.1644447214333C534.2392949802423 314.15494769713627 558.9366209381664 311.328814172403 571.5006001933696 365.22524882097395C584.0645794485727 419.1216834695449 561.5315797317772 505.06786319912794 524.1406360836522 545.8673310345739 "></path><path d="M559.2505714912902 367.7091596194758C570.9171236568359 417.75584893600603 549.9936239198116 497.56301582776166 515.2734619608382 535.4482359606759C480.55330000186495 573.33345609359 435.00831071236917 566.0539848285841 392.5937940882178 549.5582162574631C350.1792774640664 533.0624476863422 342.3403967188203 519.2163768582195 311.6837821649111 456.26854681929547C281.0271676110019 393.3207167803714 214.6940797708487 280.9595528160371 245.44204422945427 247.40863207062785C276.19000868805983 213.85771132521865 393.8972350533355 270.161517335321 459.27401156621806 295.2241272413309C524.6507880791005 320.28673714734083 547.5840193257443 317.6624703029456 559.2505714912902 367.7091596194758C570.9171236568359 417.75584893600603 549.9936239198116 497.56301582776166 515.2734619608382 535.4482359606759 "></path><path d="M547.0005275304217 370.19307041797765C557.7696526063102 416.39001440246705 538.4556528490568 490.0581684563954 506.4062725792353 525.0291408867777C474.35689230941375 560.00011331716 432.31536373449467 553.2806013802315 393.163502235278 538.053738083812C354.0116407360613 522.8268747873927 346.77575081737257 510.0458863306642 318.47733738299485 451.940197063965C290.1789239486172 393.8345077972659 228.94838132693724 290.1165102917265 257.3311177502655 259.1464296036565C285.7138541735937 228.17634891558646 394.3666785107713 280.14909292491166 454.71447221497056 303.28380976122855C515.0622659191697 326.4185265975454 536.2314024545333 323.99612643348826 547.0005275304217 370.19307041797765C557.7696526063102 416.39001440246705 538.4556528490568 490.0581684563954 506.4062725792353 525.0291408867777 "></path><path d="M534.7504683107641 372.67698121647953C544.6221662969953 415.0241798689282 526.9176665195131 482.5533210850291 497.53906793884335 514.6100458128795C468.1604693581736 546.6667705407299 429.622401497831 540.5072179318788 393.7331951235491 526.549259910161C357.8439887492671 512.5913018884434 351.2110896571358 500.87539580310874 325.27087734228957 447.61184730863465C299.33066502744333 394.34829881416044 243.20266762423677 299.273467767416 269.22017601228765 270.8842271366851C295.2376844003385 242.49498650595422 394.83610670941795 290.1366685145024 450.15491760493387 311.34349228112615C505.47372850044985 332.55031604774996 524.878770324533 330.3297825640309 534.7504683107641 372.67698121647953C544.6221662969953 415.0241798689282 526.9176665195131 482.5533210850291 497.53906793884335 514.6100458128795 "></path><path d="M522.5004396086847 375.16087675619235C531.4747105052585 413.6583300766001 515.3797107075474 475.04845845487375 488.6718938160294 504.19093548019237C461.96407692451146 533.3334125055109 426.92946977874556 527.7338192247371 394.3029185293983 515.0447664777209C361.67636728005107 502.3557137307049 355.64645901447716 491.70489001676435 332.0644478191624 443.2834822945151C308.48243662384766 394.86207457226584 257.45698443911436 308.4304099843164 281.1092647918879 282.62200941092465C304.76154514466145 256.81360883753297 395.3055654256427 300.124228845304 445.5953935124754 319.40315954223473C495.8852215993081 338.6820902391654 513.526168712111 336.6634234357845 522.5004396086847 375.16087675619235C531.4747105052585 413.6583300766001 515.3797107075474 475.04845845487375 488.6718938160294 504.19093548019237 "></path><path d="M510.2503956478163 377.6447875546942C518.3272394547326 412.29249554306125 503.8417396367927 467.54361108350747 479.8047044344265 493.77184040629413C455.76766923206037 520.0000697290809 424.23652280087094 514.9604357763844 394.8726266764585 503.54028830407003C365.50873055204596 492.1201408317555 360.08181311302945 482.534399489209 338.85800303724614 438.95513253918466C317.6341929614629 395.37586558916036 271.71128599520296 317.58736746000585 292.9983383126991 294.3598069439533C314.2853906301953 271.1322464279008 395.77500888307844 310.1118044348947 441.0358541612279 327.4628420621323C486.29669943937733 344.81387968936997 502.1735518408999 342.99707956632716 510.2503956478163 377.6447875546942C518.3272394547326 412.29249554306125 503.8417396367927 467.54361108350747 479.8047044344265 493.77184040629413 "></path><path d="M498.00035168694785 380.1287288707742C505.1797684042067 410.92669152710045 492.3037685660379 460.0387942297193 470.9375150528235 483.35277584997414C449.57126153960917 506.66675747022896 421.54357582299644 502.18708284561 395.44233482351865 492.03584064799713C369.34109382404085 481.88459845038426 364.51716721158175 473.3639394792318 345.6515582553299 434.62681330143243C326.78594929907814 395.889687123633 285.9655875512915 326.74435545327344 304.8874118335103 306.09763499456005C323.80923611572916 285.45091453584666 396.24445234051416 320.09941054206354 436.4763148099803 335.5225550996081C476.70817727944655 350.94569965715266 490.8209349696888 349.3307662144479 498.00035168694785 380.1287288707742C505.1797684042067 410.92669152710045 492.3037685660379 460.0387942297193 470.9375150528235 483.35277584997414 "></path><path d="M485.7503229848684 382.61260915169794C492.0323126124699 409.5608264759834 480.76581275407216 452.5339163407749 462.0703409300097 472.9336502584979C443.37486910594714 493.3333841762209 418.85064410391095 489.4136688796792 396.0120582293679 480.531331956768C373.1734723548248 471.64899503385664 368.95253656892305 464.19341843409836 352.44512873220276 430.29843302852385C335.9377208954824 396.4034476229494 300.21990436616915 335.9012824113847 316.7765006131106 317.83540201001057C333.3330968600521 299.76952160863635 396.713911056739 330.0869556140761 431.91679071752185 343.58220710192757C467.11967037830476 357.0774585897791 479.46833335726683 355.66439182741243 485.7503229848684 382.61260915169794C492.0323126124699 409.5608264759834 480.76581275407216 452.5339163407749 462.0703409300097 472.9336502584979 "></path><path d="M473.50026376521083 385.0965352089888C478.8848263031551 408.1950072012335 469.2278264245284 445.0290842281977 453.20313628961765 462.51457044338883C437.1784461547069 480.00005665858 416.15768186724733 476.64030069011574 396.581751117639 469.026869041906C377.00582036803064 461.41343739369637 373.3878754086863 455.0229431653321 359.2386686914974 425.9700985319825C345.08946197430856 396.91725389863296 314.4741906634686 345.05825514586326 328.6655588751327 329.57321480182827C342.8569270867969 314.08817445779323 397.18333925538565 340.0745464624558 427.3572361074853 351.6419048806143C457.53113295958485 363.2092632987727 468.11570122726664 361.99806321674413 473.50026376521083 385.0965352089888C478.8848263031551 408.1950072012335 469.2278264245284 445.0290842281977 453.20313628961765 462.51457044338883 "></path><path d="M461.25021980434235 387.5804460074907C465.73735525262924 406.8291726676946 457.6898553537737 437.5242368568314 444.3359469080147 452.0954753694907C430.98203846225573 466.66671388214996 413.4647348893728 463.8669172417631 397.15145926469916 457.522390868255C380.83818364002553 451.177864494747 377.8232295072386 445.8524526377767 366.0322239095812 421.6417487766521C354.24121831192383 397.4310449155275 328.7284922195572 354.2152126215527 340.55463239594394 341.31101233485685C352.3807725723307 328.40681204816104 397.65278271282136 350.06212205204656 422.7976967562377 359.70158740051187C447.94261079965406 369.34105274897723 456.7630843560555 368.33171934728676 461.25021980434235 387.5804460074907C465.73735525262924 406.8291726676946 457.6898553537737 437.5242368568314 444.3359469080147 452.0954753694907 "></path><path d="M449.0001758434739 390.06435680599253C452.58988420210335 405.46333813415566 446.15188428301894 430.0193894854651 435.46875752641176 441.67638029559254C424.7856307698046 453.33337110571995 410.7717879114982 451.0935337934105 397.7211674117593 446.01791269460404C384.6705469120204 440.9422915957976 382.2585836057909 436.6819621102214 372.825779127665 417.3133990213217C363.39297464953904 397.94483593242194 342.98279377564575 363.3721700972422 352.44370591675516 353.0488098678855C361.9046180578646 342.7254496385288 398.1222261702571 360.04969764163724 418.23815740499015 367.7612699204095C438.3540886397233 375.4728421991818 445.4104674848444 374.6653754778294 449.0001758434739 390.06435680599253C452.58988420210335 405.46333813415566 446.15188428301894 430.0193894854651 435.46875752641176 441.67638029559254 "></path><path d="M436.7501318826054 392.5482676044944C439.4424131515775 404.09750360061673 434.6139132122642 422.51454211409884 426.6015681448088 431.2572852216944C418.58922307735344 440.00002832929 408.07884093362367 438.32015034505787 398.2908755588195 434.513434520953C388.5029101840153 430.70671869684816 386.69393770434317 427.51147158266605 379.6193343457487 412.9850492659913C372.5447309871543 398.45862694931645 357.23709533173434 372.52912757293166 364.3327794375664 364.78660740091414C371.42846354339844 357.0440872288966 398.5916696276928 370.0372732312279 413.67861805374264 375.8209524403071C428.7655664797924 381.60463164938636 434.0578506136333 380.9990316083721 436.7501318826054 392.5482676044944C439.4424131515775 404.09750360061673 434.6139132122642 422.51454211409884 426.6015681448088 431.2572852216944 "></path><path d="M424.50008792173696 395.0321784029963C426.2949421010517 402.73166906707786 423.0759421415095 415.00969474273256 417.7343787632059 420.8381901477963C412.3928153849023 426.66668555286 405.3858939557491 425.5467668967052 398.86058370587966 423.00895634730205C392.3352734560102 420.47114579789877 391.1292918028954 418.34098105511066 386.4128895638325 408.6566995106608C381.6964873247695 398.97241796621097 371.4913968878229 381.68608504862107 376.22185295837755 376.5244049339427C380.9523090289323 371.36272481926443 399.06111308512857 380.0248488208186 409.1190787024951 383.88063496020476C419.17704431986164 387.73642109959087 422.7052337424222 387.33268773891473 424.50008792173696 395.0321784029963C426.2949421010517 402.73166906707786 423.0759421415095 415.00969474273256 417.7343787632059 420.8381901477963 "></path><path d="M412.25005921965754 397.5160892014981C413.1474863093149 401.36583453353893 411.5379863295438 407.5048473713663 408.867204640392 410.4190950738981C406.1964229512402 413.33334277643 402.6929622366636 412.7733834483526 399.4303071117289 411.504478173651C396.16765198679417 410.2355728989494 395.56466116023677 409.17049052755533 393.2064600407053 404.3283497553304C390.84825892117385 399.4862089831055 385.7457137027005 390.84304252431053 388.11094173797784 388.26220246697136C390.4761697732552 385.6813624096322 399.53057180135335 390.0124244104093 404.5595546100366 391.94031748010235C409.58853741871985 393.86821054979544 411.3526321300002 393.66634386945736 412.25005921965754 397.5160892014981C413.1474863093149 401.36583453353893 411.5379863295438 407.5048473713663 408.867204640392 410.4190950738981 "></path></g></svg>